<svg xmlns="http://www.w3.org/2000/svg" xmlns:xlink="http://www.w3.org/1999/xlink" preserveAspectRatio="xMidYMid" width="219" height="211" viewBox="0 0 219 211">
  <defs>
    <style>

      .cls-3 {
        fill: #2476ff;
      }

      .cls-11 {
        fill: #142a3b;
      }

      .cls-13 {
        fill: #0cb04a;
      }

      .cls-14 {
        fill: #ff3a2f;
      }

      .cls-15 {
        fill: #fbb713;
      }

      .cls-17 {
        fill: #020403;
        opacity: 0.3;
      }

      .cls-23 {
        fill: #ffffff;
      }
    </style>
  </defs>
  <g id="group-150svg">
    <path d="M166.732,194.107 C166.732,194.107 181.677,194.107 181.677,194.107 C184.558,194.107 186.894,195.147 186.894,196.429 C186.894,197.710 184.558,198.750 181.677,198.750 C181.677,198.750 180.981,198.750 180.981,198.750 C178.100,198.750 175.763,199.788 175.763,201.071 C175.763,202.352 178.100,203.391 180.981,203.391 C180.981,203.391 213.107,203.391 213.107,203.391 C215.989,203.391 218.325,204.430 218.325,205.712 C218.325,206.992 215.989,208.032 213.107,208.032 C213.107,208.032 174.499,208.032 174.499,208.032 C174.499,208.032 132.065,208.032 132.065,208.032 C129.183,208.032 126.847,206.992 126.847,205.712 C126.847,204.430 129.183,203.391 132.065,203.391 C132.065,203.391 140.981,203.391 140.981,203.391 C143.863,203.391 146.199,202.352 146.199,201.071 C146.199,199.788 143.863,198.750 140.981,198.750 C140.981,198.750 98.547,198.750 98.547,198.750 C95.666,198.750 93.329,197.710 93.329,196.429 C93.329,195.147 95.666,194.107 98.547,194.107 C98.547,194.107 108.576,194.107 108.576,194.107 C108.576,194.107 166.732,194.107 166.732,194.107 Z" id="path-1" class="cls-3" fill-rule="evenodd"/>
    <path d="M87.028,210.040 C90.318,210.040 92.985,208.854 92.985,207.390 C92.985,205.928 90.318,204.741 87.028,204.741 C87.028,204.741 68.773,204.741 68.773,204.741 C65.482,204.741 62.815,205.928 62.815,207.390 C62.815,208.854 65.482,210.040 68.773,210.040 C68.773,210.040 87.028,210.040 87.028,210.040 Z" id="path-2" class="cls-3" fill-rule="evenodd"/>
    <path d="M66.282,167.701 C66.282,167.701 73.144,167.701 73.144,167.701 C74.467,167.701 75.540,168.291 75.540,169.018 C75.540,169.746 74.467,170.334 73.144,170.334 C73.144,170.334 72.825,170.334 72.825,170.334 C71.501,170.334 70.429,170.924 70.429,171.650 C70.429,172.378 71.501,172.968 72.825,172.968 C72.825,172.968 87.577,172.968 87.577,172.968 C88.899,172.968 89.972,173.557 89.972,174.284 C89.972,175.010 88.899,175.601 87.577,175.601 C87.577,175.601 69.848,175.601 69.848,175.601 C69.848,175.601 33.612,175.601 33.612,175.601 C32.289,175.601 31.216,175.010 31.216,174.284 C31.216,173.557 32.289,172.968 33.612,172.968 C33.612,172.968 37.706,172.968 37.706,172.968 C39.029,172.968 40.102,172.378 40.102,171.650 C40.102,170.924 39.029,170.334 37.706,170.334 C37.706,170.334 18.222,170.334 18.222,170.334 C16.898,170.334 15.826,169.746 15.826,169.018 C15.826,168.291 16.898,167.701 18.222,167.701 C18.222,167.701 22.826,167.701 22.826,167.701 C22.826,167.701 66.282,167.701 66.282,167.701 Z" id="path-3" class="cls-3" fill-rule="evenodd"/>
    <path d="M29.465,25.907 C29.465,25.907 35.003,31.392 35.003,31.392 C36.072,32.450 36.196,34.043 35.281,34.949 C34.366,35.855 32.759,35.733 31.690,34.675 C31.690,34.675 31.433,34.419 31.433,34.419 C30.365,33.362 28.758,33.238 27.842,34.145 C26.928,35.052 27.052,36.644 28.120,37.701 C28.120,37.701 40.026,49.497 40.026,49.497 C41.094,50.555 41.218,52.148 40.304,53.053 C39.388,53.961 37.781,53.837 36.713,52.779 C36.713,52.779 22.405,38.604 22.405,38.604 C22.405,38.604 6.678,23.025 6.678,23.025 C5.610,21.967 5.486,20.375 6.401,19.468 C7.316,18.562 8.923,18.685 9.991,19.742 C9.991,19.742 13.296,23.017 13.296,23.017 C14.363,24.075 15.971,24.198 16.886,23.291 C17.800,22.385 17.676,20.792 16.609,19.735 C16.609,19.735 0.882,4.154 0.882,4.154 C-0.186,3.097 -0.310,1.504 0.605,0.598 C1.520,-0.309 3.127,-0.185 4.195,0.872 C4.195,0.872 7.912,4.554 7.912,4.554 C7.912,4.554 29.465,25.907 29.465,25.907 Z" id="path-4" class="cls-3" fill-rule="evenodd"/>
    <path d="M52.373,71.132 C53.593,72.341 55.428,72.481 56.473,71.446 C57.517,70.411 57.376,68.593 56.156,67.385 C56.156,67.385 49.391,60.682 49.391,60.682 C48.171,59.475 46.336,59.333 45.291,60.369 C44.247,61.403 44.389,63.222 45.608,64.430 C45.608,64.430 52.373,71.132 52.373,71.132 Z" id="path-5" class="cls-3" fill-rule="evenodd"/>
    <path d="M73.095,48.956 C73.095,48.956 75.639,51.476 75.639,51.476 C76.129,51.962 76.106,52.772 75.587,53.287 C75.067,53.801 74.249,53.823 73.759,53.338 C73.759,53.338 73.640,53.221 73.640,53.221 C73.150,52.735 72.332,52.758 71.813,53.271 C71.294,53.787 71.271,54.597 71.761,55.082 C71.761,55.082 77.228,60.498 77.228,60.498 C77.719,60.984 77.696,61.794 77.176,62.309 C76.658,62.822 75.839,62.846 75.349,62.359 C75.349,62.359 68.779,55.852 68.779,55.852 C68.779,55.852 55.349,42.549 55.349,42.549 C54.859,42.062 54.882,41.251 55.401,40.737 C55.920,40.223 56.739,40.199 57.229,40.686 C57.229,40.686 58.746,42.189 58.746,42.189 C59.236,42.674 60.055,42.652 60.574,42.136 C61.092,41.624 61.115,40.813 60.626,40.327 C60.626,40.327 53.404,33.173 53.404,33.173 C52.914,32.687 52.937,31.876 53.456,31.362 C53.975,30.848 54.793,30.826 55.284,31.311 C55.284,31.311 56.990,33.003 56.990,33.003 C56.990,33.003 73.095,48.956 73.095,48.956 Z" id="path-6" class="cls-3" fill-rule="evenodd"/>
    <path d="M79.714,19.024 C79.714,19.024 82.258,21.543 82.258,21.543 C82.748,22.028 82.725,22.838 82.206,23.354 C81.687,23.867 80.868,23.891 80.378,23.404 C80.378,23.404 80.259,23.287 80.259,23.287 C79.769,22.802 78.951,22.824 78.432,23.339 C77.913,23.853 77.890,24.663 78.380,25.150 C78.380,25.150 83.847,30.565 83.847,30.565 C84.338,31.050 84.315,31.861 83.795,32.375 C83.276,32.889 82.459,32.912 81.968,32.427 C81.968,32.427 75.398,25.918 75.398,25.918 C75.398,25.918 61.969,12.614 61.969,12.614 C61.478,12.128 61.501,11.318 62.020,10.804 C62.539,10.289 63.358,10.267 63.848,10.752 C63.848,10.752 65.365,12.256 65.365,12.256 C65.856,12.742 66.674,12.718 67.193,12.204 C67.712,11.690 67.735,10.880 67.245,10.394 C67.245,10.394 60.023,3.239 60.023,3.239 C59.533,2.754 59.556,1.944 60.075,1.428 C60.595,0.915 61.412,0.892 61.903,1.378 C61.903,1.378 63.609,3.069 63.609,3.069 C63.609,3.069 79.714,19.024 79.714,19.024 Z" id="path-7" class="cls-3" fill-rule="evenodd"/>
    <path d="M28.233,95.329 C28.233,95.329 30.776,97.848 30.776,97.848 C31.266,98.334 31.244,99.145 30.724,99.658 C30.205,100.173 29.387,100.196 28.897,99.710 C28.897,99.710 28.779,99.593 28.779,99.593 C28.288,99.107 27.469,99.130 26.951,99.644 C26.432,100.158 26.408,100.969 26.899,101.454 C26.899,101.454 32.366,106.871 32.366,106.871 C32.857,107.357 32.834,108.167 32.315,108.682 C31.795,109.195 30.978,109.218 30.487,108.733 C30.487,108.733 23.916,102.224 23.916,102.224 C23.916,102.224 10.487,88.919 10.487,88.919 C9.997,88.434 10.020,87.624 10.539,87.110 C11.058,86.596 11.876,86.572 12.366,87.059 C12.366,87.059 13.884,88.560 13.884,88.560 C14.375,89.046 15.192,89.023 15.712,88.509 C16.231,87.996 16.254,87.186 15.763,86.701 C15.763,86.701 8.542,79.546 8.542,79.546 C8.052,79.060 8.075,78.249 8.594,77.736 C9.113,77.221 9.931,77.198 10.422,77.684 C10.422,77.684 12.128,79.374 12.128,79.374 C12.128,79.374 28.233,95.329 28.233,95.329 Z" id="path-8" class="cls-3" fill-rule="evenodd"/>
    <path d="M92.890,61.092 C91.474,61.092 90.127,60.267 89.539,58.893 C89.539,58.893 84.901,48.063 84.901,48.063 C84.116,46.230 84.979,44.113 86.829,43.337 C88.675,42.558 90.815,43.415 91.600,45.247 C91.600,45.247 96.238,56.079 96.238,56.079 C97.023,57.913 96.159,60.028 94.310,60.803 C93.846,60.999 93.364,61.092 92.890,61.092 Z" id="path-9" class="cls-11" fill-rule="evenodd"/>
    <path d="M141.600,174.811 C140.184,174.811 138.838,173.986 138.250,172.613 C138.250,172.613 115.054,118.461 115.054,118.461 C114.268,116.630 115.132,114.513 116.981,113.737 C118.831,112.958 120.965,113.814 121.752,115.647 C121.752,115.647 144.948,169.796 144.948,169.796 C145.733,171.629 144.870,173.744 143.020,174.523 C142.557,174.718 142.075,174.811 141.600,174.811 Z" id="path-10" class="cls-11" fill-rule="evenodd"/>
    <path d="M167.599,96.373 C181.185,90.661 194.794,92.093 197.997,99.570 C180.703,59.196 133.644,40.354 92.889,57.486 C52.133,74.619 33.114,121.237 50.408,161.611 C47.205,154.133 55.622,143.445 69.207,137.733 C82.793,132.023 96.401,133.454 99.605,140.930 C96.401,133.454 104.818,122.764 118.404,117.054 C131.989,111.343 145.598,112.773 148.800,120.250 C145.598,112.773 154.015,102.083 167.599,96.373 Z" id="path-11" class="cls-13" fill-rule="evenodd"/>
    <path d="M167.599,96.373 C181.185,90.661 194.794,92.093 197.997,99.570 C180.703,59.196 133.644,40.354 92.889,57.486 C91.631,58.016 93.196,57.346 92.183,57.907 C89.318,59.490 130.624,86.447 148.800,120.250 C144.946,113.082 154.015,102.083 167.599,96.373 Z" id="path-12" class="cls-14" fill-rule="evenodd"/>
    <path d="M148.800,120.250 C131.506,79.876 106.474,51.775 92.889,57.486 C79.303,63.197 82.310,100.557 99.605,140.930 C99.605,140.930 99.457,140.589 99.457,140.589 C96.255,133.111 105.831,125.128 119.416,119.417 C133.002,113.707 145.451,112.430 148.654,119.907 C148.654,119.907 148.800,120.250 148.800,120.250 Z" id="path-13" class="cls-15" fill-rule="evenodd"/>
    <path d="M143.091,189.748 C146.934,198.720 157.392,202.907 166.448,199.099 C175.505,195.293 179.732,184.932 175.889,175.961 C174.608,172.970 171.122,171.575 168.103,172.844 C165.083,174.112 163.675,177.564 164.956,180.556 C166.237,183.547 164.828,187.000 161.810,188.268 C158.790,189.538 155.305,188.142 154.024,185.151 C154.024,185.151 147.065,168.907 147.065,168.907 C147.065,168.907 136.133,173.503 136.133,173.503 C136.133,173.503 143.091,189.748 143.091,189.748 Z" id="path-14" class="cls-11" fill-rule="evenodd"/>
    <path d="M144.332,170.056 C144.332,170.056 150.131,183.593 150.131,183.593 C151.072,185.791 153.204,187.114 155.466,187.165 C154.866,186.616 154.364,185.945 154.024,185.151 C154.024,185.151 147.065,168.907 147.065,168.907 C147.065,168.907 144.332,170.056 144.332,170.056 Z" id="path-15" class="cls-17" fill-rule="evenodd"/>
    <path d="M170.553,172.389 C171.153,172.937 171.656,173.608 171.996,174.402 C175.839,183.374 171.612,193.734 162.556,197.541 C158.724,199.152 154.646,199.317 150.920,198.309 C155.538,200.820 161.223,201.297 166.449,199.099 C175.506,195.293 179.732,184.932 175.889,175.961 C174.948,173.764 172.815,172.439 170.553,172.389 Z" id="path-16" class="cls-17" fill-rule="evenodd"/>
    <path d="M49.063,143.411 C47.790,143.946 46.579,144.538 45.402,145.153 C46.451,150.694 48.094,156.209 50.408,161.611 C47.581,155.009 53.624,142.312 75.126,135.689 C70.359,135.762 54.485,141.131 49.063,143.411 Z" id="path-17" class="cls-17" fill-rule="evenodd"/>
    <path d="M98.259,122.730 C90.834,124.317 85.662,129.929 82.288,134.389 C90.636,133.643 97.459,135.923 99.605,140.930 C96.777,134.329 102.910,128.026 113.760,122.052 C108.992,122.126 103.745,121.557 98.259,122.730 Z" id="path-18" class="cls-17" fill-rule="evenodd"/>
    <path d="M92.889,57.486 C92.746,57.547 92.609,57.617 92.468,57.677 C123.829,53.116 155.514,67.472 172.349,94.669 C184.224,91.089 195.169,92.967 197.997,99.570 C180.703,59.196 133.644,40.354 92.889,57.486 Z" id="path-19" class="cls-17" fill-rule="evenodd"/>
    <path d="M147.455,102.050 C140.463,104.989 125.945,113.893 122.571,118.353 C140.788,111.129 146.655,115.242 148.800,120.250 C145.973,113.648 152.211,104.546 163.061,98.573 C158.293,98.646 152.878,99.770 147.455,102.050 Z" id="path-20" class="cls-17" fill-rule="evenodd"/>
    <path d="M53.035,132.728 C51.350,132.728 49.844,131.569 49.483,129.876 C49.280,128.924 44.815,106.307 68.450,79.179 C69.763,77.674 72.059,77.504 73.581,78.805 C75.103,80.106 75.272,82.382 73.958,83.889 C52.835,108.137 56.444,127.591 56.607,128.408 C56.999,130.354 55.732,132.257 53.770,132.654 C53.523,132.704 53.276,132.728 53.035,132.728 Z" id="path-21" class="cls-23" fill-rule="evenodd"/>
  </g>
</svg>
