<svg xmlns="http://www.w3.org/2000/svg" xmlns:xlink="http://www.w3.org/1999/xlink" preserveAspectRatio="xMidYMid" width="206" height="216" viewBox="0 0 206 216">
  <defs>
    <style>

      .cls-3 {
        fill: #fbb713;
      }

      .cls-6 {
        fill: #020403;
      }

      .cls-7 {
        fill: #142a3b;
      }

      .cls-8 {
        fill: #020403;
        opacity: 0.45;
      }

      .cls-10 {
        fill: #ff3a2f;
      }

      .cls-11 {
        fill: #ffffff;
      }

      .cls-13 {
        fill: #020403;
        opacity: 0.35;
      }

      .cls-18 {
        fill: #020403;
        opacity: 0.25;
      }
    </style>
  </defs>
  <g id="group-88svg">
    <path d="M156.967,191.215 C156.967,191.215 171.165,191.215 171.165,191.215 C173.902,191.215 176.121,193.086 176.121,195.393 C176.121,197.699 173.902,199.568 171.165,199.568 C171.165,199.568 170.504,199.568 170.504,199.568 C167.767,199.568 165.548,201.439 165.548,203.746 C165.548,206.052 167.767,207.923 170.504,207.923 C170.504,207.923 201.025,207.923 201.025,207.923 C203.762,207.923 205.981,209.793 205.981,212.099 C205.981,214.407 203.762,216.276 201.025,216.276 C201.025,216.276 164.346,216.276 164.346,216.276 C164.346,216.276 124.034,216.276 124.034,216.276 C121.297,216.276 119.078,214.407 119.078,212.099 C119.078,209.793 121.297,207.923 124.034,207.923 C124.034,207.923 132.505,207.923 132.505,207.923 C135.241,207.923 137.461,206.052 137.461,203.746 C137.461,201.439 135.241,199.568 132.505,199.568 C132.505,199.568 92.192,199.568 92.192,199.568 C89.454,199.568 87.235,197.699 87.235,195.393 C87.235,193.086 89.454,191.215 92.192,191.215 C92.192,191.215 101.719,191.215 101.719,191.215 C101.719,191.215 156.967,191.215 156.967,191.215 Z" id="path-1" class="cls-3" fill-rule="evenodd"/>
    <path d="M185.996,140.863 C185.996,140.863 190.567,140.863 190.567,140.863 C191.448,140.863 192.162,141.628 192.162,142.571 C192.162,143.516 191.448,144.280 190.567,144.280 C190.567,144.280 190.354,144.280 190.354,144.280 C189.473,144.280 188.758,145.046 188.758,145.989 C188.758,146.934 189.473,147.699 190.354,147.699 C190.354,147.699 200.180,147.699 200.180,147.699 C201.062,147.699 201.776,148.464 201.776,149.407 C201.776,150.352 201.062,151.116 200.180,151.116 C200.180,151.116 188.372,151.116 188.372,151.116 C188.372,151.116 175.393,151.116 175.393,151.116 C174.511,151.116 173.797,150.352 173.797,149.407 C173.797,148.464 174.511,147.699 175.393,147.699 C175.393,147.699 178.119,147.699 178.119,147.699 C179.001,147.699 179.715,146.934 179.715,145.989 C179.715,145.046 179.001,144.280 178.119,144.280 C178.119,144.280 165.140,144.280 165.140,144.280 C164.259,144.280 163.545,143.516 163.545,142.571 C163.545,141.628 164.259,140.863 165.140,140.863 C165.140,140.863 168.208,140.863 168.208,140.863 C168.208,140.863 185.996,140.863 185.996,140.863 Z" id="path-2" class="cls-3" fill-rule="evenodd"/>
    <path d="M23.016,132.764 C26.141,132.764 28.674,131.174 28.674,129.212 C28.674,127.251 26.141,125.661 23.016,125.661 C23.016,125.661 5.673,125.661 5.673,125.661 C2.547,125.661 0.013,127.251 0.013,129.212 C0.013,131.174 2.547,132.764 5.673,132.764 C5.673,132.764 23.016,132.764 23.016,132.764 Z" id="path-3" class="cls-3" fill-rule="evenodd"/>
    <path d="M52.889,191.437 C52.889,191.437 52.889,188.025 52.889,188.025 C52.889,188.025 41.509,188.025 41.509,188.025 C41.509,188.025 41.509,191.437 41.509,191.437 C41.509,191.437 52.889,191.437 52.889,191.437 Z" id="path-4" class="cls-6" fill-rule="evenodd"/>
    <path d="M103.493,62.565 C103.493,62.565 75.329,62.565 75.329,62.565 C75.329,62.565 75.329,48.325 75.329,48.325 C75.329,48.325 103.493,48.325 103.493,48.325 C103.493,48.325 103.493,62.565 103.493,62.565 Z" id="path-5" class="cls-7" fill-rule="evenodd"/>
    <path d="M75.329,48.325 C75.329,48.325 75.329,51.736 75.329,51.736 C75.329,51.736 103.493,58.561 103.493,58.561 C103.493,58.561 103.493,48.325 103.493,48.325 C103.493,48.325 75.329,48.325 75.329,48.325 Z" id="path-6" class="cls-8" fill-rule="evenodd"/>
    <path d="M103.493,185.391 C103.493,185.391 75.329,185.391 75.329,185.391 C75.329,185.391 75.329,171.151 75.329,171.151 C75.329,171.151 103.493,171.151 103.493,171.151 C103.493,171.151 103.493,185.391 103.493,185.391 Z" id="path-7" class="cls-7" fill-rule="evenodd"/>
    <path d="M148.681,117.051 C148.681,149.478 122.145,175.767 89.411,175.767 C56.678,175.767 30.142,149.478 30.142,117.051 C30.142,84.623 56.678,58.336 89.411,58.336 C122.145,58.336 148.681,84.623 148.681,117.051 Z" id="path-8" class="cls-10" fill-rule="evenodd"/>
    <path d="M111.246,168.749 C109.873,168.749 108.558,167.975 107.941,166.658 C107.097,164.851 107.892,162.708 109.716,161.873 C124.012,155.316 134.192,142.218 136.945,126.837 C137.297,124.879 139.177,123.566 141.165,123.917 C143.143,124.265 144.463,126.136 144.113,128.098 C140.942,145.797 129.227,160.869 112.772,168.415 C112.278,168.641 111.758,168.749 111.246,168.749 Z" id="path-9" class="cls-11" fill-rule="evenodd"/>
    <path d="M134.067,117.051 C134.067,141.482 114.074,161.288 89.411,161.288 C64.749,161.288 44.757,141.482 44.757,117.051 C44.757,92.620 64.749,72.814 89.411,72.814 C114.074,72.814 134.067,92.620 134.067,117.051 Z" id="path-10" class="cls-3" fill-rule="evenodd"/>
    <path d="M96.300,157.877 C71.637,157.877 51.645,138.069 51.645,113.639 C51.645,97.651 60.235,83.687 73.063,75.915 C56.498,82.383 44.757,98.343 44.757,117.051 C44.757,141.482 64.749,161.288 89.411,161.288 C97.935,161.288 105.873,158.880 112.649,154.774 C107.581,156.753 102.077,157.877 96.300,157.877 Z" id="path-11" class="cls-13" fill-rule="evenodd"/>
    <path d="M98.118,123.896 C98.118,128.660 94.220,132.521 89.411,132.521 C84.603,132.521 80.705,128.660 80.705,123.896 C80.705,119.133 84.603,115.271 89.411,115.271 C94.220,115.271 98.118,119.133 98.118,123.896 Z" id="path-12" class="cls-13" fill-rule="evenodd"/>
    <path d="M123.341,127.522 C123.341,127.522 89.238,127.522 89.238,127.522 C89.238,127.522 89.238,90.137 89.238,90.137 C89.238,88.146 90.868,86.531 92.877,86.531 C94.887,86.531 96.516,88.146 96.516,90.137 C96.516,90.137 96.516,120.313 96.516,120.313 C96.516,120.313 123.341,120.313 123.341,120.313 C125.350,120.313 126.980,121.927 126.980,123.917 C126.980,125.908 125.350,127.522 123.341,127.522 Z" id="path-13" class="cls-13" fill-rule="evenodd"/>
    <path d="M98.118,120.463 C98.118,125.226 94.220,129.088 89.411,129.088 C84.603,129.088 80.705,125.226 80.705,120.463 C80.705,115.700 84.603,111.838 89.411,111.838 C94.220,111.838 98.118,115.700 98.118,120.463 Z" id="path-14" class="cls-10" fill-rule="evenodd"/>
    <path d="M58.235,27.421 C58.235,27.421 89.411,-0.014 89.411,-0.014 C89.411,-0.014 120.588,27.421 120.588,27.421 C120.588,27.421 58.235,27.421 58.235,27.421 Z" id="path-15" class="cls-3" fill-rule="evenodd"/>
    <path d="M89.411,-0.014 C89.411,-0.014 84.462,4.340 84.462,4.340 C84.462,4.340 106.812,24.009 106.812,24.009 C106.812,24.009 62.112,24.009 62.112,24.009 C62.112,24.009 58.235,27.421 58.235,27.421 C58.235,27.421 120.588,27.421 120.588,27.421 C120.588,27.421 89.411,-0.014 89.411,-0.014 Z" id="path-16" class="cls-18" fill-rule="evenodd"/>
    <path d="M48.737,27.176 C56.188,41.955 71.601,52.108 89.411,52.108 C107.223,52.108 122.635,41.955 130.086,27.176 C130.086,27.176 48.737,27.176 48.737,27.176 Z" id="path-17" class="cls-10" fill-rule="evenodd"/>
    <path d="M75.329,45.515 C74.907,45.515 74.476,45.442 74.058,45.288 C68.617,43.276 63.716,39.906 59.889,35.538 C58.571,34.034 58.733,31.758 60.250,30.453 C61.769,29.147 64.065,29.309 65.384,30.810 C68.417,34.271 72.295,36.941 76.602,38.531 C78.484,39.228 79.441,41.304 78.739,43.168 C78.194,44.619 76.805,45.515 75.329,45.515 Z" id="path-18" class="cls-11" fill-rule="evenodd"/>
    <path d="M116.310,27.176 C109.839,40.011 97.360,49.348 82.524,51.585 C84.771,51.923 87.068,52.108 89.411,52.108 C107.223,52.108 122.635,41.955 130.086,27.176 C130.086,27.176 116.310,27.176 116.310,27.176 Z" id="path-19" class="cls-13" fill-rule="evenodd"/>
    <path d="M119.046,188.025 C119.046,188.025 119.046,179.178 119.046,179.178 C119.046,179.178 59.777,179.178 59.777,179.178 C59.777,179.178 59.777,188.025 59.777,188.025 C59.777,188.025 41.509,188.025 41.509,188.025 C41.509,188.025 41.509,194.461 41.509,194.461 C41.509,194.461 137.314,194.461 137.314,194.461 C137.314,194.461 137.314,188.025 137.314,188.025 C137.314,188.025 119.046,188.025 119.046,188.025 Z" id="path-20" class="cls-7" fill-rule="evenodd"/>
    <path d="M119.046,188.025 C119.046,188.025 119.046,179.178 119.046,179.178 C119.046,179.178 59.777,179.178 59.777,179.178 C59.777,179.178 59.777,182.590 59.777,182.590 C59.777,182.590 112.158,182.590 112.158,182.590 C112.158,182.590 112.158,191.437 112.158,191.437 C112.158,191.437 130.426,191.437 130.426,191.437 C130.426,191.437 130.426,194.461 130.426,194.461 C130.426,194.461 137.314,194.461 137.314,194.461 C137.314,194.461 137.314,188.025 137.314,188.025 C137.314,188.025 119.046,188.025 119.046,188.025 Z" id="path-21" class="cls-13" fill-rule="evenodd"/>
    <path d="M126.805,124.088 C126.805,124.088 85.772,124.088 85.772,124.088 C85.772,124.088 85.772,86.703 85.772,86.703 C85.772,84.713 87.401,83.099 89.411,83.099 C91.420,83.099 93.050,84.713 93.050,86.703 C93.050,86.703 93.050,116.879 93.050,116.879 C93.050,116.879 126.805,116.879 126.805,116.879 C128.815,116.879 130.444,118.493 130.444,120.485 C130.444,122.476 128.815,124.088 126.805,124.088 Z" id="path-22" class="cls-10" fill-rule="evenodd"/>
  </g>
</svg>
