<svg xmlns="http://www.w3.org/2000/svg" xmlns:xlink="http://www.w3.org/1999/xlink" preserveAspectRatio="xMidYMid" width="203" height="217" viewBox="0 0 203 217">
  <defs>
    <style>

      .cls-3 {
        fill: #fbb713;
      }

      .cls-7 {
        fill: #142a3b;
      }

      .cls-8 {
        fill: #2476ff;
      }

      .cls-12 {
        fill: #ffffff;
      }

      .cls-13 {
        fill: #ff3a2f;
      }

      .cls-14 {
        fill: #a6261f;
      }

      .cls-16 {
        fill: #010101;
        opacity: 0.35;
      }
    </style>
  </defs>
  <g id="group-5svg">
    <path d="M77.898,216.282 C77.898,216.282 60.967,216.282 60.967,216.282 C57.983,216.282 55.566,214.706 55.566,212.762 C55.566,210.817 57.983,209.241 60.967,209.241 C60.967,209.241 61.711,209.241 61.711,209.241 C61.711,209.241 68.583,209.241 68.583,209.241 C71.566,209.241 73.984,207.664 73.984,205.720 C73.984,203.777 71.566,202.199 68.583,202.199 C68.583,202.199 52.235,202.199 52.235,202.199 C49.251,202.199 46.834,200.624 46.834,198.678 C46.834,196.735 49.251,195.158 52.235,195.158 C52.235,195.158 70.816,195.158 70.816,195.158 C70.816,195.158 73.934,195.287 73.934,195.287 C76.917,195.287 79.335,193.712 79.335,191.767 C79.335,189.823 76.917,188.247 73.934,188.247 C73.934,188.247 57.586,188.247 57.586,188.247 C54.603,188.247 52.185,186.671 52.185,184.726 C52.185,182.781 54.603,181.206 57.586,181.206 C57.586,181.206 117.031,181.076 117.031,181.076 C120.015,181.076 122.433,182.652 122.433,184.597 C122.433,186.541 120.015,188.117 117.031,188.117 C117.031,188.117 100.683,188.117 100.683,188.117 C97.701,188.117 95.282,189.694 95.282,191.638 C95.282,193.582 97.701,195.158 100.683,195.158 C100.683,195.158 141.309,195.158 141.309,195.158 C141.309,195.158 159.892,195.158 159.892,195.158 C162.875,195.158 165.294,196.735 165.294,198.678 C165.294,200.624 162.875,202.199 159.892,202.199 C159.892,202.199 143.543,202.199 143.543,202.199 C140.561,202.199 138.143,203.777 138.143,205.720 C138.143,207.664 140.561,209.241 143.543,209.241 C143.543,209.241 150.415,209.241 150.415,209.241 C150.415,209.241 168.997,209.241 168.997,209.241 C171.981,209.241 174.399,210.817 174.399,212.762 C174.399,214.706 171.981,216.282 168.997,216.282 C168.997,216.282 134.228,216.282 134.228,216.282 C134.228,216.282 77.898,216.282 77.898,216.282 Z" id="path-1" class="cls-3" fill-rule="evenodd"/>
    <path d="M183.315,109.503 C183.315,109.503 188.948,109.503 188.948,109.503 C190.036,109.503 190.915,110.634 190.915,112.030 C190.915,113.425 190.036,114.556 188.948,114.556 C188.948,114.556 188.687,114.556 188.687,114.556 C187.601,114.556 186.720,115.688 186.720,117.083 C186.720,118.478 187.601,119.610 188.687,119.610 C188.687,119.610 200.797,119.610 200.797,119.610 C201.883,119.610 202.764,120.741 202.764,122.136 C202.764,123.531 201.883,124.663 200.797,124.663 C200.797,124.663 186.244,124.663 186.244,124.663 C186.244,124.663 170.246,124.663 170.246,124.663 C169.160,124.663 168.281,123.531 168.281,122.136 C168.281,120.741 169.160,119.610 170.246,119.610 C170.246,119.610 173.608,119.610 173.608,119.610 C174.695,119.610 175.575,118.478 175.575,117.083 C175.575,115.688 174.695,114.556 173.608,114.556 C173.608,114.556 157.612,114.556 157.612,114.556 C156.525,114.556 155.646,113.425 155.646,112.030 C155.646,110.634 156.525,109.503 157.612,109.503 C157.612,109.503 161.393,109.503 161.393,109.503 C161.393,109.503 183.315,109.503 183.315,109.503 Z" id="path-2" class="cls-3" fill-rule="evenodd"/>
    <path d="M140.579,144.042 C143.105,144.042 145.154,142.756 145.154,141.170 C145.154,139.584 143.105,138.299 140.579,138.299 C140.579,138.299 126.561,138.299 126.561,138.299 C124.034,138.299 121.986,139.584 121.986,141.170 C121.986,142.756 124.034,144.042 126.561,144.042 C126.561,144.042 140.579,144.042 140.579,144.042 Z" id="path-3" class="cls-3" fill-rule="evenodd"/>
    <path d="M66.568,70.889 C66.568,70.889 66.568,90.076 66.568,90.076 C66.568,92.990 67.700,95.792 69.728,97.902 C69.728,97.902 84.235,112.992 84.235,112.992 C86.263,115.102 87.395,117.904 87.395,120.818 C87.395,120.818 87.395,184.363 87.395,184.363 C87.395,190.630 82.266,195.711 75.940,195.711 C75.940,195.711 15.543,195.711 15.543,195.711 C9.218,195.711 4.089,190.630 4.089,184.363 C4.089,184.363 4.089,70.889 4.089,70.889 C4.089,64.622 9.218,59.541 15.543,59.541 C15.543,59.541 55.113,59.541 55.113,59.541 C61.440,59.541 66.568,64.622 66.568,70.889 Z" id="path-4" class="cls-3" fill-rule="evenodd"/>
    <path d="M102.070,19.333 C102.070,19.333 90.515,19.333 90.515,19.333 C89.962,19.333 89.515,18.885 89.515,18.333 C89.515,18.333 89.515,8.728 89.515,8.728 C89.515,8.175 89.962,7.728 90.515,7.728 C90.515,7.728 102.070,7.728 102.070,7.728 C102.621,7.728 103.069,8.175 103.069,8.728 C103.069,8.728 103.069,18.333 103.069,18.333 C103.069,18.885 102.621,19.333 102.070,19.333 Z" id="path-5" class="cls-7" fill-rule="evenodd"/>
    <path d="M87.395,132.526 C87.395,132.526 80.022,124.288 80.022,124.288 C77.014,120.928 71.666,121.093 68.877,124.635 C68.877,124.635 67.898,125.879 67.898,125.879 C65.152,129.365 59.908,129.591 56.868,126.352 C56.868,126.352 53.626,122.898 53.626,122.898 C50.969,120.068 46.528,119.826 43.575,122.353 C43.575,122.353 37.025,127.956 37.025,127.956 C34.052,130.500 29.575,130.235 26.928,127.361 C26.928,127.361 23.404,123.535 23.404,123.535 C20.565,120.451 15.679,120.406 12.782,123.436 C12.782,123.436 4.089,132.526 4.089,132.526 C4.089,132.526 4.089,143.544 4.089,143.544 C4.089,143.544 4.089,184.363 4.089,184.363 C4.089,190.630 9.218,195.711 15.543,195.711 C15.543,195.711 75.940,195.711 75.940,195.711 C82.266,195.711 87.395,190.630 87.395,184.363 C87.395,184.363 87.395,132.526 87.395,132.526 Z" id="path-6" class="cls-8" fill-rule="evenodd"/>
    <path d="M23.828,81.717 C23.828,81.717 8.988,81.717 8.988,81.717 C7.982,81.717 7.169,80.911 7.169,79.915 C7.169,78.920 7.982,78.113 8.988,78.113 C8.988,78.113 23.828,78.113 23.828,78.113 C24.834,78.113 25.647,78.920 25.647,79.915 C25.647,80.911 24.834,81.717 23.828,81.717 Z" id="path-7" class="cls-7" fill-rule="evenodd"/>
    <path d="M23.828,94.484 C23.828,94.484 8.988,94.484 8.988,94.484 C7.982,94.484 7.169,93.676 7.169,92.682 C7.169,91.686 7.982,90.879 8.988,90.879 C8.988,90.879 23.828,90.879 23.828,90.879 C24.834,90.879 25.647,91.686 25.647,92.682 C25.647,93.676 24.834,94.484 23.828,94.484 Z" id="path-8" class="cls-7" fill-rule="evenodd"/>
    <path d="M23.828,107.249 C23.828,107.249 8.988,107.249 8.988,107.249 C7.982,107.249 7.169,106.441 7.169,105.446 C7.169,104.452 7.982,103.644 8.988,103.644 C8.988,103.644 23.828,103.644 23.828,103.644 C24.834,103.644 25.647,104.452 25.647,105.446 C25.647,106.441 24.834,107.249 23.828,107.249 Z" id="path-9" class="cls-7" fill-rule="evenodd"/>
    <path d="M66.606,180.500 C64.595,180.500 62.967,178.886 62.967,176.895 C62.967,176.895 62.967,113.193 62.967,113.193 C62.967,111.203 64.595,109.588 66.606,109.588 C68.618,109.588 70.244,111.203 70.244,113.193 C70.244,113.193 70.244,176.895 70.244,176.895 C70.244,178.886 68.618,180.500 66.606,180.500 Z" id="path-10" class="cls-12" fill-rule="evenodd"/>
    <path d="M80.487,25.310 C80.487,25.310 80.487,38.463 80.487,38.463 C80.487,38.463 91.650,53.697 91.650,53.697 C92.009,54.189 92.202,54.778 92.202,55.385 C92.202,55.385 92.202,59.437 92.202,59.437 C92.202,62.179 88.697,63.361 87.007,61.192 C87.007,61.192 72.172,42.141 72.172,42.141 C71.486,41.261 71.115,40.181 71.115,39.070 C71.115,39.070 71.115,25.310 71.115,25.310 C71.115,25.310 80.487,25.310 80.487,25.310 Z" id="path-11" class="cls-13" fill-rule="evenodd"/>
    <path d="M71.115,36.335 C71.115,36.335 80.487,36.335 80.487,36.335 C80.487,36.335 80.487,28.617 80.487,28.617 C80.487,28.617 71.115,28.617 71.115,28.617 C71.115,28.617 71.115,36.335 71.115,36.335 Z" id="path-12" class="cls-14" fill-rule="evenodd"/>
    <path d="M2.108,18.285 C2.108,18.285 22.478,1.361 22.478,1.361 C23.542,0.475 24.887,-0.010 26.277,-0.010 C26.277,-0.010 87.720,-0.010 87.720,-0.010 C90.985,-0.010 93.634,2.614 93.634,5.850 C93.634,5.850 93.634,22.758 93.634,22.758 C93.634,25.994 90.985,28.617 87.720,28.617 C87.720,28.617 70.131,28.617 70.131,28.617 C68.669,28.617 67.260,29.154 66.174,30.121 C66.174,30.121 54.200,40.798 54.200,40.798 C52.952,41.909 52.242,43.493 52.242,45.153 C52.242,45.153 52.242,46.743 52.242,46.743 C52.242,49.978 49.593,52.601 46.327,52.601 C46.327,52.601 25.614,52.601 25.614,52.601 C22.349,52.601 19.700,49.978 19.700,46.743 C19.700,46.743 19.700,46.743 19.700,46.743 C19.700,43.875 17.604,41.427 14.748,40.962 C14.748,40.962 5.258,39.412 5.258,39.412 C2.464,38.956 0.388,36.601 0.308,33.797 C0.308,33.797 -0.003,22.941 -0.003,22.941 C-0.055,21.150 0.723,19.435 2.108,18.285 Z" id="path-13" class="cls-13" fill-rule="evenodd"/>
    <path d="M52.242,46.743 C52.242,46.743 52.242,45.433 52.242,45.433 C52.242,45.433 19.462,45.433 19.462,45.433 C19.564,45.863 19.700,46.283 19.700,46.743 C19.700,49.978 22.348,52.601 25.614,52.601 C25.614,52.601 46.327,52.601 46.327,52.601 C49.593,52.601 52.242,49.978 52.242,46.743 Z" id="path-14" class="cls-16" fill-rule="evenodd"/>
    <path d="M48.345,49.064 C48.345,49.064 21.271,49.064 21.271,49.064 C17.533,49.064 14.503,53.755 14.503,59.541 C14.503,59.541 55.114,59.541 55.114,59.541 C55.114,53.755 52.084,49.064 48.345,49.064 Z" id="path-15" class="cls-7" fill-rule="evenodd"/>
  </g>
</svg>
