<svg xmlns="http://www.w3.org/2000/svg" xmlns:xlink="http://www.w3.org/1999/xlink" preserveAspectRatio="xMidYMid" width="217" height="152" viewBox="0 0 217 152">
  <defs>
    <style>

      .cls-3 {
        fill: #0cb04a;
      }

      .cls-5 {
        fill: #fbb713;
      }

      .cls-6 {
        fill: #000000;
        opacity: 0.35;
      }

      .cls-14 {
        fill: #ededed;
      }
    </style>
  </defs>
  <g id="group-127svg">
    <path d="M115.417,151.695 C115.417,151.695 131.032,151.695 131.032,151.695 C134.043,151.695 136.484,149.847 136.484,147.568 C136.484,145.290 134.043,143.442 131.032,143.442 C131.032,143.442 130.306,143.442 130.306,143.442 C127.295,143.442 124.854,141.595 124.854,139.316 C124.854,137.037 127.295,135.190 130.306,135.190 C130.306,135.190 163.875,135.190 163.875,135.190 C166.885,135.190 169.326,133.343 169.326,131.065 C169.326,128.785 166.885,126.939 163.875,126.939 C163.875,126.939 123.533,126.939 123.533,126.939 C123.533,126.939 41.076,126.939 41.076,126.939 C38.065,126.939 35.624,128.785 35.624,131.065 C35.624,133.343 38.065,135.190 41.076,135.190 C41.076,135.190 50.392,135.190 50.392,135.190 C53.403,135.190 55.844,137.037 55.844,139.316 C55.844,141.595 53.403,143.442 50.392,143.442 C50.392,143.442 13.801,143.442 13.801,143.442 C10.790,143.442 8.350,145.290 8.350,147.568 C8.350,149.847 10.790,151.695 13.801,151.695 C13.801,151.695 16.532,151.695 16.532,151.695 C16.532,151.695 115.417,151.695 115.417,151.695 Z" id="path-1" class="cls-3" fill-rule="evenodd"/>
    <path d="M18.569,125.835 C21.093,125.835 23.139,127.814 23.139,130.254 C23.139,132.698 21.093,134.678 18.569,134.678 C18.569,134.678 4.563,134.678 4.563,134.678 C2.039,134.678 -0.008,132.698 -0.008,130.254 C-0.008,127.814 2.039,125.835 4.563,125.835 C4.563,125.835 18.569,125.835 18.569,125.835 Z" id="path-2" class="cls-3" fill-rule="evenodd"/>
    <path d="M217.189,91.347 C216.850,75.493 175.674,71.244 151.287,71.244 C126.901,71.244 85.724,75.493 85.385,91.347 C85.385,91.347 85.354,91.347 85.354,91.347 C85.354,91.347 85.354,111.822 85.354,111.822 C85.354,127.800 126.800,132.059 151.287,132.059 C175.775,132.059 217.221,127.776 217.221,111.728 C217.221,111.728 217.221,91.347 217.221,91.347 C217.221,91.347 217.189,91.347 217.189,91.347 Z" id="path-3" class="cls-5" fill-rule="evenodd"/>
    <path d="M217.189,91.347 C216.850,75.493 175.674,71.244 151.287,71.244 C126.901,71.244 85.724,75.493 85.385,91.347 C85.385,91.347 85.354,91.347 85.354,91.347 C85.354,91.347 85.354,111.822 85.354,111.822 C85.354,127.800 126.800,132.059 151.287,132.059 C175.775,132.059 217.221,127.776 217.221,111.728 C217.221,111.728 217.221,91.347 217.221,91.347 C217.221,91.347 217.189,91.347 217.189,91.347 Z" id="path-4" class="cls-6" fill-rule="evenodd"/>
    <path d="M151.287,111.818 C126.800,111.818 85.354,107.549 85.354,91.536 C85.354,75.519 126.800,71.244 151.287,71.244 C175.775,71.244 217.220,75.519 217.220,91.536 C217.220,107.549 175.775,111.818 151.287,111.818 Z" id="path-5" class="cls-5" fill-rule="evenodd"/>
    <path d="M191.992,54.341 C191.653,38.486 150.477,34.239 126.090,34.239 C101.704,34.239 60.527,38.486 60.189,54.341 C60.189,54.341 60.157,54.341 60.157,54.341 C60.157,54.341 60.157,74.815 60.157,74.815 C60.157,90.793 101.603,95.053 126.090,95.053 C150.578,95.053 192.024,90.769 192.024,74.721 C192.024,74.721 192.024,54.341 192.024,54.341 C192.024,54.341 191.992,54.341 191.992,54.341 Z" id="path-6" class="cls-5" fill-rule="evenodd"/>
    <path d="M191.992,54.341 C191.653,38.486 150.477,34.239 126.090,34.239 C101.704,34.239 60.527,38.486 60.189,54.341 C60.189,54.341 60.157,54.341 60.157,54.341 C60.157,54.341 60.157,74.815 60.157,74.815 C60.157,90.793 101.603,95.053 126.090,95.053 C150.578,95.053 192.024,90.769 192.024,74.721 C192.024,74.721 192.024,54.341 192.024,54.341 C192.024,54.341 191.992,54.341 191.992,54.341 Z" id="path-7" class="cls-6" fill-rule="evenodd"/>
    <path d="M126.090,74.811 C101.603,74.811 60.157,70.541 60.157,54.529 C60.157,38.513 101.603,34.239 126.090,34.239 C150.578,34.239 192.024,38.513 192.024,54.529 C192.024,70.541 150.578,74.811 126.090,74.811 Z" id="path-8" class="cls-5" fill-rule="evenodd"/>
    <path d="M164.040,20.090 C163.701,4.236 122.524,-0.013 98.138,-0.013 C73.751,-0.013 32.575,4.236 32.236,20.090 C32.236,20.090 32.204,20.090 32.204,20.090 C32.204,20.090 32.204,40.564 32.204,40.564 C32.204,56.543 73.650,60.802 98.138,60.802 C122.625,60.802 164.071,56.518 164.071,40.471 C164.071,40.471 164.071,20.090 164.071,20.090 C164.071,20.090 164.040,20.090 164.040,20.090 Z" id="path-9" class="cls-5" fill-rule="evenodd"/>
    <path d="M164.040,20.090 C163.701,4.236 122.524,-0.013 98.138,-0.013 C73.751,-0.013 32.575,4.236 32.236,20.090 C32.236,20.090 32.204,20.090 32.204,20.090 C32.204,20.090 32.204,40.564 32.204,40.564 C32.204,56.543 73.650,60.802 98.138,60.802 C122.625,60.802 164.071,56.518 164.071,40.471 C164.071,40.471 164.071,20.090 164.071,20.090 C164.071,20.090 164.040,20.090 164.040,20.090 Z" id="path-10" class="cls-6" fill-rule="evenodd"/>
    <path d="M98.138,40.560 C73.650,40.560 32.204,36.292 32.204,20.278 C32.204,4.262 73.650,-0.013 98.138,-0.013 C122.625,-0.013 164.071,4.262 164.071,20.278 C164.071,36.292 122.625,40.560 98.138,40.560 Z" id="path-11" class="cls-5" fill-rule="evenodd"/>
    <path d="M48.673,28.516 C46.672,28.516 45.052,26.895 45.052,24.895 C45.052,7.299 85.988,5.931 98.532,5.931 C100.534,5.931 102.153,7.552 102.153,9.552 C102.153,11.550 100.534,13.171 98.532,13.171 C73.037,13.171 52.294,18.430 52.294,24.895 C52.294,26.895 50.674,28.516 48.673,28.516 Z" id="path-12" class="cls-14" fill-rule="evenodd"/>
  </g>
</svg>
