<svg xmlns="http://www.w3.org/2000/svg" xmlns:xlink="http://www.w3.org/1999/xlink" preserveAspectRatio="xMidYMid" width="217" height="134" viewBox="0 0 217 134">
  <defs>
    <style>

      .cls-3 {
        fill: #0cb04a;
      }

      .cls-5 {
        fill: #ff3a2f;
      }

      .cls-6 {
        fill: #142a3b;
      }
    </style>
  </defs>
  <g id="group-150svg">
    <path d="M111.741,133.961 C111.741,133.961 126.859,133.961 126.859,133.961 C129.774,133.961 132.137,132.174 132.137,129.970 C132.137,127.764 129.774,125.976 126.859,125.976 C126.859,125.976 126.155,125.976 126.155,125.976 C123.240,125.976 120.877,124.190 120.877,121.986 C120.877,119.781 123.240,117.993 126.155,117.993 C126.155,117.993 158.655,117.993 158.655,117.993 C161.570,117.993 163.933,116.207 163.933,114.001 C163.933,111.796 161.570,110.008 158.655,110.008 C158.655,110.008 119.599,110.008 119.599,110.008 C119.599,110.008 39.767,110.008 39.767,110.008 C36.853,110.008 34.489,111.796 34.489,114.001 C34.489,116.207 36.853,117.993 39.767,117.993 C39.767,117.993 48.787,117.993 48.787,117.993 C51.702,117.993 54.065,119.781 54.065,121.986 C54.065,124.190 51.702,125.976 48.787,125.976 C48.787,125.976 13.362,125.976 13.362,125.976 C10.446,125.976 8.083,127.764 8.083,129.970 C8.083,132.174 10.446,133.961 13.362,133.961 C13.362,133.961 16.005,133.961 16.005,133.961 C16.005,133.961 111.741,133.961 111.741,133.961 Z" id="path-1" class="cls-3" fill-rule="evenodd"/>
    <path d="M17.977,108.939 C20.421,108.939 22.402,110.854 22.402,113.218 C22.402,115.581 20.421,117.496 17.977,117.496 C17.977,117.496 4.417,117.496 4.417,117.496 C1.973,117.496 -0.008,115.581 -0.008,113.218 C-0.008,110.854 1.973,108.939 4.417,108.939 C4.417,108.939 17.977,108.939 17.977,108.939 Z" id="path-2" class="cls-3" fill-rule="evenodd"/>
    <path d="M62.777,106.456 C52.184,106.456 41.870,100.967 36.202,91.159 C36.202,91.159 34.888,88.878 34.888,88.878 C30.797,81.802 29.712,73.550 31.829,65.650 C33.947,57.751 39.014,51.150 46.102,47.062 C46.102,47.062 105.268,12.923 105.268,12.923 C119.895,4.492 138.658,9.509 147.105,24.128 C147.105,24.128 148.420,26.400 148.420,26.400 C152.510,33.486 153.599,41.735 151.478,49.636 C149.360,57.534 144.294,64.134 137.205,68.222 C137.205,68.222 131.976,71.243 131.976,71.243 C131.976,71.243 124.735,58.703 124.735,58.703 C124.735,58.703 129.968,55.682 129.968,55.682 C133.705,53.525 136.374,50.046 137.491,45.884 C138.609,41.723 138.036,37.376 135.879,33.644 C135.879,33.644 134.567,31.373 134.567,31.373 C130.116,23.665 120.216,21.022 112.505,25.467 C112.505,25.467 53.340,59.606 53.340,59.606 C49.603,61.761 46.933,65.240 45.816,69.401 C44.699,73.561 45.275,77.907 47.428,81.639 C47.428,81.639 48.744,83.920 48.744,83.920 C53.191,91.614 63.081,94.271 70.802,89.818 C70.802,89.818 84.019,82.194 84.019,82.194 C84.019,82.194 91.252,94.737 91.252,94.737 C91.252,94.737 78.036,102.362 78.036,102.362 C73.228,105.136 67.970,106.456 62.777,106.456 Z" id="path-3" class="cls-5" fill-rule="evenodd"/>
    <path d="M127.471,97.635 C116.875,97.635 106.561,92.144 100.894,82.334 C100.894,82.334 99.582,80.065 99.582,80.065 C95.488,72.981 94.402,64.728 96.520,56.828 C98.639,48.930 103.705,42.329 110.794,38.240 C110.794,38.240 116.030,35.219 116.030,35.219 C119.488,33.217 123.921,34.406 125.919,37.873 C127.917,41.336 126.729,45.764 123.264,47.763 C123.264,47.763 118.028,50.785 118.028,50.785 C114.294,52.940 111.625,56.419 110.507,60.581 C109.390,64.740 109.966,69.087 112.120,72.817 C112.120,72.817 113.435,75.088 113.435,75.088 C117.889,82.802 127.786,85.445 135.497,80.997 C135.497,80.997 194.662,46.856 194.662,46.856 C198.399,44.701 201.069,41.223 202.186,37.062 C203.303,32.900 202.727,28.556 200.574,24.824 C200.574,24.824 199.259,22.554 199.259,22.554 C194.807,14.843 184.914,12.196 177.196,16.644 C177.196,16.644 163.987,24.269 163.987,24.269 C160.515,26.274 156.096,25.078 154.095,21.619 C152.097,18.153 153.285,13.726 156.746,11.728 C156.746,11.728 169.959,4.102 169.959,4.102 C184.593,-4.341 203.356,0.689 211.799,15.308 C211.799,15.308 213.111,17.575 213.111,17.575 C217.205,24.662 218.291,32.913 216.173,40.813 C214.055,48.711 208.989,55.312 201.899,59.401 C201.899,59.401 142.735,93.541 142.735,93.541 C137.922,96.317 132.661,97.635 127.471,97.635 Z" id="path-4" class="cls-6" fill-rule="evenodd"/>
  </g>
</svg>
