<svg xmlns="http://www.w3.org/2000/svg" xmlns:xlink="http://www.w3.org/1999/xlink" preserveAspectRatio="xMidYMid" width="208" height="218" viewBox="0 0 208 218">
  <defs>
    <style>

      .cls-3 {
        fill: #2476ff;
      }

      .cls-4 {
        fill: #fbb713;
      }

      .cls-6 {
        fill: #020403;
        opacity: 0.25;
      }

      .cls-9 {
        fill: #ff3a2f;
      }
    </style>
  </defs>
  <g id="group-66svg">
    <path d="M112.709,-0.012 C112.709,-0.012 103.722,-0.012 103.722,-0.012 C103.722,-0.012 94.730,-0.012 94.730,-0.012 C94.730,22.938 90.530,34.516 90.530,34.516 C90.530,34.516 103.722,34.516 103.722,34.516 C103.722,34.516 116.912,34.516 116.912,34.516 C116.912,34.516 112.709,22.938 112.709,-0.012 Z" id="path-1" class="cls-3" fill-rule="evenodd"/>
    <path d="M124.495,57.600 C122.058,52.231 116.910,34.516 116.910,34.516 C116.910,34.516 103.720,34.516 103.720,34.516 C103.720,34.516 90.527,34.516 90.527,34.516 C90.527,34.516 85.381,52.231 82.943,57.600 C80.504,62.967 78.064,72.901 80.234,75.048 C80.234,75.048 79.930,75.805 79.480,77.249 C79.480,77.249 103.720,77.249 103.720,77.249 C103.720,77.249 127.959,77.249 127.959,77.249 C127.509,75.805 127.204,75.048 127.204,75.048 C129.373,72.901 126.936,62.969 124.495,57.600 Z" id="path-2" class="cls-4" fill-rule="evenodd"/>
    <path d="M129.373,167.922 C123.408,157.285 127.107,146.228 129.926,125.959 C129.926,125.959 103.720,125.959 103.720,125.959 C103.720,125.959 77.513,125.959 77.513,125.959 C80.330,146.228 84.029,157.285 78.064,167.922 C71.292,180.003 77.795,193.692 77.795,193.692 C77.795,193.692 86.020,198.255 103.720,198.255 C121.417,198.257 129.642,193.692 129.642,193.692 C129.642,193.692 136.148,180.003 129.373,167.922 Z" id="path-3" class="cls-4" fill-rule="evenodd"/>
    <path d="M112.709,-0.012 C112.709,-0.012 103.722,-0.012 103.722,-0.012 C103.722,-0.012 98.154,-0.012 98.154,-0.012 C98.154,22.938 102.356,34.517 102.356,34.517 C102.356,34.517 103.722,34.517 103.722,34.517 C103.722,34.517 116.912,34.517 116.912,34.517 C116.912,34.517 112.709,22.938 112.709,-0.012 Z" id="path-4" class="cls-6" fill-rule="evenodd"/>
    <path d="M124.495,57.600 C122.058,52.232 116.910,34.517 116.910,34.517 C116.910,34.517 103.720,34.517 103.720,34.517 C103.720,34.517 102.354,34.517 102.354,34.517 C102.354,34.517 107.502,52.232 109.940,57.600 C112.380,62.969 114.818,72.901 112.649,75.048 C112.649,75.048 112.954,75.805 113.404,77.249 C113.404,77.249 127.959,77.249 127.959,77.249 C127.509,75.805 127.204,75.048 127.204,75.048 C129.373,72.901 126.936,62.969 124.495,57.600 Z" id="path-5" class="cls-6" fill-rule="evenodd"/>
    <path d="M129.373,167.922 C123.407,157.285 127.107,146.228 129.926,125.959 C129.926,125.959 115.371,125.959 115.371,125.959 C112.552,146.228 108.853,157.285 114.818,167.922 C121.592,180.003 115.087,193.692 115.087,193.692 C115.087,193.692 109.112,196.985 96.445,197.971 C98.669,198.144 101.077,198.255 103.720,198.255 C121.417,198.257 129.642,193.692 129.642,193.692 C129.642,193.692 136.148,180.003 129.373,167.922 Z" id="path-6" class="cls-6" fill-rule="evenodd"/>
    <path d="M95.778,100.850 C98.375,100.508 101.039,99.879 103.720,99.107 C113.096,96.412 122.726,91.894 130.827,91.094 C130.005,84.547 128.757,79.809 127.959,77.249 C127.959,77.249 103.720,77.249 103.720,77.249 C103.720,77.249 103.720,77.249 103.720,77.249 C103.720,77.249 79.480,77.249 79.480,77.249 C78.435,80.608 76.611,87.718 75.996,97.757 C82.490,99.935 89.870,101.625 95.778,100.850 Z" id="path-7" class="cls-9" fill-rule="evenodd"/>
    <path d="M131.515,99.076 C125.743,99.160 115.129,99.641 103.720,101.793 C103.720,101.793 103.720,101.793 103.720,101.793 C101.098,102.288 98.434,102.870 95.778,103.558 C87.909,105.592 81.222,104.421 75.815,102.132 C75.716,106.678 75.869,111.706 76.440,117.192 C76.763,120.298 77.130,123.211 77.513,125.959 C77.513,125.959 103.720,125.959 103.720,125.959 C103.720,125.959 103.720,125.959 103.720,125.959 C103.720,125.959 129.926,125.959 129.926,125.959 C130.309,123.211 130.675,120.298 130.999,117.192 C131.701,110.445 131.777,104.382 131.515,99.076 Z" id="path-8" class="cls-9" fill-rule="evenodd"/>
    <path d="M127.959,77.249 C127.959,77.249 113.404,77.249 113.404,77.249 C114.201,79.809 115.449,84.548 116.272,91.094 C108.170,91.894 98.540,96.412 89.164,99.107 C87.751,99.513 86.346,99.871 84.950,100.178 C88.744,100.932 92.491,101.281 95.778,100.850 C98.375,100.508 101.039,99.879 103.720,99.107 C113.096,96.412 122.726,91.894 130.827,91.094 C130.005,84.548 128.757,79.809 127.959,77.249 Z" id="path-9" class="cls-6" fill-rule="evenodd"/>
    <path d="M80.541,103.702 C78.875,103.287 77.293,102.757 75.815,102.132 C75.800,102.875 75.838,103.711 75.836,104.479 C77.351,104.349 78.923,104.087 80.541,103.702 Z" id="path-10" class="cls-6" fill-rule="evenodd"/>
    <path d="M131.515,99.076 C128.099,99.125 122.959,99.325 116.986,99.918 C117.201,105.025 117.109,110.789 116.443,117.192 C116.119,120.298 115.754,123.211 115.371,125.959 C115.371,125.959 129.926,125.959 129.926,125.959 C130.309,123.211 130.675,120.298 130.999,117.192 C131.701,110.445 131.777,104.382 131.515,99.076 Z" id="path-11" class="cls-6" fill-rule="evenodd"/>
    <path d="M110.684,193.580 C110.684,193.580 126.474,193.580 126.474,193.580 C129.518,193.580 131.986,195.129 131.986,197.040 C131.986,198.950 129.518,200.499 126.474,200.499 C126.474,200.499 125.738,200.499 125.738,200.499 C122.695,200.499 120.226,202.049 120.226,203.960 C120.226,205.871 122.695,207.421 125.738,207.421 C125.738,207.421 159.683,207.421 159.683,207.421 C162.727,207.421 165.195,208.969 165.195,210.880 C165.195,212.792 162.727,214.340 159.683,214.340 C159.683,214.340 118.890,214.340 118.890,214.340 C118.890,214.340 74.055,214.340 74.055,214.340 C71.011,214.340 68.543,212.792 68.543,210.880 C68.543,208.969 71.011,207.421 74.055,207.421 C74.055,207.421 83.476,207.421 83.476,207.421 C86.521,207.421 88.989,205.871 88.989,203.960 C88.989,202.049 86.521,200.499 83.476,200.499 C83.476,200.499 38.642,200.499 38.642,200.499 C35.597,200.499 33.129,198.950 33.129,197.040 C33.129,195.129 35.597,193.580 38.642,193.580 C38.642,193.580 49.238,193.580 49.238,193.580 C49.238,193.580 110.684,193.580 110.684,193.580 Z" id="path-12" class="cls-9" fill-rule="evenodd"/>
    <path d="M24.985,160.952 C24.985,160.952 30.068,160.952 30.068,160.952 C31.048,160.952 31.842,161.804 31.842,162.853 C31.842,163.903 31.048,164.754 30.068,164.754 C30.068,164.754 29.832,164.754 29.832,164.754 C28.851,164.754 28.057,165.604 28.057,166.654 C28.057,167.704 28.851,168.554 29.832,168.554 C29.832,168.554 40.760,168.554 40.760,168.554 C41.741,168.554 42.535,169.406 42.535,170.456 C42.535,171.505 41.741,172.357 40.760,172.357 C40.760,172.357 27.627,172.357 27.627,172.357 C27.627,172.357 13.191,172.357 13.191,172.357 C12.211,172.357 11.417,171.505 11.417,170.456 C11.417,169.406 12.211,168.554 13.191,168.554 C13.191,168.554 16.225,168.554 16.225,168.554 C17.205,168.554 17.999,167.704 17.999,166.654 C17.999,165.604 17.205,164.754 16.225,164.754 C16.225,164.754 1.789,164.754 1.789,164.754 C0.809,164.754 0.015,163.903 0.015,162.853 C0.015,161.804 0.809,160.952 1.789,160.952 C1.789,160.952 5.201,160.952 5.201,160.952 C5.201,160.952 24.985,160.952 24.985,160.952 Z" id="path-13" class="cls-9" fill-rule="evenodd"/>
    <path d="M181.456,160.952 C181.456,160.952 186.540,160.952 186.540,160.952 C187.520,160.952 188.314,161.804 188.314,162.853 C188.314,163.903 187.520,164.754 186.540,164.754 C186.540,164.754 186.303,164.754 186.303,164.754 C185.323,164.754 184.528,165.604 184.528,166.654 C184.528,167.704 185.323,168.554 186.303,168.554 C186.303,168.554 197.231,168.554 197.231,168.554 C198.212,168.554 199.006,169.406 199.006,170.456 C199.006,171.505 198.212,172.357 197.231,172.357 C197.231,172.357 184.098,172.357 184.098,172.357 C184.098,172.357 169.663,172.357 169.663,172.357 C168.683,172.357 167.888,171.505 167.888,170.456 C167.888,169.406 168.683,168.554 169.663,168.554 C169.663,168.554 172.696,168.554 172.696,168.554 C173.677,168.554 174.471,167.704 174.471,166.654 C174.471,165.604 173.677,164.754 172.696,164.754 C172.696,164.754 158.261,164.754 158.261,164.754 C157.280,164.754 156.487,163.903 156.487,162.853 C156.487,161.804 157.280,160.952 158.261,160.952 C158.261,160.952 161.673,160.952 161.673,160.952 C161.673,160.952 181.456,160.952 181.456,160.952 Z" id="path-14" class="cls-9" fill-rule="evenodd"/>
    <path d="M201.137,217.334 C204.613,217.334 207.431,215.565 207.431,213.383 C207.431,211.202 204.613,209.433 201.137,209.433 C201.137,209.433 181.849,209.433 181.849,209.433 C178.373,209.433 175.555,211.202 175.555,213.383 C175.555,215.565 178.373,217.334 181.849,217.334 C181.849,217.334 201.137,217.334 201.137,217.334 Z" id="path-15" class="cls-9" fill-rule="evenodd"/>
  </g>
</svg>
