<svg xmlns="http://www.w3.org/2000/svg" xmlns:xlink="http://www.w3.org/1999/xlink" preserveAspectRatio="xMidYMid" width="216" height="220" viewBox="0 0 216 220">
  <defs>
    <style>

      .cls-3 {
        fill: #142a3b;
      }

      .cls-4 {
        fill: #020403;
        opacity: 0.35;
      }

      .cls-5 {
        fill: #0cb04a;
      }

      .cls-6 {
        fill: #ffffff;
      }

      .cls-8 {
        fill: #ff3a2f;
      }
    </style>
  </defs>
  <g id="group-110svg">
    <path d="M188.970,198.230 C184.413,199.199 151.122,182.173 146.200,182.173 C114.703,182.173 89.174,161.007 89.174,134.900 C89.174,108.790 114.703,87.625 146.200,87.625 C177.691,87.625 203.229,108.790 203.229,134.900 C203.229,149.828 194.879,163.141 181.845,171.804 C180.420,172.745 180.441,174.564 181.233,176.819 C181.233,176.819 188.970,198.230 188.970,198.230 Z" id="path-1" class="cls-3" fill-rule="evenodd"/>
    <path d="M146.200,87.625 C114.703,87.625 89.174,108.790 89.174,134.900 C89.174,147.540 95.194,158.994 104.942,167.476 C105.658,167.312 106.267,167.214 106.712,167.214 C149.078,167.214 184.741,143.508 195.514,111.232 C185.643,97.133 167.278,87.625 146.200,87.625 Z" id="path-2" class="cls-4" fill-rule="evenodd"/>
    <path d="M23.038,178.745 C30.403,180.312 84.202,152.795 92.156,152.795 C143.056,152.795 184.312,118.592 184.312,76.402 C184.312,34.209 143.056,0.004 92.156,0.004 C41.265,0.004 -0.004,34.209 -0.004,76.402 C-0.004,100.526 13.489,122.038 34.553,136.040 C36.856,137.560 36.821,140.500 35.542,144.142 C35.542,144.142 23.038,178.745 23.038,178.745 Z" id="path-3" class="cls-5" fill-rule="evenodd"/>
    <path d="M24.669,78.205 C21.653,78.205 19.210,75.783 19.210,72.797 C19.210,43.592 47.395,19.830 82.039,19.830 C85.055,19.830 87.498,22.252 87.498,25.237 C87.498,28.224 85.055,30.644 82.039,30.644 C53.415,30.644 30.127,49.554 30.127,72.797 C30.127,75.783 27.684,78.205 24.669,78.205 Z" id="path-4" class="cls-6" fill-rule="evenodd"/>
    <path d="M157.055,22.169 C167.350,34.501 173.396,49.454 173.396,65.587 C173.396,107.777 132.138,141.979 81.240,141.979 C75.662,141.979 47.556,155.502 28.711,163.047 C28.711,163.047 23.038,178.745 23.038,178.745 C30.403,180.312 84.202,152.794 92.156,152.794 C143.056,152.794 184.312,118.592 184.312,76.402 C184.312,55.195 173.885,36.011 157.055,22.169 Z" id="path-5" class="cls-4" fill-rule="evenodd"/>
    <path d="M80.647,219.265 C83.372,219.265 85.581,218.325 85.581,217.165 C85.581,216.005 83.372,215.065 80.647,215.065 C80.647,215.065 65.527,215.065 65.527,215.065 C62.802,215.065 60.593,216.005 60.593,217.165 C60.593,218.325 62.802,219.265 65.527,219.265 C65.527,219.265 80.647,219.265 80.647,219.265 Z" id="path-6" class="cls-8" fill-rule="evenodd"/>
    <path d="M41.343,185.680 C41.343,185.680 45.835,185.680 45.835,185.680 C46.702,185.680 47.404,186.589 47.404,187.711 C47.404,188.832 46.702,189.741 45.835,189.741 C45.835,189.741 45.627,189.741 45.627,189.741 C44.760,189.741 44.058,190.650 44.058,191.771 C44.058,192.893 44.760,193.803 45.627,193.803 C45.627,193.803 55.284,193.803 55.284,193.803 C56.150,193.803 56.853,194.711 56.853,195.833 C56.853,196.954 56.150,197.862 55.284,197.862 C55.284,197.862 43.678,197.862 43.678,197.862 C43.678,197.862 19.955,197.862 19.955,197.862 C19.089,197.862 18.387,196.954 18.387,195.833 C18.387,194.711 19.089,193.803 19.955,193.803 C19.955,193.803 22.636,193.803 22.636,193.803 C23.502,193.803 24.204,192.893 24.204,191.771 C24.204,190.650 23.502,189.741 22.636,189.741 C22.636,189.741 9.880,189.741 9.880,189.741 C9.013,189.741 8.311,188.832 8.311,187.711 C8.311,186.589 9.013,185.680 9.880,185.680 C9.880,185.680 12.894,185.680 12.894,185.680 C12.894,185.680 41.343,185.680 41.343,185.680 Z" id="path-7" class="cls-8" fill-rule="evenodd"/>
    <path d="M9.833,197.973 C10.904,197.973 11.774,197.337 11.774,196.558 C11.774,195.775 10.904,195.142 9.833,195.142 C9.833,195.142 3.886,195.142 3.886,195.142 C2.814,195.142 1.945,195.775 1.945,196.558 C1.945,197.337 2.814,197.973 3.886,197.973 C3.886,197.973 9.833,197.973 9.833,197.973 Z" id="path-8" class="cls-8" fill-rule="evenodd"/>
    <path d="M175.316,201.027 C175.316,201.027 186.738,201.027 186.738,201.027 C188.940,201.027 190.725,202.375 190.725,204.038 C190.725,205.703 188.940,207.052 186.738,207.052 C186.738,207.052 186.207,207.052 186.207,207.052 C184.004,207.052 182.219,208.401 182.219,210.064 C182.219,211.729 184.004,213.077 186.207,213.077 C186.207,213.077 210.761,213.077 210.761,213.077 C212.963,213.077 214.749,214.426 214.749,216.090 C214.749,217.754 212.963,219.102 210.761,219.102 C210.761,219.102 181.252,219.102 181.252,219.102 C181.252,219.102 120.938,219.102 120.938,219.102 C118.736,219.102 116.951,217.754 116.951,216.090 C116.951,214.426 118.736,213.077 120.938,213.077 C120.938,213.077 127.753,213.077 127.753,213.077 C129.956,213.077 131.741,211.729 131.741,210.064 C131.741,208.401 129.956,207.052 127.753,207.052 C127.753,207.052 95.321,207.052 95.321,207.052 C93.119,207.052 91.333,205.703 91.333,204.038 C91.333,202.375 93.119,201.027 95.321,201.027 C95.321,201.027 102.986,201.027 102.986,201.027 C102.986,201.027 175.316,201.027 175.316,201.027 Z" id="path-9" class="cls-8" fill-rule="evenodd"/>
  </g>
</svg>
