<svg xmlns="http://www.w3.org/2000/svg" xmlns:xlink="http://www.w3.org/1999/xlink" preserveAspectRatio="xMidYMid" width="219" height="189" viewBox="0 0 219 189">
  <defs>
    <style>

      .cls-3 {
        fill: #ff3a2f;
      }

      .cls-5 {
        fill: #2476ff;
      }

      .cls-6 {
        fill: #184ea7;
      }

      .cls-7 {
        fill: #ededed;
      }
    </style>
  </defs>
  <g id="group-148svg">
    <path d="M66.152,164.628 C66.152,164.628 46.992,164.628 46.992,164.628 C43.298,164.628 40.303,166.327 40.303,168.422 C40.303,170.518 43.298,172.216 46.992,172.216 C46.992,172.216 47.884,172.216 47.884,172.216 C51.578,172.216 54.573,173.915 54.573,176.011 C54.573,178.106 51.578,179.805 47.884,179.805 C47.884,179.805 6.695,179.805 6.695,179.805 C3.001,179.805 0.007,181.504 0.007,183.600 C0.007,185.695 3.001,187.395 6.695,187.395 C6.695,187.395 56.194,187.395 56.194,187.395 C56.194,187.395 157.366,187.395 157.366,187.395 C161.060,187.395 164.055,185.695 164.055,183.600 C164.055,181.504 161.060,179.805 157.366,179.805 C157.366,179.805 145.935,179.805 145.935,179.805 C142.241,179.805 139.246,178.106 139.246,176.011 C139.246,173.915 142.241,172.216 145.935,172.216 C145.935,172.216 190.831,172.216 190.831,172.216 C194.525,172.216 197.520,170.518 197.520,168.422 C197.520,166.327 194.525,164.628 190.831,164.628 C190.831,164.628 187.480,164.628 187.480,164.628 C187.480,164.628 66.152,164.628 66.152,164.628 Z" id="path-1" class="cls-3" fill-rule="evenodd"/>
    <path d="M195.546,188.411 C192.449,188.411 189.938,186.590 189.938,184.344 C189.938,182.098 192.449,180.277 195.546,180.277 C195.546,180.277 212.731,180.277 212.731,180.277 C215.828,180.277 218.339,182.098 218.339,184.344 C218.339,186.590 215.828,188.411 212.731,188.411 C212.731,188.411 195.546,188.411 195.546,188.411 Z" id="path-2" class="cls-3" fill-rule="evenodd"/>
    <path d="M44.821,123.316 C44.821,123.316 44.821,123.322 44.821,123.322 C44.821,123.322 46.036,124.596 46.036,124.596 C46.341,124.915 46.632,125.236 46.948,125.549 C46.948,125.549 46.961,125.549 46.961,125.549 C46.961,125.549 99.483,180.353 99.483,180.353 C99.483,180.353 151.979,125.549 151.979,125.549 C151.979,125.549 151.979,125.549 151.979,125.549 C152.044,125.487 152.106,125.418 152.170,125.354 C152.170,125.354 153.107,124.369 153.107,124.369 C153.107,124.369 154.108,123.322 154.108,123.322 C154.108,123.322 154.108,123.316 154.108,123.316 C154.108,123.316 154.146,123.271 154.146,123.271 C166.775,109.636 173.731,91.986 173.731,73.569 C173.731,33.002 140.414,-0.005 99.471,-0.005 C58.514,-0.005 25.198,33.002 25.198,73.569 C25.198,91.972 32.152,109.625 44.781,123.271 C44.781,123.271 44.821,123.316 44.821,123.316 Z" id="path-3" class="cls-5" fill-rule="evenodd"/>
    <path d="M110.235,119.010 C131.618,119.010 148.961,101.836 148.961,80.645 C148.961,59.461 131.618,42.281 110.235,42.281 C88.837,42.281 71.495,59.461 71.495,80.645 C71.495,101.836 88.837,119.010 110.235,119.010 Z" id="path-4" class="cls-6" fill-rule="evenodd"/>
    <path d="M99.471,111.900 C120.854,111.900 138.196,94.728 138.196,73.538 C138.196,52.353 120.854,35.174 99.471,35.174 C78.073,35.174 60.731,52.353 60.731,73.538 C60.731,94.728 78.073,111.900 99.471,111.900 Z" id="path-5" class="cls-7" fill-rule="evenodd"/>
  </g>
</svg>
