<svg xmlns="http://www.w3.org/2000/svg" xmlns:xlink="http://www.w3.org/1999/xlink" preserveAspectRatio="xMidYMid" width="217" height="171" viewBox="0 0 217 171">
  <defs>
    <style>

      .cls-3 {
        fill: #ff3a2f;
      }

      .cls-5 {
        fill: #ededed;
      }

      .cls-6 {
        fill: #000000;
        opacity: 0.35;
      }

      .cls-8 {
        fill: #2476ff;
      }
    </style>
  </defs>
  <g id="group-135svg">
    <path d="M44.176,149.212 C44.176,149.212 31.379,149.212 31.379,149.212 C28.911,149.212 26.911,150.725 26.911,152.593 C26.911,154.461 28.911,155.975 31.379,155.975 C31.379,155.975 31.974,155.975 31.974,155.975 C34.442,155.975 36.442,157.488 36.442,159.356 C36.442,161.223 34.442,162.736 31.974,162.736 C31.974,162.736 4.465,162.736 4.465,162.736 C1.997,162.736 -0.003,164.250 -0.003,166.118 C-0.003,167.986 1.997,169.500 4.465,169.500 C4.465,169.500 37.525,169.500 37.525,169.500 C37.525,169.500 105.098,169.500 105.098,169.500 C107.565,169.500 109.565,167.986 109.565,166.118 C109.565,164.250 107.565,162.736 105.098,162.736 C105.098,162.736 97.463,162.736 97.463,162.736 C94.995,162.736 92.995,161.223 92.995,159.356 C92.995,157.488 94.995,155.975 97.463,155.975 C97.463,155.975 127.449,155.975 127.449,155.975 C129.916,155.975 131.916,154.461 131.916,152.593 C131.916,150.725 129.916,149.212 127.449,149.212 C127.449,149.212 125.211,149.212 125.211,149.212 C125.211,149.212 44.176,149.212 44.176,149.212 Z" id="path-1" class="cls-3" fill-rule="evenodd"/>
    <path d="M123.542,170.404 C121.474,170.404 119.797,168.783 119.797,166.780 C119.797,164.779 121.474,163.157 123.542,163.157 C123.542,163.157 135.020,163.157 135.020,163.157 C137.089,163.157 138.766,164.779 138.766,166.780 C138.766,168.783 137.089,170.404 135.020,170.404 C135.020,170.404 123.542,170.404 123.542,170.404 Z" id="path-2" class="cls-3" fill-rule="evenodd"/>
    <path d="M188.117,144.399 C188.117,144.399 121.386,144.399 121.386,144.399 C114.727,144.399 105.186,135.938 105.186,130.028 C105.186,130.028 105.186,71.115 105.186,71.115 C105.186,69.808 105.893,68.602 107.037,67.958 C120.348,60.517 127.085,47.304 134.111,27.046 C134.111,27.046 134.111,7.635 134.111,7.635 C134.111,6.977 134.287,6.336 134.627,5.770 C136.822,2.112 140.537,0.016 144.816,0.016 C150.084,0.016 155.423,3.080 159.469,8.425 C166.743,18.042 168.543,33.161 164.589,50.397 C164.589,50.397 195.052,50.397 195.052,50.397 C201.825,50.397 217.226,57.374 217.226,68.856 C217.226,72.648 216.781,78.417 214.373,81.785 C216.273,87.088 216.633,95.676 210.814,101.726 C211.294,111.937 208.717,119.360 203.301,123.420 C203.208,128.820 200.716,135.431 196.980,139.710 C194.304,142.774 191.240,144.399 188.117,144.399 Z" id="path-3" class="cls-5" fill-rule="evenodd"/>
    <path d="M214.373,81.785 C216.781,78.417 217.225,72.648 217.225,68.856 C217.225,62.834 212.982,58.068 207.975,54.880 C208.064,55.484 208.128,56.095 208.128,56.727 C208.128,60.519 207.683,66.288 205.276,69.656 C207.175,74.959 207.535,83.546 201.717,89.598 C202.197,99.808 199.620,107.230 194.203,111.290 C194.111,116.693 191.618,123.302 187.883,127.580 C185.206,130.644 182.142,132.269 179.020,132.269 C179.020,132.269 112.288,132.269 112.288,132.269 C110.086,132.269 107.571,131.331 105.186,129.879 C105.186,129.879 105.186,130.028 105.186,130.028 C105.186,135.938 114.727,144.399 121.386,144.399 C121.386,144.399 188.117,144.399 188.117,144.399 C191.239,144.399 194.304,142.774 196.980,139.710 C200.716,135.431 203.208,128.820 203.301,123.420 C208.716,119.358 211.294,111.937 210.814,101.726 C216.633,95.676 216.273,87.088 214.373,81.785 Z" id="path-4" class="cls-6" fill-rule="evenodd"/>
    <path d="M153.398,50.397 C153.398,50.397 164.347,50.397 164.347,50.397 C166.347,40.689 170.412,27.802 159.469,8.425 C158.191,6.163 156.135,4.636 154.258,3.294 C158.103,12.576 156.499,36.877 153.398,50.397 Z" id="path-5" class="cls-6" fill-rule="evenodd"/>
    <path d="M99.735,151.630 C99.735,151.630 60.020,151.630 60.020,151.630 C53.029,151.630 47.338,145.945 47.338,138.954 C47.338,138.954 47.338,63.073 47.338,63.073 C47.338,56.082 53.029,50.397 60.020,50.397 C60.020,50.397 99.735,50.397 99.735,50.397 C106.726,50.397 112.418,56.082 112.418,63.073 C112.418,63.073 112.418,138.954 112.418,138.954 C112.418,145.945 106.726,151.630 99.735,151.630 Z" id="path-6" class="cls-8" fill-rule="evenodd"/>
    <path d="M101.505,50.576 C102.631,52.469 103.321,54.651 103.321,57.008 C103.321,57.008 103.321,132.890 103.321,132.890 C103.321,139.881 97.629,145.565 90.638,145.565 C90.638,145.565 50.923,145.565 50.923,145.565 C50.317,145.565 49.737,145.468 49.154,145.386 C51.367,149.106 55.387,151.630 60.020,151.630 C60.020,151.630 99.735,151.630 99.735,151.630 C106.726,151.630 112.418,145.945 112.418,138.954 C112.418,138.954 112.418,63.073 112.418,63.073 C112.418,56.687 107.654,51.446 101.505,50.576 Z" id="path-7" class="cls-6" fill-rule="evenodd"/>
  </g>
</svg>
