<svg xmlns="http://www.w3.org/2000/svg" xmlns:xlink="http://www.w3.org/1999/xlink" preserveAspectRatio="xMidYMid" width="218" height="188" viewBox="0 0 218 188">
  <defs>
    <style>

      .cls-3 {
        fill: #0cb04a;
      }

      .cls-6 {
        fill: #142a3b;
      }

      .cls-9 {
        fill: #ededed;
      }

      .cls-10 {
        fill: #090908;
        opacity: 0.35;
      }

      .cls-13 {
        fill: #fbb713;
      }

      .cls-14 {
        fill: #ff3a2f;
      }

      .cls-16 {
        fill: #2476ff;
      }
    </style>
  </defs>
  <g id="group-14svg">
    <path d="M80.357,164.243 C80.357,164.243 61.840,164.243 61.840,164.243 C58.270,164.243 55.376,165.901 55.376,167.945 C55.376,169.989 58.270,171.647 61.840,171.647 C61.840,171.647 62.702,171.647 62.702,171.647 C66.272,171.647 69.166,173.303 69.166,175.348 C69.166,177.392 66.272,179.050 62.702,179.050 C62.702,179.050 22.897,179.050 22.897,179.050 C19.327,179.050 16.433,180.706 16.433,182.751 C16.433,184.795 19.327,186.452 22.897,186.452 C22.897,186.452 70.733,186.452 70.733,186.452 C70.733,186.452 168.507,186.452 168.507,186.452 C172.078,186.452 174.972,184.795 174.972,182.751 C174.972,180.706 172.078,179.050 168.507,179.050 C168.507,179.050 157.460,179.050 157.460,179.050 C153.890,179.050 150.996,177.392 150.996,175.348 C150.996,173.303 153.890,171.647 157.460,171.647 C157.460,171.647 200.849,171.647 200.849,171.647 C204.419,171.647 207.313,169.989 207.313,167.945 C207.313,165.901 204.419,164.243 200.849,164.243 C200.849,164.243 197.610,164.243 197.610,164.243 C197.610,164.243 80.357,164.243 80.357,164.243 Z" id="path-1" class="cls-3" fill-rule="evenodd"/>
    <path d="M195.196,187.444 C192.203,187.444 189.776,185.668 189.776,183.477 C189.776,181.286 192.203,179.510 195.196,179.510 C195.196,179.510 211.804,179.510 211.804,179.510 C214.797,179.510 217.223,181.286 217.223,183.477 C217.223,185.668 214.797,187.444 211.804,187.444 C211.804,187.444 195.196,187.444 195.196,187.444 Z" id="path-2" class="cls-3" fill-rule="evenodd"/>
    <path d="M8.783,168.042 C5.764,168.042 3.316,166.250 3.316,164.040 C3.316,161.830 5.764,160.039 8.783,160.039 C8.783,160.039 25.536,160.039 25.536,160.039 C28.555,160.039 31.003,161.830 31.003,164.040 C31.003,166.250 28.555,168.042 25.536,168.042 C25.536,168.042 8.783,168.042 8.783,168.042 Z" id="path-3" class="cls-3" fill-rule="evenodd"/>
    <path d="M122.901,158.524 C122.901,158.524 61.872,158.524 61.872,158.524 C61.872,158.524 61.872,154.368 61.872,154.368 C61.872,154.368 122.901,154.368 122.901,154.368 C122.901,154.368 122.901,158.524 122.901,158.524 Z" id="path-4" class="cls-6" fill-rule="evenodd"/>
    <path d="M99.971,175.742 C99.971,175.742 85.127,175.742 85.127,175.742 C85.127,175.742 85.127,-0.003 85.127,-0.003 C85.127,-0.003 99.971,-0.003 99.971,-0.003 C99.971,-0.003 99.971,175.742 99.971,175.742 Z" id="path-5" class="cls-6" fill-rule="evenodd"/>
    <path d="M171.292,127.056 C171.292,127.056 17.511,127.056 17.511,127.056 C17.511,127.056 17.511,13.059 17.511,13.059 C17.511,13.059 171.292,13.059 171.292,13.059 C171.292,13.059 171.292,127.056 171.292,127.056 Z" id="path-6" class="cls-6" fill-rule="evenodd"/>
    <path d="M159.839,116.969 C159.839,116.969 28.964,116.969 28.964,116.969 C28.964,116.969 28.964,23.146 28.964,23.146 C28.964,23.146 159.839,23.146 159.839,23.146 C159.839,23.146 159.839,116.969 159.839,116.969 Z" id="path-7" class="cls-9" fill-rule="evenodd"/>
    <path d="M159.839,35.154 C159.839,35.154 28.964,28.288 28.964,28.288 C28.964,28.288 28.964,23.146 28.964,23.146 C28.964,23.146 159.839,23.146 159.839,23.146 C159.839,23.146 159.839,35.154 159.839,35.154 Z" id="path-8" class="cls-10" fill-rule="evenodd"/>
    <path d="M188.808,19.294 C188.808,19.294 -0.005,19.294 -0.005,19.294 C-0.005,19.294 -0.005,9.497 -0.005,9.497 C-0.005,9.497 188.808,9.497 188.808,9.497 C188.808,9.497 188.808,19.294 188.808,19.294 Z" id="path-9" class="cls-6" fill-rule="evenodd"/>
    <path d="M56.695,95.646 C55.986,95.646 55.268,95.437 54.641,95.004 C52.995,93.868 52.583,91.613 53.720,89.969 C53.720,89.969 74.074,60.521 74.074,60.521 C74.074,60.521 114.090,83.296 114.090,83.296 C114.090,83.296 130.629,52.322 130.629,52.322 C131.570,50.560 133.754,49.889 135.529,50.834 C137.291,51.776 137.958,53.969 137.018,55.734 C137.018,55.734 116.976,93.270 116.976,93.270 C116.976,93.270 76.260,70.095 76.260,70.095 C76.260,70.095 59.678,94.084 59.678,94.084 C58.974,95.102 57.844,95.646 56.695,95.646 Z" id="path-10" class="cls-6" fill-rule="evenodd"/>
    <path d="M65.838,91.666 C65.838,96.713 61.746,100.806 56.698,100.806 C51.650,100.806 47.558,96.713 47.558,91.666 C47.558,86.618 51.650,82.527 56.698,82.527 C61.746,82.527 65.838,86.618 65.838,91.666 Z" id="path-11" class="cls-13" fill-rule="evenodd"/>
    <path d="M84.965,62.339 C84.965,68.570 79.914,73.621 73.683,73.621 C67.453,73.621 62.402,68.570 62.402,62.339 C62.402,56.109 67.453,51.058 73.683,51.058 C79.914,51.058 84.965,56.109 84.965,62.339 Z" id="path-12" class="cls-14" fill-rule="evenodd"/>
    <path d="M126.040,88.284 C126.040,94.086 121.336,98.791 115.532,98.791 C109.730,98.791 105.025,94.086 105.025,88.284 C105.025,82.481 109.730,77.776 115.532,77.776 C121.336,77.776 126.040,82.481 126.040,88.284 Z" id="path-13" class="cls-3" fill-rule="evenodd"/>
    <path d="M141.244,51.356 C141.244,55.455 137.921,58.777 133.822,58.777 C129.723,58.777 126.400,55.455 126.400,51.356 C126.400,47.257 129.723,43.934 133.822,43.934 C137.921,43.934 141.244,47.257 141.244,51.356 Z" id="path-14" class="cls-16" fill-rule="evenodd"/>
    <path d="M139.108,175.703 C139.108,175.703 160.141,175.742 160.141,175.742 C160.141,175.742 103.282,118.886 103.282,118.886 C103.282,118.886 92.786,129.382 92.786,129.382 C92.786,129.382 139.108,175.703 139.108,175.703 Z" id="path-15" class="cls-6" fill-rule="evenodd"/>
    <path d="M49.694,175.703 C49.694,175.703 28.662,175.742 28.662,175.742 C28.662,175.742 85.520,118.886 85.520,118.886 C85.520,118.886 96.016,129.382 96.016,129.382 C96.016,129.382 49.694,175.703 49.694,175.703 Z" id="path-16" class="cls-6" fill-rule="evenodd"/>
    <path d="M124.381,139.985 C124.381,139.985 111.453,127.056 111.453,127.056 C111.453,127.056 77.349,127.056 77.349,127.056 C77.349,127.056 70.885,133.519 70.885,133.519 C70.885,133.519 99.971,136.551 99.971,136.551 C99.971,136.551 99.971,136.566 99.971,136.566 C99.971,136.566 124.381,139.985 124.381,139.985 Z" id="path-17" class="cls-10" fill-rule="evenodd"/>
  </g>
</svg>
