<svg xmlns="http://www.w3.org/2000/svg" xmlns:xlink="http://www.w3.org/1999/xlink" preserveAspectRatio="xMidYMid" width="169" height="218" viewBox="0 0 169 218">
  <defs>
    <style>

      .cls-3 {
        fill: #142a3b;
      }

      .cls-4 {
        fill: #000000;
        opacity: 0.35;
      }

      .cls-5 {
        fill: #ededed;
      }

      .cls-7 {
        fill: #fbb713;
      }

      .cls-11 {
        fill: #ff3a2f;
      }
    </style>
  </defs>
  <g id="group-106svg">
    <path d="M168.535,217.225 C168.535,217.225 0.001,217.225 0.001,217.225 C0.001,217.225 0.001,13.629 0.001,13.629 C0.001,13.629 168.535,13.629 168.535,13.629 C168.535,13.629 168.535,217.225 168.535,217.225 Z" id="path-1" class="cls-3" fill-rule="evenodd"/>
    <path d="M157.632,202.642 C157.632,202.642 24.480,202.642 24.480,202.642 C24.480,202.642 24.480,41.788 24.480,41.788 C24.480,41.788 157.632,41.788 157.632,41.788 C157.632,41.788 157.632,202.642 157.632,202.642 Z" id="path-2" class="cls-4" fill-rule="evenodd"/>
    <path d="M150.844,195.853 C150.844,195.853 17.691,195.853 17.691,195.853 C17.691,195.853 17.691,35.000 17.691,35.000 C17.691,35.000 150.844,35.000 150.844,35.000 C150.844,35.000 150.844,195.853 150.844,195.853 Z" id="path-3" class="cls-5" fill-rule="evenodd"/>
    <path d="M130.747,56.443 C130.747,56.443 51.365,56.443 51.365,56.443 C51.365,56.443 51.365,28.466 51.365,28.466 C51.365,28.466 130.747,28.466 130.747,28.466 C130.747,28.466 130.747,56.443 130.747,56.443 Z" id="path-4" class="cls-4" fill-rule="evenodd"/>
    <path d="M123.959,49.655 C123.959,49.655 44.577,49.655 44.577,49.655 C44.577,49.655 44.577,21.678 44.577,21.678 C44.577,21.678 123.959,21.678 123.959,21.678 C123.959,21.678 123.959,49.655 123.959,49.655 Z" id="path-5" class="cls-7" fill-rule="evenodd"/>
    <path d="M105.524,21.261 C105.524,32.998 96.007,42.516 84.268,42.516 C72.528,42.516 63.011,32.998 63.011,21.261 C63.011,9.521 72.528,0.004 84.268,0.004 C96.007,0.004 105.524,9.521 105.524,21.261 Z" id="path-6" class="cls-7" fill-rule="evenodd"/>
    <path d="M92.701,21.261 C92.701,25.916 88.925,29.693 84.268,29.693 C79.610,29.693 75.835,25.916 75.835,21.261 C75.835,16.603 79.610,12.827 84.268,12.827 C88.925,12.827 92.701,16.603 92.701,21.261 Z" id="path-7" class="cls-3" fill-rule="evenodd"/>
    <path d="M88.259,13.873 C88.905,15.067 89.306,16.413 89.306,17.865 C89.306,22.523 85.531,26.298 80.873,26.298 C79.421,26.298 78.075,25.897 76.882,25.250 C78.309,27.884 81.063,29.693 84.267,29.693 C88.925,29.693 92.701,25.917 92.701,21.259 C92.701,18.054 90.892,15.300 88.259,13.873 Z" id="path-8" class="cls-4" fill-rule="evenodd"/>
    <path d="M66.402,81.053 C66.402,81.053 57.332,81.053 57.332,81.053 C55.583,81.053 54.166,82.044 54.166,83.269 C54.166,84.493 55.583,85.487 57.332,85.487 C57.332,85.487 57.754,85.487 57.754,85.487 C59.503,85.487 60.921,86.479 60.921,87.703 C60.921,88.929 59.503,89.921 57.754,89.921 C57.754,89.921 38.256,89.921 38.256,89.921 C36.507,89.921 35.090,90.914 35.090,92.139 C35.090,93.364 36.507,94.355 38.256,94.355 C38.256,94.355 61.688,94.355 61.688,94.355 C61.688,94.355 109.583,94.355 109.583,94.355 C111.331,94.355 112.749,93.364 112.749,92.139 C112.749,90.914 111.331,89.921 109.583,89.921 C109.583,89.921 104.171,89.921 104.171,89.921 C102.422,89.921 101.004,88.929 101.004,87.703 C101.004,86.479 102.422,85.487 104.171,85.487 C104.171,85.487 125.425,85.487 125.425,85.487 C127.174,85.487 128.591,84.493 128.591,83.269 C128.591,82.044 127.174,81.053 125.425,81.053 C125.425,81.053 123.838,81.053 123.838,81.053 C123.838,81.053 66.402,81.053 66.402,81.053 Z" id="path-9" class="cls-11" fill-rule="evenodd"/>
    <path d="M122.656,94.950 C121.190,94.950 120.001,93.886 120.001,92.574 C120.001,91.261 121.190,90.196 122.656,90.196 C122.656,90.196 130.791,90.196 130.791,90.196 C132.257,90.196 133.446,91.261 133.446,92.574 C133.446,93.886 132.257,94.950 130.791,94.950 C130.791,94.950 122.656,94.950 122.656,94.950 Z" id="path-10" class="cls-11" fill-rule="evenodd"/>
    <path d="M66.402,148.933 C66.402,148.933 57.332,148.933 57.332,148.933 C55.583,148.933 54.166,149.926 54.166,151.150 C54.166,152.375 55.583,153.369 57.332,153.369 C57.332,153.369 57.754,153.369 57.754,153.369 C59.503,153.369 60.921,154.361 60.921,155.586 C60.921,156.810 59.503,157.802 57.754,157.802 C57.754,157.802 38.256,157.802 38.256,157.802 C36.507,157.802 35.090,158.796 35.090,160.020 C35.090,161.245 36.507,162.237 38.256,162.237 C38.256,162.237 61.688,162.237 61.688,162.237 C61.688,162.237 109.583,162.237 109.583,162.237 C111.331,162.237 112.749,161.245 112.749,160.020 C112.749,158.796 111.331,157.802 109.583,157.802 C109.583,157.802 104.171,157.802 104.171,157.802 C102.422,157.802 101.004,156.810 101.004,155.586 C101.004,154.361 102.422,153.369 104.171,153.369 C104.171,153.369 125.425,153.369 125.425,153.369 C127.174,153.369 128.591,152.375 128.591,151.150 C128.591,149.926 127.174,148.933 125.425,148.933 C125.425,148.933 123.838,148.933 123.838,148.933 C123.838,148.933 66.402,148.933 66.402,148.933 Z" id="path-11" class="cls-11" fill-rule="evenodd"/>
    <path d="M122.656,162.831 C121.190,162.831 120.001,161.768 120.001,160.457 C120.001,159.142 121.190,158.079 122.656,158.079 C122.656,158.079 130.791,158.079 130.791,158.079 C132.257,158.079 133.446,159.142 133.446,160.457 C133.446,161.768 132.257,162.831 130.791,162.831 C130.791,162.831 122.656,162.831 122.656,162.831 Z" id="path-12" class="cls-11" fill-rule="evenodd"/>
    <path d="M102.133,114.992 C102.133,114.992 111.203,114.992 111.203,114.992 C112.952,114.992 114.370,115.984 114.370,117.209 C114.370,118.433 112.952,119.427 111.203,119.427 C111.203,119.427 110.781,119.427 110.781,119.427 C109.032,119.427 107.614,120.420 107.614,121.644 C107.614,122.869 109.032,123.862 110.781,123.862 C110.781,123.862 130.279,123.862 130.279,123.862 C132.028,123.862 133.446,124.855 133.446,126.079 C133.446,127.304 132.028,128.297 130.279,128.297 C130.279,128.297 106.847,128.297 106.847,128.297 C106.847,128.297 58.953,128.297 58.953,128.297 C57.204,128.297 55.786,127.304 55.786,126.079 C55.786,124.855 57.204,123.862 58.953,123.862 C58.953,123.862 64.364,123.862 64.364,123.862 C66.113,123.862 67.531,122.869 67.531,121.644 C67.531,120.420 66.113,119.427 64.364,119.427 C64.364,119.427 43.110,119.427 43.110,119.427 C41.362,119.427 39.944,118.433 39.944,117.209 C39.944,115.984 41.362,114.992 43.110,114.992 C43.110,114.992 44.697,114.992 44.697,114.992 C44.697,114.992 102.133,114.992 102.133,114.992 Z" id="path-13" class="cls-11" fill-rule="evenodd"/>
    <path d="M45.880,128.890 C47.346,128.890 48.535,127.827 48.535,126.515 C48.535,125.202 47.346,124.138 45.880,124.138 C45.880,124.138 37.744,124.138 37.744,124.138 C36.278,124.138 35.090,125.202 35.090,126.515 C35.090,127.827 36.278,128.890 37.744,128.890 C37.744,128.890 45.880,128.890 45.880,128.890 Z" id="path-14" class="cls-11" fill-rule="evenodd"/>
  </g>
</svg>
