<svg xmlns="http://www.w3.org/2000/svg" xmlns:xlink="http://www.w3.org/1999/xlink" preserveAspectRatio="xMidYMid" width="161" height="217" viewBox="0 0 161 217">
  <defs>
    <style>

      .cls-3 {
        fill: #0cb04a;
      }

      .cls-4 {
        fill: #020403;
        opacity: 0.35;
      }

      .cls-7 {
        fill: #ff3a2f;
      }

      .cls-8 {
        fill: #142a3b;
      }

      .cls-10 {
        fill: #020403;
        opacity: 0.45;
      }

      .cls-11 {
        fill: #ededed;
      }

      .cls-12 {
        fill: #fbb713;
      }
    </style>
  </defs>
  <g id="group-92svg">
    <path d="M102.328,102.675 C101.346,110.348 99.837,117.744 97.838,124.767 C97.838,124.767 96.404,133.471 96.404,133.471 C96.404,133.471 121.120,140.325 121.120,140.325 C121.120,140.325 121.120,117.048 121.120,117.048 C121.120,117.048 102.328,102.675 102.328,102.675 Z" id="path-1" class="cls-3" fill-rule="evenodd"/>
    <path d="M106.775,130.045 C106.775,130.045 108.210,121.342 108.210,121.342 C109.315,117.456 110.256,113.446 111.056,109.350 C111.056,109.350 102.328,102.675 102.328,102.675 C101.346,110.348 99.837,117.744 97.838,124.767 C97.838,124.767 96.404,133.471 96.404,133.471 C96.404,133.471 121.120,140.325 121.120,140.325 C121.120,140.325 121.120,134.024 121.120,134.024 C121.120,134.024 106.775,130.045 106.775,130.045 Z" id="path-2" class="cls-4" fill-rule="evenodd"/>
    <path d="M56.959,102.465 C56.959,102.465 34.694,117.048 34.694,117.048 C34.694,117.048 34.694,140.325 34.694,140.325 C34.694,140.325 61.744,133.471 61.744,133.471 C61.744,133.471 59.567,117.304 59.567,117.304 C58.471,112.498 57.602,107.541 56.959,102.465 Z" id="path-3" class="cls-3" fill-rule="evenodd"/>
    <path d="M59.567,117.304 C58.471,112.498 57.602,107.541 56.959,102.465 C56.959,102.465 51.136,106.279 51.136,106.279 C51.583,108.849 52.084,111.387 52.653,113.880 C52.653,113.880 54.830,130.045 54.830,130.045 C54.830,130.045 34.694,135.149 34.694,135.149 C34.694,135.149 34.694,140.325 34.694,140.325 C34.694,140.325 61.744,133.471 61.744,133.471 C61.744,133.471 59.567,117.304 59.567,117.304 Z" id="path-4" class="cls-4" fill-rule="evenodd"/>
    <path d="M52.205,85.459 C52.205,102.340 54.772,118.333 59.363,132.640 C65.684,152.341 93.632,152.341 99.954,132.640 C104.544,118.333 107.111,102.340 107.111,85.459 C107.111,51.005 96.414,20.244 79.658,-0.004 C62.902,20.244 52.205,51.005 52.205,85.459 Z" id="path-5" class="cls-7" fill-rule="evenodd"/>
    <path d="M96.680,47.652 C96.680,47.652 60.291,47.652 60.291,47.652 C58.280,47.652 56.652,46.144 56.652,44.153 C56.652,42.161 58.280,40.653 60.291,40.653 C60.291,40.653 96.680,40.653 96.680,40.653 C98.691,40.653 100.318,42.161 100.318,44.153 C100.318,46.144 98.691,47.652 96.680,47.652 Z" id="path-6" class="cls-8" fill-rule="evenodd"/>
    <path d="M79.658,0.042 C79.658,0.042 79.658,147.463 79.658,147.463 C88.225,147.463 96.792,142.536 99.954,132.686 C104.544,118.380 107.111,102.386 107.111,85.504 C107.111,51.051 96.414,20.290 79.658,0.042 Z" id="path-7" class="cls-4" fill-rule="evenodd"/>
    <path d="M96.805,76.471 C96.805,70.581 91.986,65.808 86.043,65.808 C80.099,65.808 75.280,70.581 75.280,76.471 C75.280,82.358 80.099,87.132 86.043,87.132 C91.986,87.132 96.805,82.358 96.805,76.471 Z" id="path-8" class="cls-10" fill-rule="evenodd"/>
    <path d="M89.891,73.046 C89.891,67.158 85.072,62.385 79.128,62.385 C73.184,62.385 68.366,67.158 68.366,73.046 C68.366,78.934 73.184,83.708 79.128,83.708 C85.072,83.708 89.891,78.934 89.891,73.046 Z" id="path-9" class="cls-11" fill-rule="evenodd"/>
    <path d="M109.704,199.113 C109.704,199.113 124.623,199.113 124.623,199.113 C127.499,199.113 129.831,200.396 129.831,201.976 C129.831,203.557 127.499,204.838 124.623,204.838 C124.623,204.838 123.929,204.838 123.929,204.838 C121.052,204.838 118.720,206.120 118.720,207.700 C118.720,209.281 121.052,210.563 123.929,210.563 C123.929,210.563 155.999,210.563 155.999,210.563 C158.876,210.563 161.208,211.845 161.208,213.425 C161.208,215.005 158.876,216.287 155.999,216.287 C155.999,216.287 117.458,216.287 117.458,216.287 C117.458,216.287 38.681,216.287 38.681,216.287 C35.805,216.287 33.473,215.005 33.473,213.425 C33.473,211.845 35.805,210.563 38.681,210.563 C38.681,210.563 47.582,210.563 47.582,210.563 C50.458,210.563 52.790,209.281 52.790,207.700 C52.790,206.120 50.458,204.838 47.582,204.838 C47.582,204.838 5.222,204.838 5.222,204.838 C2.345,204.838 0.013,203.557 0.013,201.976 C0.013,200.396 2.345,199.113 5.222,199.113 C5.222,199.113 15.233,199.113 15.233,199.113 C15.233,199.113 109.704,199.113 109.704,199.113 Z" id="path-10" class="cls-12" fill-rule="evenodd"/>
    <path d="M89.946,148.118 C89.946,148.118 89.946,143.187 89.946,143.187 C89.946,142.236 88.768,141.466 87.314,141.466 C85.860,141.466 84.682,142.236 84.682,143.187 C84.682,143.187 84.682,143.416 84.682,143.416 C84.682,144.367 83.503,145.137 82.050,145.137 C80.596,145.137 79.417,144.367 79.417,143.416 C79.417,143.416 79.417,132.818 79.417,132.818 C79.417,131.867 78.239,131.097 76.786,131.097 C75.332,131.097 74.154,131.867 74.154,132.818 C74.154,132.818 74.154,145.554 74.154,145.554 C74.154,145.554 74.154,171.589 74.154,171.589 C74.154,172.539 75.332,173.310 76.786,173.310 C78.239,173.310 79.417,172.539 79.417,171.589 C79.417,171.589 79.417,168.648 79.417,168.648 C79.417,167.697 80.596,166.926 82.050,166.926 C83.503,166.926 84.682,167.697 84.682,168.648 C84.682,168.648 84.682,182.647 84.682,182.647 C84.682,183.597 85.860,184.368 87.314,184.368 C88.768,184.368 89.946,183.597 89.946,182.647 C89.946,182.647 89.946,179.339 89.946,179.339 C89.946,179.339 89.946,148.118 89.946,148.118 Z" id="path-11" class="cls-8" fill-rule="evenodd"/>
    <path d="M67.202,153.632 C67.202,153.632 67.202,151.211 67.202,151.211 C67.202,150.745 66.623,150.366 65.910,150.366 C65.196,150.366 64.617,150.745 64.617,151.211 C64.617,151.211 64.617,151.324 64.617,151.324 C64.617,151.791 64.039,152.170 63.325,152.170 C62.611,152.170 62.032,151.791 62.032,151.324 C62.032,151.324 62.032,146.120 62.032,146.120 C62.032,145.653 61.454,145.275 60.740,145.275 C60.027,145.275 59.449,145.653 59.449,146.120 C59.449,146.120 59.449,152.374 59.449,152.374 C59.449,152.374 59.449,165.157 59.449,165.157 C59.449,165.623 60.027,166.002 60.740,166.002 C61.454,166.002 62.032,165.623 62.032,165.157 C62.032,165.157 62.032,163.713 62.032,163.713 C62.032,163.246 62.611,162.867 63.325,162.867 C64.039,162.867 64.617,163.246 64.617,163.713 C64.617,163.713 64.617,170.585 64.617,170.585 C64.617,171.053 65.196,171.431 65.910,171.431 C66.623,171.431 67.202,171.053 67.202,170.585 C67.202,170.585 67.202,168.962 67.202,168.962 C67.202,168.962 67.202,153.632 67.202,153.632 Z" id="path-12" class="cls-8" fill-rule="evenodd"/>
    <path d="M108.686,177.606 C108.686,177.606 108.686,175.184 108.686,175.184 C108.686,174.718 108.108,174.339 107.395,174.339 C106.680,174.339 106.102,174.718 106.102,175.184 C106.102,175.184 106.102,175.297 106.102,175.297 C106.102,175.764 105.523,176.142 104.809,176.142 C104.096,176.142 103.517,175.764 103.517,175.297 C103.517,175.297 103.517,170.093 103.517,170.093 C103.517,169.626 102.939,169.248 102.225,169.248 C101.512,169.248 100.933,169.626 100.933,170.093 C100.933,170.093 100.933,176.347 100.933,176.347 C100.933,176.347 100.933,189.129 100.933,189.129 C100.933,189.597 101.512,189.975 102.225,189.975 C102.939,189.975 103.517,189.597 103.517,189.129 C103.517,189.129 103.517,187.685 103.517,187.685 C103.517,187.218 104.096,186.840 104.809,186.840 C105.523,186.840 106.102,187.218 106.102,187.685 C106.102,187.685 106.102,194.559 106.102,194.559 C106.102,195.025 106.680,195.404 107.395,195.404 C108.108,195.404 108.686,195.025 108.686,194.559 C108.686,194.559 108.686,192.934 108.686,192.934 C108.686,192.934 108.686,177.606 108.686,177.606 Z" id="path-13" class="cls-8" fill-rule="evenodd"/>
    <path d="M77.611,191.128 C77.611,188.558 78.962,186.475 80.629,186.475 C82.295,186.475 83.646,188.558 83.646,191.128 C83.646,191.128 83.646,205.385 83.646,205.385 C83.646,207.954 82.295,210.036 80.629,210.036 C78.962,210.036 77.611,207.954 77.611,205.385 C77.611,205.385 77.611,191.128 77.611,191.128 Z" id="path-14" class="cls-8" fill-rule="evenodd"/>
    <path d="M56.906,184.923 C56.906,182.760 58.045,181.006 59.449,181.006 C60.852,181.006 61.990,182.760 61.990,184.923 C61.990,184.923 61.990,196.933 61.990,196.933 C61.990,199.096 60.852,200.852 59.449,200.852 C58.045,200.852 56.906,199.096 56.906,196.933 C56.906,196.933 56.906,184.923 56.906,184.923 Z" id="path-15" class="cls-8" fill-rule="evenodd"/>
    <path d="M104.569,151.729 C104.569,149.564 105.707,147.809 107.111,147.809 C108.515,147.809 109.653,149.564 109.653,151.729 C109.653,151.729 109.653,163.737 109.653,163.737 C109.653,165.901 108.515,167.656 107.111,167.656 C105.707,167.656 104.569,165.901 104.569,163.737 C104.569,163.737 104.569,151.729 104.569,151.729 Z" id="path-16" class="cls-8" fill-rule="evenodd"/>
  </g>
</svg>
