<svg xmlns="http://www.w3.org/2000/svg" xmlns:xlink="http://www.w3.org/1999/xlink" preserveAspectRatio="xMidYMid" width="217" height="191" viewBox="0 0 217 191">
  <defs>
    <style>

      .cls-3 {
        fill: #142a3b;
      }

      .cls-5 {
        fill: #ff3a2f;
      }

      .cls-7 {
        fill: #0cb04a;
      }

      .cls-8 {
        fill: #000000;
        opacity: 0.35;
      }
    </style>
  </defs>
  <g id="group-109svg">
    <path d="M82.663,160.260 C82.663,160.260 64.458,160.260 64.458,160.260 C60.948,160.260 58.102,162.409 58.102,165.060 C58.102,167.711 60.948,169.861 64.458,169.861 C64.458,169.861 65.305,169.861 65.305,169.861 C68.816,169.861 71.661,172.010 71.661,174.661 C71.661,177.312 68.816,179.462 65.305,179.462 C65.305,179.462 26.170,179.462 26.170,179.462 C22.660,179.462 19.815,181.611 19.815,184.262 C19.815,186.913 22.660,189.063 26.170,189.063 C26.170,189.063 73.201,189.063 73.201,189.063 C73.201,189.063 169.330,189.063 169.330,189.063 C172.840,189.063 175.685,186.913 175.685,184.262 C175.685,181.611 172.840,179.462 169.330,179.462 C169.330,179.462 158.469,179.462 158.469,179.462 C154.958,179.462 152.113,177.312 152.113,174.661 C152.113,172.010 154.958,169.861 158.469,169.861 C158.469,169.861 201.127,169.861 201.127,169.861 C204.637,169.861 207.482,167.711 207.482,165.060 C207.482,162.409 204.637,160.260 201.127,160.260 C201.127,160.260 197.943,160.260 197.943,160.260 C197.943,160.260 82.663,160.260 82.663,160.260 Z" id="path-1" class="cls-3" fill-rule="evenodd"/>
    <path d="M195.569,190.347 C192.626,190.347 190.241,188.045 190.241,185.203 C190.241,182.362 192.626,180.058 195.569,180.058 C195.569,180.058 211.898,180.058 211.898,180.058 C214.841,180.058 217.226,182.362 217.226,185.203 C217.226,188.045 214.841,190.347 211.898,190.347 C211.898,190.347 195.569,190.347 195.569,190.347 Z" id="path-2" class="cls-3" fill-rule="evenodd"/>
    <path d="M134.915,152.253 C134.915,159.632 140.870,165.613 148.214,165.613 C155.557,165.613 161.512,159.632 161.512,152.253 C161.512,144.876 155.557,138.892 148.214,138.892 C140.870,138.892 134.915,144.876 134.915,152.253 Z" id="path-3" class="cls-5" fill-rule="evenodd"/>
    <path d="M66.522,152.253 C66.522,159.632 72.477,165.613 79.821,165.613 C87.164,165.613 93.119,159.632 93.119,152.253 C93.119,144.876 87.164,138.892 79.821,138.892 C72.477,138.892 66.522,144.876 66.522,152.253 Z" id="path-4" class="cls-5" fill-rule="evenodd"/>
    <path d="M62.701,111.392 C62.701,111.392 177.696,111.392 177.696,111.392 C177.696,111.392 204.292,31.229 204.292,31.229 C204.292,31.229 44.710,31.229 44.710,31.229 C44.710,31.229 44.710,31.229 44.710,31.229 " id="path-5" class="cls-7" fill-rule="evenodd"/>
    <path d="M180.586,31.229 C180.586,31.229 171.800,57.708 171.800,57.708 C163.727,82.042 140.932,98.472 115.245,98.472 C115.245,98.472 59.801,98.472 59.801,98.472 C59.801,98.472 62.701,111.392 62.701,111.392 C62.701,111.392 177.696,111.392 177.696,111.392 C177.696,111.392 204.293,31.229 204.293,31.229 C204.293,31.229 180.586,31.229 180.586,31.229 Z" id="path-6" class="cls-8" fill-rule="evenodd"/>
    <path d="M164.397,132.825 C164.397,132.825 64.065,132.825 64.065,132.825 C64.065,132.825 31.838,7.247 31.838,7.247 C31.838,7.247 3.619,7.247 3.619,7.247 C1.619,7.247 -0.002,5.626 -0.002,3.627 C-0.002,1.628 1.619,0.008 3.619,0.008 C3.619,0.008 37.456,0.008 37.456,0.008 C37.456,0.008 69.684,125.584 69.684,125.584 C69.684,125.584 164.397,125.584 164.397,125.584 C166.397,125.584 168.018,127.206 168.018,129.206 C168.018,131.205 166.397,132.825 164.397,132.825 Z" id="path-7" class="cls-3" fill-rule="evenodd"/>
  </g>
</svg>
