<svg xmlns="http://www.w3.org/2000/svg" xmlns:xlink="http://www.w3.org/1999/xlink" preserveAspectRatio="xMidYMid" width="217" height="219" viewBox="0 0 217 219">
  <defs>
    <style>

      .cls-3 {
        fill: #fbb713;
      }

      .cls-5 {
        fill: #0cb04a;
      }

      .cls-6 {
        fill: #ff3a2f;
      }

      .cls-7 {
        fill: #000000;
        opacity: 0.35;
      }
    </style>
  </defs>
  <g id="group-143svg">
    <path d="M125.394,219.076 C125.394,219.076 142.359,219.076 142.359,219.076 C145.630,219.076 148.282,217.069 148.282,214.595 C148.282,212.119 145.630,210.113 142.359,210.113 C142.359,210.113 141.569,210.113 141.569,210.113 C138.299,210.113 135.646,208.105 135.646,205.629 C135.646,203.153 138.299,201.147 141.569,201.147 C141.569,201.147 178.040,201.147 178.040,201.147 C181.311,201.147 183.963,199.139 183.963,196.663 C183.963,194.187 181.311,192.180 178.040,192.180 C178.040,192.180 134.212,192.180 134.212,192.180 C134.212,192.180 44.627,192.180 44.627,192.180 C41.356,192.180 38.704,194.187 38.704,196.663 C38.704,199.139 41.356,201.147 44.627,201.147 C44.627,201.147 54.749,201.147 54.749,201.147 C58.020,201.147 60.671,203.153 60.671,205.629 C60.671,208.105 58.020,210.113 54.749,210.113 C54.749,210.113 14.995,210.113 14.995,210.113 C11.724,210.113 9.072,212.119 9.072,214.595 C9.072,217.069 11.724,219.076 14.995,219.076 C14.995,219.076 17.962,219.076 17.962,219.076 C17.962,219.076 125.394,219.076 125.394,219.076 Z" id="path-1" class="cls-3" fill-rule="evenodd"/>
    <path d="M20.175,190.981 C22.917,190.981 25.140,193.131 25.140,195.784 C25.140,198.437 22.917,200.588 20.175,200.588 C20.175,200.588 4.958,200.588 4.958,200.588 C2.215,200.588 -0.008,198.437 -0.008,195.784 C-0.008,193.131 2.215,190.981 4.958,190.981 C4.958,190.981 20.175,190.981 20.175,190.981 Z" id="path-2" class="cls-3" fill-rule="evenodd"/>
    <path d="M173.523,122.356 C173.523,165.796 138.309,201.009 94.868,201.009 C51.426,201.009 16.212,165.796 16.212,122.356 C16.212,78.916 51.426,43.703 94.868,43.703 C94.868,43.703 94.868,122.356 94.868,122.356 C94.868,122.356 173.523,122.356 173.523,122.356 Z" id="path-3" class="cls-5" fill-rule="evenodd"/>
    <path d="M217.220,104.877 C217.220,46.955 170.271,0.007 112.347,0.007 C112.347,0.007 112.347,104.877 112.347,104.877 C112.347,104.877 217.220,104.877 217.220,104.877 Z" id="path-4" class="cls-6" fill-rule="evenodd"/>
    <path d="M86.827,122.356 C86.827,122.356 94.868,122.356 94.868,122.356 C94.868,122.356 94.868,43.703 94.868,43.703 C92.153,43.703 89.471,43.855 86.827,44.155 C86.827,44.155 86.827,122.356 86.827,122.356 Z" id="path-5" class="cls-7" fill-rule="evenodd"/>
    <path d="M165.077,122.356 C161.050,162.017 127.554,192.968 86.827,192.968 C67.154,192.968 49.214,185.698 35.421,173.761 C49.844,190.422 71.099,201.009 94.868,201.009 C138.309,201.009 173.523,165.795 173.523,122.356 C173.523,122.356 165.077,122.356 165.077,122.356 Z" id="path-6" class="cls-7" fill-rule="evenodd"/>
    <path d="M182.367,26.819 C199.032,45.386 209.180,69.922 209.180,96.838 C209.180,96.838 112.347,96.838 112.347,96.838 C112.347,96.838 112.347,104.877 112.347,104.877 C112.347,104.877 217.221,104.877 217.221,104.877 C217.221,73.871 203.757,46.018 182.367,26.819 Z" id="path-7" class="cls-7" fill-rule="evenodd"/>
  </g>
</svg>
