<svg xmlns="http://www.w3.org/2000/svg" xmlns:xlink="http://www.w3.org/1999/xlink" preserveAspectRatio="xMidYMid" width="218" height="160" viewBox="0 0 218 160">
  <defs>
    <style>

      .cls-3 {
        fill: #fbb713;
      }

      .cls-5 {
        fill: #ff3a2f;
      }

      .cls-10 {
        fill: #000000;
        opacity: 0.35;
      }
    </style>
  </defs>
  <g id="group-147svg">
    <path d="M52.417,134.840 C52.417,134.840 37.236,134.840 37.236,134.840 C34.309,134.840 31.937,136.635 31.937,138.850 C31.937,141.066 34.309,142.862 37.236,142.862 C37.236,142.862 37.943,142.862 37.943,142.862 C40.870,142.862 43.243,144.658 43.243,146.873 C43.243,149.087 40.870,150.883 37.943,150.883 C37.943,150.883 5.310,150.883 5.310,150.883 C2.384,150.883 0.011,152.680 0.011,154.895 C0.011,157.110 2.384,158.906 5.310,158.906 C5.310,158.906 44.526,158.906 44.526,158.906 C44.526,158.906 124.684,158.906 124.684,158.906 C127.610,158.906 129.983,157.110 129.983,154.895 C129.983,152.680 127.610,150.883 124.684,150.883 C124.684,150.883 115.627,150.883 115.627,150.883 C112.700,150.883 110.327,149.087 110.327,146.873 C110.327,144.658 112.700,142.862 115.627,142.862 C115.627,142.862 151.197,142.862 151.197,142.862 C154.124,142.862 156.497,141.066 156.497,138.850 C156.497,136.635 154.124,134.840 151.197,134.840 C151.197,134.840 148.543,134.840 148.543,134.840 C148.543,134.840 52.417,134.840 52.417,134.840 Z" id="path-1" class="cls-3" fill-rule="evenodd"/>
    <path d="M146.563,159.979 C144.109,159.979 142.120,158.055 142.120,155.680 C142.120,153.306 144.109,151.382 146.563,151.382 C146.563,151.382 160.179,151.382 160.179,151.382 C162.632,151.382 164.622,153.306 164.622,155.680 C164.622,158.055 162.632,159.979 160.179,159.979 C160.179,159.979 146.563,159.979 146.563,159.979 Z" id="path-2" class="cls-3" fill-rule="evenodd"/>
    <path d="M174.935,123.409 C174.024,123.409 173.093,123.235 172.196,122.868 C172.196,122.868 111.308,97.957 111.308,97.957 C107.610,96.443 105.836,92.215 107.352,88.514 C108.865,84.815 113.087,83.037 116.796,84.554 C116.796,84.554 177.683,109.465 177.683,109.465 C181.381,110.980 183.156,115.207 181.639,118.909 C180.494,121.713 177.789,123.409 174.935,123.409 Z" id="path-3" class="cls-5" fill-rule="evenodd"/>
    <path d="M114.056,63.458 C111.178,63.458 108.455,61.731 107.324,58.892 C105.846,55.179 107.660,50.966 111.372,49.488 C111.372,49.488 164.887,28.180 164.887,28.180 C168.610,26.701 172.810,28.513 174.296,32.229 C175.774,35.942 173.960,40.155 170.247,41.633 C170.247,41.633 116.732,62.941 116.732,62.941 C115.852,63.291 114.947,63.458 114.056,63.458 Z" id="path-4" class="cls-5" fill-rule="evenodd"/>
    <path d="M174.939,140.152 C184.616,149.828 200.304,149.828 209.981,140.152 C219.658,130.476 219.658,114.787 209.981,105.111 C200.304,95.433 184.616,95.433 174.939,105.111 C165.262,114.786 165.262,130.476 174.939,140.152 Z" id="path-5" class="cls-5" fill-rule="evenodd"/>
    <path d="M167.567,42.278 C177.244,51.954 192.933,51.954 202.609,42.278 C212.286,32.602 212.287,16.913 202.609,7.237 C192.932,-2.440 177.244,-2.440 167.567,7.237 C157.890,16.913 157.890,32.602 167.567,42.278 Z" id="path-6" class="cls-5" fill-rule="evenodd"/>
    <path d="M75.796,98.155 C89.283,111.641 111.149,111.641 124.636,98.155 C138.123,84.668 138.123,62.803 124.636,49.315 C111.149,35.829 89.283,35.829 75.796,49.315 C62.309,62.803 62.309,84.668 75.796,98.155 Z" id="path-7" class="cls-5" fill-rule="evenodd"/>
    <path d="M209.981,105.111 C209.358,104.488 208.710,103.908 208.039,103.367 C215.929,113.097 215.350,127.412 206.296,136.466 C197.242,145.520 182.926,146.100 173.194,138.210 C173.737,138.879 174.316,139.529 174.939,140.152 C184.616,149.828 200.304,149.828 209.981,140.152 C219.658,130.476 219.658,114.786 209.981,105.111 Z" id="path-8" class="cls-10" fill-rule="evenodd"/>
    <path d="M202.609,7.237 C201.987,6.613 201.338,6.034 200.669,5.492 C208.557,15.223 207.978,29.538 198.923,38.592 C189.870,47.646 175.554,48.225 165.822,40.337 C166.365,41.006 166.944,41.656 167.567,42.278 C177.244,51.954 192.933,51.954 202.609,42.278 C212.286,32.602 212.286,16.913 202.609,7.237 Z" id="path-9" class="cls-10" fill-rule="evenodd"/>
    <path d="M124.637,49.315 C124.013,48.693 123.356,48.130 122.700,47.566 C134.378,61.134 133.815,81.604 120.950,94.469 C108.086,107.334 87.614,107.895 74.045,96.219 C74.610,96.874 75.174,97.532 75.795,98.154 C89.283,111.641 111.149,111.641 124.637,98.154 C138.123,84.668 138.123,62.803 124.637,49.315 Z" id="path-10" class="cls-10" fill-rule="evenodd"/>
  </g>
</svg>
