<svg xmlns="http://www.w3.org/2000/svg" xmlns:xlink="http://www.w3.org/1999/xlink" preserveAspectRatio="xMidYMid" width="217" height="199" viewBox="0 0 217 199">
  <defs>
    <style>

      .cls-3 {
        fill: #142a3b;
      }

      .cls-6 {
        fill: #ff3a2f;
      }

      .cls-7 {
        fill: #090908;
        opacity: 0.35;
      }

      .cls-8 {
        fill: #0cb04a;
      }
    </style>
  </defs>
  <g id="group-30svg">
    <path d="M106.217,174.748 C106.217,174.748 91.075,174.748 91.075,174.748 C88.156,174.748 85.789,176.442 85.789,178.533 C85.789,180.623 88.156,182.318 91.075,182.318 C91.075,182.318 91.779,182.318 91.779,182.318 C94.699,182.318 97.066,184.012 97.066,186.103 C97.066,188.194 94.699,189.889 91.779,189.889 C91.779,189.889 59.229,189.889 59.229,189.889 C56.310,189.889 53.943,191.583 53.943,193.673 C53.943,195.764 56.310,197.459 59.229,197.459 C59.229,197.459 98.346,197.459 98.346,197.459 C98.346,197.459 178.300,197.459 178.300,197.459 C181.220,197.459 183.587,195.764 183.587,193.673 C183.587,191.583 181.220,189.889 178.300,189.889 C178.300,189.889 169.267,189.889 169.267,189.889 C166.348,189.889 163.981,188.194 163.981,186.103 C163.981,184.012 166.348,182.318 169.267,182.318 C169.267,182.318 204.747,182.318 204.747,182.318 C207.667,182.318 210.034,180.623 210.034,178.533 C210.034,176.442 207.667,174.748 204.747,174.748 C204.747,174.748 202.099,174.748 202.099,174.748 C202.099,174.748 106.217,174.748 106.217,174.748 Z" id="path-1" class="cls-3" fill-rule="evenodd"/>
    <path d="M199.213,198.473 C196.765,198.473 194.781,196.656 194.781,194.415 C194.781,192.176 196.765,190.359 199.213,190.359 C199.213,190.359 212.794,190.359 212.794,190.359 C215.242,190.359 217.226,192.176 217.226,194.415 C217.226,196.656 215.242,198.473 212.794,198.473 C212.794,198.473 199.213,198.473 199.213,198.473 Z" id="path-2" class="cls-3" fill-rule="evenodd"/>
    <path d="M27.919,198.473 C25.471,198.473 23.486,196.656 23.486,194.415 C23.486,192.176 25.471,190.359 27.919,190.359 C27.919,190.359 41.498,190.359 41.498,190.359 C43.947,190.359 45.931,192.176 45.931,194.415 C45.931,196.656 43.947,198.473 41.498,198.473 C41.498,198.473 27.919,198.473 27.919,198.473 Z" id="path-3" class="cls-3" fill-rule="evenodd"/>
    <path d="M143.432,176.562 C143.432,176.562 15.935,176.562 15.935,176.562 C15.935,176.562 15.935,61.783 15.935,61.783 C15.935,61.783 143.432,61.783 143.432,61.783 C143.432,61.783 143.432,176.562 143.432,176.562 Z" id="path-4" class="cls-6" fill-rule="evenodd"/>
    <path d="M81.216,66.022 C81.216,66.022 70.877,66.022 70.877,66.022 C70.877,66.022 70.877,176.562 70.877,176.562 C70.877,176.562 81.216,176.562 81.216,176.562 C81.216,176.562 81.216,66.022 81.216,66.022 Z" id="path-5" class="cls-7" fill-rule="evenodd"/>
    <path d="M84.853,66.022 C84.853,66.022 74.514,66.022 74.514,66.022 C74.514,66.022 74.514,176.562 74.514,176.562 C74.514,176.562 84.853,176.562 84.853,176.562 C84.853,176.562 84.853,66.022 84.853,66.022 Z" id="path-6" class="cls-8" fill-rule="evenodd"/>
    <path d="M120.669,3.693 C113.725,-3.251 99.322,-0.105 88.498,10.719 C84.435,14.782 81.455,19.349 79.683,23.836 C77.912,19.349 74.931,14.782 70.868,10.719 C60.045,-0.105 45.641,-3.251 38.698,3.693 C31.753,10.636 34.899,25.040 45.723,35.863 C56.547,46.687 70.950,49.833 77.894,42.888 C78.604,42.180 79.181,41.374 79.683,40.520 C80.185,41.374 80.762,42.180 81.472,42.888 C88.416,49.833 102.819,46.687 113.643,35.863 C124.467,25.040 127.613,10.636 120.669,3.693 ZM77.784,42.778 C74.056,46.506 65.348,43.841 58.333,36.825 C51.317,29.809 48.652,21.102 52.379,17.374 C56.107,13.647 64.815,16.313 71.830,23.328 C74.518,26.015 76.552,28.948 77.848,31.756 C77.663,34.709 78.108,37.447 79.253,39.763 C79.018,40.937 78.575,41.987 77.784,42.778 ZM101.034,36.825 C94.019,43.841 85.310,46.506 81.583,42.778 C80.792,41.987 80.348,40.937 80.114,39.763 C81.258,37.447 81.703,34.709 81.519,31.756 C82.814,28.948 84.849,26.015 87.536,23.328 C94.552,16.313 103.260,13.647 106.987,17.374 C110.715,21.102 108.049,29.809 101.034,36.825 Z" id="path-7" class="cls-8" fill-rule="evenodd"/>
    <path d="M107.009,28.504 C105.851,30.980 104.070,33.536 101.826,35.944 C101.826,35.944 113.557,35.944 113.557,35.944 C113.585,35.916 113.615,35.892 113.643,35.863 C115.967,33.540 117.913,31.048 119.505,28.504 C119.505,28.504 107.009,28.504 107.009,28.504 Z" id="path-8" class="cls-7" fill-rule="evenodd"/>
    <path d="M81.519,31.756 C82.014,30.683 82.649,29.593 83.355,28.504 C83.355,28.504 76.011,28.504 76.011,28.504 C76.718,29.593 77.353,30.683 77.848,31.756 C77.757,33.214 77.822,34.617 78.046,35.944 C78.046,35.944 81.321,35.944 81.321,35.944 C81.545,34.617 81.610,33.214 81.519,31.756 Z" id="path-9" class="cls-7" fill-rule="evenodd"/>
    <path d="M53.516,30.980 C53.516,30.980 41.915,31.477 41.915,31.477 C43.507,34.021 43.400,33.540 45.723,35.863 C45.752,35.892 45.781,35.916 45.810,35.944 C45.810,35.944 57.541,35.944 57.541,35.944 C55.297,33.536 54.673,33.456 53.516,30.980 Z" id="path-10" class="cls-7" fill-rule="evenodd"/>
    <path d="M159.369,78.733 C159.369,78.733 -0.003,78.733 -0.003,78.733 C-0.003,78.733 -0.003,35.944 -0.003,35.944 C-0.003,35.944 159.369,35.944 159.369,35.944 C159.369,35.944 159.369,78.733 159.369,78.733 Z" id="path-11" class="cls-6" fill-rule="evenodd"/>
    <path d="M143.236,99.702 C143.236,99.702 15.931,85.155 15.931,85.155 C15.931,85.155 15.931,78.732 15.931,78.732 C15.931,78.732 143.236,78.732 143.236,78.732 C143.236,78.732 143.236,99.702 143.236,99.702 Z" id="path-12" class="cls-7" fill-rule="evenodd"/>
  </g>
</svg>
