<svg xmlns="http://www.w3.org/2000/svg" xmlns:xlink="http://www.w3.org/1999/xlink" preserveAspectRatio="xMidYMid" width="199" height="219" viewBox="0 0 199 219">
  <defs>
    <style>

      .cls-3 {
        fill: #2476ff;
      }

      .cls-7 {
        fill: #ffffff;
      }

      .cls-10 {
        fill: #ff3a2f;
      }

      .cls-12 {
        fill: #142a3b;
      }

      .cls-13 {
        fill: #0cb04a;
      }

      .cls-14 {
        fill: #020403;
        opacity: 0.35;
      }
    </style>
  </defs>
  <g id="group-144svg">
    <path d="M86.213,187.580 C86.213,187.580 98.993,187.580 98.993,187.580 C101.457,187.580 103.454,188.834 103.454,190.380 C103.454,191.927 101.457,193.180 98.993,193.180 C98.993,193.180 98.399,193.180 98.399,193.180 C95.934,193.180 93.936,194.433 93.936,195.981 C93.936,197.527 95.934,198.780 98.399,198.780 C98.399,198.780 125.872,198.780 125.872,198.780 C128.336,198.780 130.333,200.034 130.333,201.582 C130.333,203.128 128.336,204.382 125.872,204.382 C125.872,204.382 92.855,204.382 92.855,204.382 C92.855,204.382 56.567,204.382 56.567,204.382 C54.104,204.382 52.107,203.128 52.107,201.582 C52.107,200.034 54.104,198.780 56.567,198.780 C56.567,198.780 64.193,198.780 64.193,198.780 C66.657,198.780 68.655,197.527 68.655,195.981 C68.655,194.433 66.657,193.180 64.193,193.180 C64.193,193.180 27.905,193.180 27.905,193.180 C25.440,193.180 23.443,191.927 23.443,190.380 C23.443,188.834 25.440,187.580 27.905,187.580 C27.905,187.580 36.480,187.580 36.480,187.580 C36.480,187.580 86.213,187.580 86.213,187.580 Z" id="path-1" class="cls-3" fill-rule="evenodd"/>
    <path d="M164.468,206.468 C167.435,206.468 169.839,204.587 169.839,202.267 C169.839,199.946 167.435,198.067 164.468,198.067 C164.468,198.067 148.009,198.067 148.009,198.067 C145.043,198.067 142.639,199.946 142.639,202.267 C142.639,204.587 145.043,206.468 148.009,206.468 C148.009,206.468 164.468,206.468 164.468,206.468 Z" id="path-2" class="cls-3" fill-rule="evenodd"/>
    <path d="M35.439,217.680 C39.135,217.680 42.131,215.798 42.131,213.480 C42.131,211.160 39.135,209.278 35.439,209.278 C35.439,209.278 14.930,209.278 14.930,209.278 C11.234,209.278 8.238,211.160 8.238,213.480 C8.238,215.798 11.234,217.680 14.930,217.680 C14.930,217.680 35.439,217.680 35.439,217.680 Z" id="path-3" class="cls-3" fill-rule="evenodd"/>
    <path d="M22.330,114.127 C22.330,120.240 17.327,125.196 11.157,125.196 C4.986,125.196 -0.015,120.240 -0.015,114.127 C-0.015,108.014 4.986,103.060 11.157,103.060 C17.327,103.060 22.330,108.014 22.330,114.127 Z" id="path-4" class="cls-3" fill-rule="evenodd"/>
    <path d="M16.207,110.394 C16.207,113.156 13.946,115.397 11.157,115.397 C8.368,115.397 6.107,113.156 6.107,110.394 C6.107,107.631 8.368,105.391 11.157,105.391 C13.946,105.391 16.207,107.631 16.207,110.394 Z" id="path-5" class="cls-7" fill-rule="evenodd"/>
    <path d="M18.386,36.405 C18.386,40.359 15.150,43.565 11.157,43.565 C7.165,43.565 3.929,40.359 3.929,36.405 C3.929,32.450 7.165,29.243 11.157,29.243 C15.150,29.243 18.386,32.450 18.386,36.405 Z" id="path-6" class="cls-3" fill-rule="evenodd"/>
    <path d="M61.577,6.540 C61.577,9.387 59.249,11.693 56.377,11.693 C53.505,11.693 51.176,9.387 51.176,6.540 C51.176,3.695 53.505,1.389 56.377,1.389 C59.249,1.389 61.577,3.695 61.577,6.540 Z" id="path-7" class="cls-3" fill-rule="evenodd"/>
    <path d="M34.490,82.117 C34.490,82.117 25.037,82.117 25.037,82.117 C25.037,82.117 25.037,53.908 25.037,53.908 C25.037,53.908 34.490,53.908 34.490,53.908 C34.490,53.908 34.490,82.117 34.490,82.117 Z" id="path-8" class="cls-10" fill-rule="evenodd"/>
    <path d="M194.836,82.117 C194.836,82.117 181.336,82.117 181.336,82.117 C181.336,82.117 181.336,53.908 181.336,53.908 C181.336,53.908 194.836,53.908 194.836,53.908 C194.836,53.908 194.836,82.117 194.836,82.117 Z" id="path-9" class="cls-10" fill-rule="evenodd"/>
    <path d="M34.490,52.823 C34.490,52.823 34.490,83.202 34.490,83.202 C34.490,91.592 41.356,98.393 49.825,98.393 C49.825,98.393 82.205,98.393 82.205,98.393 C87.683,98.393 92.745,95.499 95.484,90.799 C95.484,90.799 95.484,90.799 95.484,90.799 C101.386,80.671 116.140,80.671 122.042,90.799 C122.042,90.799 122.042,90.799 122.042,90.799 C124.781,95.499 129.843,98.393 135.321,98.393 C135.321,98.393 167.702,98.393 167.702,98.393 C176.170,98.393 183.036,91.592 183.036,83.202 C183.036,83.202 183.036,52.823 183.036,52.823 C183.036,44.435 176.170,37.634 167.702,37.634 C167.702,37.634 49.825,37.634 49.825,37.634 C41.356,37.634 34.490,44.435 34.490,52.823 Z" id="path-10" class="cls-12" fill-rule="evenodd"/>
    <path d="M47.593,59.357 C47.593,59.357 47.593,76.670 47.593,76.670 C47.593,81.451 51.505,85.327 56.331,85.327 C56.331,85.327 82.323,85.327 82.323,85.327 C85.445,85.327 88.329,83.677 89.889,80.998 C89.889,80.998 97.427,80.998 97.427,80.998 C100.791,75.227 116.736,75.227 120.100,80.998 C120.100,80.998 127.635,80.998 127.635,80.998 C129.197,83.677 139.618,85.327 142.740,85.327 C142.740,85.327 161.195,85.327 161.195,85.327 C166.021,85.327 169.934,81.451 169.934,76.670 C169.934,76.670 169.934,59.357 169.934,59.357 C169.934,54.574 166.021,50.700 161.195,50.700 C161.195,50.700 56.331,50.700 56.331,50.700 C51.505,50.700 47.593,54.574 47.593,59.357 Z" id="path-11" class="cls-13" fill-rule="evenodd"/>
    <path d="M161.195,50.700 C161.195,50.700 56.331,50.700 56.331,50.700 C53.354,50.700 50.733,52.180 49.155,54.433 C49.155,54.433 153.658,54.433 153.658,54.433 C158.485,54.433 162.397,58.308 162.397,63.089 C162.397,63.089 162.397,80.402 162.397,80.402 C162.397,82.235 161.815,83.928 160.835,85.327 C160.835,85.327 161.195,85.327 161.195,85.327 C166.021,85.327 169.934,81.451 169.934,76.670 C169.934,76.670 169.934,59.357 169.934,59.357 C169.934,54.575 166.021,50.700 161.195,50.700 Z" id="path-12" class="cls-14" fill-rule="evenodd"/>
    <path d="M151.568,193.877 C125.470,193.877 104.241,172.842 104.241,146.991 C104.241,144.999 105.869,143.385 107.880,143.385 C109.892,143.385 111.519,144.999 111.519,146.991 C111.519,168.869 129.486,186.668 151.568,186.668 C173.653,186.668 191.620,168.869 191.620,146.991 C191.620,146.991 191.620,3.620 191.620,3.620 C191.620,1.630 193.248,0.015 195.259,0.015 C197.271,0.015 198.898,1.630 198.898,3.620 C198.898,3.620 198.898,146.991 198.898,146.991 C198.898,172.842 177.666,193.877 151.568,193.877 Z" id="path-13" class="cls-12" fill-rule="evenodd"/>
    <path d="M109.734,148.256 C125.032,148.256 137.434,135.971 137.434,120.817 C137.434,120.817 82.035,120.817 82.035,120.817 C82.035,135.971 94.436,148.256 109.734,148.256 Z" id="path-14" class="cls-10" fill-rule="evenodd"/>
    <path d="M125.843,120.816 C124.001,134.201 112.446,144.523 98.429,144.523 C97.473,144.523 96.527,144.475 95.596,144.381 C99.738,146.827 104.562,148.256 109.734,148.256 C125.032,148.256 137.434,135.971 137.434,120.816 C137.434,120.816 125.843,120.816 125.843,120.816 Z" id="path-15" class="cls-14" fill-rule="evenodd"/>
    <path d="M94.686,128.312 C94.686,130.201 93.140,131.734 91.233,131.734 C89.324,131.734 87.779,130.201 87.779,128.312 C87.779,126.421 89.324,124.889 91.233,124.889 C93.140,124.889 94.686,126.421 94.686,128.312 Z" id="path-16" class="cls-7" fill-rule="evenodd"/>
    <path d="M103.713,135.776 C103.713,138.482 101.500,140.675 98.769,140.675 C96.038,140.675 93.825,138.482 93.825,135.776 C93.825,133.073 96.038,130.881 98.769,130.881 C101.500,130.881 103.713,133.073 103.713,135.776 Z" id="path-17" class="cls-7" fill-rule="evenodd"/>
    <path d="M59.516,83.921 C58.937,83.921 58.368,83.647 58.013,83.136 C57.447,82.314 57.661,81.193 58.489,80.631 C58.489,80.631 93.659,56.798 93.659,56.798 C94.483,56.239 95.617,56.447 96.189,57.268 C96.755,58.090 96.541,59.211 95.712,59.773 C95.712,59.773 60.543,83.605 60.543,83.605 C60.230,83.818 59.872,83.921 59.516,83.921 Z" id="path-18" class="cls-7" fill-rule="evenodd"/>
    <path d="M63.517,69.817 C62.938,69.817 62.370,69.542 62.014,69.031 C61.449,68.210 61.663,67.088 62.491,66.527 C62.491,66.527 76.847,56.798 76.847,56.798 C77.672,56.239 78.804,56.447 79.377,57.268 C79.942,58.090 79.729,59.211 78.901,59.773 C78.901,59.773 64.543,69.502 64.543,69.502 C64.231,69.715 63.873,69.817 63.517,69.817 Z" id="path-19" class="cls-7" fill-rule="evenodd"/>
  </g>
</svg>
