<svg xmlns="http://www.w3.org/2000/svg" preserveAspectRatio="xMidYMid" width="217" height="152" viewBox="0 0 217 152"><defs><style>.cls-3{fill:#0cb04a}.cls-5{fill:#fbb713}.cls-6{fill:#000;opacity:.35}.cls-14{fill:#ededed}</style></defs><g id="group-127svg" fill-rule="evenodd"><path d="M115.417 151.695h15.615c3.01 0 5.452-1.848 5.452-4.127 0-2.278-2.44-4.126-5.452-4.126h-.726c-3.01 0-5.452-1.847-5.452-4.126 0-2.28 2.44-4.126 5.452-4.126h33.57c3.01 0 5.45-1.847 5.45-4.125 0-2.28-2.44-4.126-5.45-4.126h-122.8c-3.01 0-5.452 1.843-5.452 4.123 0 2.278 2.44 4.125 5.452 4.125h9.316c3.01 0 5.452 1.846 5.452 4.125 0 2.28-2.44 4.126-5.452 4.126h-36.59c-3.012 0-5.452 1.85-5.452 4.126 0 2.28 2.44 4.127 5.45 4.127h101.617z" id="path-1" class="cls-3"/><path d="M18.57 125.835c2.523 0 4.57 1.98 4.57 4.42 0 2.443-2.047 4.423-4.57 4.423H4.562c-2.524 0-4.57-1.98-4.57-4.424 0-2.44 2.046-4.42 4.57-4.42H18.57z" id="path-2" class="cls-3"/><path d="M217.19 91.347c-.34-15.854-41.516-20.103-65.903-20.103-24.386 0-65.563 4.25-65.902 20.103h-.03v20.475c0 15.978 41.445 20.237 65.932 20.237 24.488 0 65.934-4.286 65.934-20.334v-20.38h-.03z" id="path-3" class="cls-5"/><path d="M217.19 91.347c-.34-15.854-41.516-20.103-65.903-20.103-24.386 0-65.563 4.25-65.902 20.103h-.03v20.475c0 15.978 41.445 20.237 65.932 20.237 24.488 0 65.934-4.286 65.934-20.334v-20.38h-.03z" id="path-4" class="cls-6"/><path d="M151.287 111.818c-24.487 0-65.933-4.27-65.933-20.282 0-16.017 41.446-20.292 65.933-20.292 24.488 0 65.933 4.275 65.933 20.292 0 16.013-41.445 20.282-65.933 20.282z" id="path-5" class="cls-5"/><path d="M191.992 54.34c-.34-15.854-41.515-20.1-65.902-20.1-24.386 0-65.563 4.246-65.9 20.1h-.033v20.475c0 15.978 41.446 20.238 65.933 20.238 24.488 0 65.934-4.284 65.934-20.332V54.34h-.032z" id="path-6" class="cls-5"/><path d="M191.992 54.34c-.34-15.854-41.515-20.1-65.902-20.1-24.386 0-65.563 4.246-65.9 20.1h-.033v20.475c0 15.978 41.446 20.238 65.933 20.238 24.488 0 65.934-4.284 65.934-20.332V54.34h-.032z" id="path-7" class="cls-6"/><path d="M126.09 74.81c-24.487 0-65.933-4.27-65.933-20.28 0-16.017 41.446-20.29 65.933-20.29 24.488 0 65.934 4.273 65.934 20.29 0 16.01-41.446 20.28-65.934 20.28z" id="path-8" class="cls-5"/><path d="M164.04 20.09C163.7 4.236 122.524-.013 98.138-.013c-24.387 0-65.563 4.25-65.902 20.103h-.032v20.474c0 15.98 41.446 20.238 65.934 20.238 24.487 0 65.933-4.284 65.933-20.33V20.09h-.03z" id="path-9" class="cls-5"/><path d="M164.04 20.09C163.7 4.236 122.524-.013 98.138-.013c-24.387 0-65.563 4.25-65.902 20.103h-.032v20.474c0 15.98 41.446 20.238 65.934 20.238 24.487 0 65.933-4.284 65.933-20.33V20.09h-.03z" id="path-10" class="cls-6"/><path d="M98.138 40.56c-24.488 0-65.934-4.268-65.934-20.282 0-16.016 41.446-20.29 65.934-20.29 24.487 0 65.933 4.274 65.933 20.29 0 16.014-41.443 20.282-65.93 20.282z" id="path-11" class="cls-5"/><path d="M48.673 28.516c-2 0-3.62-1.62-3.62-3.62C45.053 7.3 85.988 5.93 98.533 5.93a3.62 3.62 0 1 1 0 7.24c-25.496 0-46.24 5.26-46.24 11.726 0 2-1.62 3.62-3.62 3.62z" id="path-12" class="cls-14"/></g></svg>