<svg xmlns="http://www.w3.org/2000/svg" preserveAspectRatio="xMidYMid" width="217" height="134" viewBox="0 0 217 134"><defs><style>.cls-3{fill:#0cb04a}.cls-5{fill:#ff3a2f}.cls-6{fill:#142a3b}</style></defs><g id="group-150svg" fill-rule="evenodd"><path d="M111.74 133.96h15.12c2.914 0 5.277-1.786 5.277-3.99 0-2.206-2.363-3.994-5.278-3.994h-.71c-2.92 0-5.28-1.786-5.28-3.99 0-2.205 2.36-3.993 5.28-3.993h32.5c2.912 0 5.28-1.786 5.28-3.992 0-2.2-2.367-3.99-5.28-3.99H39.764c-2.914 0-5.278 1.79-5.278 4S36.85 118 39.764 118h9.02c2.915 0 5.278 1.787 5.278 3.992 0 2.204-2.363 3.99-5.278 3.99H13.362c-2.916 0-5.28 1.788-5.28 3.994 0 2.204 2.364 3.99 5.28 3.99h98.38z" id="path-1" class="cls-3"/><path d="M17.977 108.94c2.444 0 4.425 1.914 4.425 4.278 0 2.363-1.98 4.278-4.425 4.278H4.417c-2.444 0-4.425-1.915-4.425-4.278 0-2.364 1.98-4.28 4.425-4.28h13.56z" id="path-2" class="cls-3"/><path d="M62.777 106.456c-10.593 0-20.907-5.49-26.575-15.297l-1.314-2.29c-4.09-7.077-5.176-15.33-3.06-23.23 2.12-7.9 7.186-14.5 14.274-18.59l59.166-34.14c14.627-8.43 33.39-3.41 41.837 11.208l1.315 2.272c4.09 7.085 5.18 15.334 3.058 23.235-2.118 7.9-7.184 14.5-14.273 18.586l-5.23 3.02-7.24-12.54 5.233-3.02a16.036 16.036 0 0 0 7.523-9.796 16 16 0 0 0-1.61-12.24l-1.31-2.27c-4.45-7.71-14.35-10.35-22.06-5.907L53.34 59.605a16.03 16.03 0 0 0-7.524 9.795 16.02 16.02 0 0 0 1.612 12.24l1.316 2.28c4.447 7.7 14.337 10.35 22.058 5.9L84.02 82.2l7.23 12.543-13.218 7.625a30.452 30.452 0 0 1-15.26 4.094z" id="path-3" class="cls-5"/><path d="M127.47 97.635c-10.595 0-20.91-5.49-26.576-15.3l-1.312-2.27c-4.094-7.084-5.18-15.337-3.062-23.237 2.12-7.898 7.185-14.5 14.274-18.588l5.236-3.02c3.458-2.003 7.89-.814 9.89 2.653a7.24 7.24 0 0 1-2.656 9.89l-5.236 3.022a16.038 16.038 0 0 0-7.52 9.796 16.01 16.01 0 0 0 1.612 12.24l1.315 2.27c4.454 7.72 14.35 10.36 22.062 5.91l59.165-34.14a16.027 16.027 0 0 0 7.524-9.79 16.018 16.018 0 0 0-1.612-12.24l-1.315-2.27c-4.46-7.71-14.35-10.36-22.07-5.91l-13.21 7.627a7.24 7.24 0 0 1-9.89-2.65 7.243 7.243 0 0 1 2.65-9.89l13.21-7.627c14.64-8.448 33.4-3.418 41.846 11.2l1.31 2.267c4.094 7.087 5.18 15.338 3.062 23.238-2.12 7.898-7.185 14.5-14.275 18.588l-59.17 34.14a30.47 30.47 0 0 1-15.265 4.1z" id="path-4" class="cls-6"/></g></svg>