<svg xmlns="http://www.w3.org/2000/svg" preserveAspectRatio="xMidYMid" width="216" height="220" viewBox="0 0 216 220"><defs><style>.cls-3{fill:#142a3b}.cls-4{fill:#020403;opacity:.35}.cls-5{fill:#0cb04a}.cls-6{fill:#fff}.cls-8{fill:#ff3a2f}</style></defs><g id="group-110svg" fill-rule="evenodd"><path d="M188.97 198.23c-4.557.97-37.848-16.057-42.77-16.057-31.497 0-57.026-21.166-57.026-47.273 0-26.11 25.53-47.275 57.026-47.275 31.49 0 57.03 21.165 57.03 47.275 0 14.928-8.35 28.24-21.385 36.904-1.425.94-1.404 2.76-.612 5.015l7.737 21.41z" id="path-1" class="cls-3"/><path d="M146.2 87.625c-31.497 0-57.026 21.165-57.026 47.275 0 12.64 6.02 24.094 15.768 32.576.716-.164 1.325-.262 1.77-.262 42.366 0 78.03-23.706 88.802-55.982-9.87-14.1-28.236-23.607-49.314-23.607z" id="path-2" class="cls-4"/><path d="M23.038 178.745c7.365 1.567 61.164-25.95 69.118-25.95 50.9 0 92.156-34.203 92.156-76.393 0-42.193-41.256-76.398-92.156-76.398-50.89 0-92.16 34.205-92.16 76.398 0 24.124 13.493 45.636 34.557 59.638 2.303 1.52 2.268 4.46.99 8.102l-12.505 34.603z" id="path-3" class="cls-5"/><path d="M24.67 78.205c-3.017 0-5.46-2.422-5.46-5.408 0-29.205 28.185-52.967 62.83-52.967 3.015 0 5.458 2.422 5.458 5.407 0 2.987-2.443 5.407-5.46 5.407-28.623 0-51.91 18.91-51.91 42.153 0 2.986-2.444 5.408-5.46 5.408z" id="path-4" class="cls-6"/><path d="M157.055 22.17c10.295 12.33 16.34 27.284 16.34 43.417 0 42.19-41.257 76.392-92.155 76.392-5.578 0-33.684 13.52-52.53 21.062l-5.672 15.698c7.365 1.568 61.164-25.95 69.118-25.95 50.9 0 92.156-34.202 92.156-76.392 0-21.207-10.427-40.39-27.257-54.233z" id="path-5" class="cls-4"/><path d="M80.647 219.265c2.725 0 4.934-.94 4.934-2.1 0-1.16-2.203-2.1-4.93-2.1H65.53c-2.726 0-4.935.94-4.935 2.1 0 1.16 2.21 2.1 4.934 2.1h15.12z" id="path-6" class="cls-8"/><path d="M41.343 185.68h4.492c.867 0 1.57.91 1.57 2.03 0 1.122-.703 2.03-1.57 2.03h-.208c-.867 0-1.57.91-1.57 2.03 0 1.123.703 2.033 1.57 2.033h9.657c.866 0 1.57.908 1.57 2.03 0 1.12-.704 2.03-1.57 2.03h-35.33c-.865 0-1.567-.91-1.567-2.03 0-1.122.702-2.03 1.568-2.03h2.68c.867 0 1.57-.91 1.57-2.032 0-1.12-.703-2.03-1.57-2.03H9.88c-.867 0-1.57-.903-1.57-2.03 0-1.12.703-2.03 1.57-2.03h31.464z" id="path-7" class="cls-8"/><path d="M9.833 197.973c1.07 0 1.94-.636 1.94-1.415 0-.783-.87-1.416-1.94-1.416H3.886c-1.072 0-1.94.633-1.94 1.416 0 .78.868 1.415 1.94 1.415h5.947z" id="path-8" class="cls-8"/><path d="M175.316 201.027h11.422c2.202 0 3.987 1.348 3.987 3.01 0 1.666-1.785 3.015-3.987 3.015h-.53c-2.204 0-3.99 1.35-3.99 3.012 0 1.665 1.786 3.013 3.99 3.013h24.553c2.208 0 3.99 1.35 3.99 3.013 0 1.664-1.782 3.012-3.99 3.012h-89.82c-2.2 0-3.985-1.348-3.985-3.012s1.786-3.013 3.988-3.013h6.816c2.202 0 3.987-1.348 3.987-3.013 0-1.663-1.784-3.012-3.987-3.012H95.32c-2.2 0-3.987-1.35-3.987-3.014 0-1.663 1.786-3.01 3.988-3.01h80z" id="path-9" class="cls-8"/></g></svg>