<svg xmlns="http://www.w3.org/2000/svg" preserveAspectRatio="xMidYMid" width="217" height="171" viewBox="0 0 217 171"><defs><style>.cls-3{fill:#ff3a2f}.cls-5{fill:#ededed}.cls-6{fill:#000;opacity:.35}.cls-8{fill:#2476ff}</style></defs><g id="group-135svg" fill-rule="evenodd"><path d="M44.176 149.212H31.38c-2.47 0-4.47 1.513-4.47 3.38 0 1.87 2 3.383 4.47 3.383h.594c2.468 0 4.468 1.513 4.468 3.38 0 1.868-2 3.38-4.468 3.38H4.464c-2.467 0-4.467 1.515-4.467 3.383s2 3.382 4.468 3.382h100.633c2.467 0 4.467-1.514 4.467-3.382s-2-3.382-4.467-3.382h-7.635c-2.468 0-4.468-1.513-4.468-3.38 0-1.868 2-3.38 4.468-3.38h29.986c2.463 0 4.463-1.515 4.463-3.383s-2-3.38-4.467-3.38H44.174z" id="path-1" class="cls-3"/><path d="M123.542 170.404c-2.068 0-3.745-1.62-3.745-3.624 0-2 1.677-3.623 3.745-3.623h11.478c2.07 0 3.746 1.622 3.746 3.623 0 2.003-1.677 3.624-3.746 3.624h-11.478z" id="path-2" class="cls-3"/><path d="M188.117 144.4h-66.73c-6.66 0-16.2-8.462-16.2-14.372V71.115c0-1.307.706-2.513 1.85-3.157 13.31-7.44 20.048-20.654 27.074-40.912V7.636c0-.66.18-1.3.52-1.866 2.195-3.658 5.91-5.754 10.19-5.754 5.267 0 10.606 3.064 14.65 8.41 7.275 9.616 9.075 24.735 5.12 41.97h30.464c6.773 0 22.174 6.978 22.174 18.46 0 3.792-.445 9.56-2.853 12.93 1.9 5.302 2.26 13.89-3.56 19.94.48 10.21-2.096 17.634-7.512 21.694-.09 5.4-2.583 12.01-6.32 16.29-2.675 3.064-5.74 4.69-8.862 4.69z" id="path-3" class="cls-5"/><path d="M214.373 81.785c2.408-3.368 2.852-9.137 2.852-12.93 0-6.02-4.243-10.787-9.25-13.975.09.604.153 1.215.153 1.847 0 3.792-.445 9.56-2.852 12.93 1.9 5.302 2.26 13.89-3.56 19.94.48 10.21-2.096 17.633-7.513 21.693-.092 5.403-2.585 12.012-6.32 16.29-2.677 3.064-5.74 4.69-8.863 4.69h-66.732c-2.202 0-4.717-.94-7.102-2.39v.148c0 5.91 9.54 14.37 16.2 14.37h66.73c3.123 0 6.188-1.624 8.864-4.688 3.736-4.28 6.228-10.89 6.32-16.29 5.416-4.062 7.994-11.483 7.514-21.694 5.82-6.05 5.46-14.638 3.56-19.94z" id="path-4" class="cls-6"/><path d="M153.398 50.397h10.95c2-9.708 6.064-22.595-4.88-41.972-1.277-2.262-3.333-3.79-5.21-5.13 3.845 9.28 2.24 33.582-.86 47.102z" id="path-5" class="cls-6"/><path d="M99.735 151.63H60.02c-6.99 0-12.682-5.685-12.682-12.676v-75.88c0-6.992 5.69-12.677 12.682-12.677h39.715c6.99 0 12.683 5.685 12.683 12.676v75.88c0 6.992-5.692 12.677-12.683 12.677z" id="path-6" class="cls-8"/><path d="M101.505 50.576c1.126 1.893 1.816 4.075 1.816 6.432v75.882c0 6.99-5.69 12.675-12.68 12.675H50.924c-.606 0-1.186-.097-1.77-.18 2.214 3.72 6.234 6.245 10.867 6.245h39.714c6.99 0 12.683-5.685 12.683-12.676v-75.88c0-6.387-4.764-11.628-10.913-12.498z" id="path-7" class="cls-6"/></g></svg>