<svg xmlns="http://www.w3.org/2000/svg" preserveAspectRatio="xMidYMid" width="169" height="218" viewBox="0 0 169 218"><defs><style>.cls-3{fill:#142a3b}.cls-4{fill:#000;opacity:.35}.cls-5{fill:#ededed}.cls-7{fill:#fbb713}.cls-11{fill:#ff3a2f}</style></defs><g id="group-106svg" fill-rule="evenodd"><path d="M168.535 217.225H0V13.63h168.535v203.595z" id="path-1" class="cls-3"/><path d="M157.632 202.642H24.48V41.788h133.152v160.854z" id="path-2" class="cls-4"/><path d="M150.844 195.853H17.69V35h133.154v160.853z" id="path-3" class="cls-5"/><path d="M130.747 56.443H51.365V28.466h79.382v27.977z" id="path-4" class="cls-4"/><path d="M123.96 49.655H44.576V21.678h79.382v27.977z" id="path-5" class="cls-7"/><path d="M105.524 21.26c0 11.738-9.517 21.256-21.256 21.256-11.74 0-21.257-9.518-21.257-21.255C63.01 9.52 72.53.01 84.27.01c11.74 0 21.256 9.517 21.256 21.257z" id="path-6" class="cls-7"/><path d="M92.7 21.26a8.434 8.434 0 1 1-16.867-.003 8.434 8.434 0 0 1 16.868.004z" id="path-7" class="cls-3"/><path d="M88.26 13.873c.645 1.194 1.046 2.54 1.046 3.992a8.432 8.432 0 0 1-8.433 8.433c-1.452 0-2.798-.4-3.99-1.048 1.426 2.634 4.18 4.443 7.384 4.443A8.434 8.434 0 0 0 92.7 21.26c0-3.206-1.808-5.96-4.44-7.387z" id="path-8" class="cls-4"/><path d="M66.402 81.053h-9.07c-1.75 0-3.166.99-3.166 2.216 0 1.22 1.417 2.21 3.166 2.21h.422c1.75 0 3.167.99 3.167 2.214 0 1.226-1.41 2.22-3.16 2.22h-19.5c-1.75 0-3.162.992-3.162 2.22 0 1.222 1.418 2.213 3.167 2.213h71.327c1.748 0 3.166-.99 3.166-2.216 0-1.226-1.42-2.22-3.168-2.22h-5.412c-1.748 0-3.166-.99-3.166-2.217 0-1.225 1.416-2.217 3.165-2.217h21.257c1.75 0 3.167-.995 3.167-2.22s-1.417-2.216-3.166-2.216h-59.03z" id="path-9" class="cls-11"/><path d="M122.656 94.95c-1.466 0-2.655-1.064-2.655-2.376 0-1.313 1.19-2.378 2.66-2.378h8.14c1.467 0 2.656 1.065 2.656 2.378 0 1.312-1.19 2.376-2.655 2.376h-8.134z" id="path-10" class="cls-11"/><path d="M66.402 148.933h-9.07c-1.75 0-3.166.993-3.166 2.217 0 1.225 1.417 2.22 3.166 2.22h.422c1.75 0 3.167.99 3.167 2.216 0 1.224-1.41 2.216-3.16 2.216h-19.5c-1.75 0-3.162.994-3.162 2.218 0 1.225 1.418 2.217 3.167 2.217h71.327c1.748 0 3.166-.992 3.166-2.217 0-1.224-1.42-2.218-3.168-2.218h-5.412c-1.748 0-3.166-.992-3.166-2.216 0-1.225 1.416-2.217 3.165-2.217h21.257c1.75 0 3.167-1 3.167-2.22 0-1.23-1.417-2.22-3.166-2.22h-59.03z" id="path-11" class="cls-11"/><path d="M122.656 162.83c-1.466 0-2.655-1.062-2.655-2.373 0-1.315 1.19-2.378 2.66-2.378h8.14c1.467 0 2.656 1.06 2.656 2.37s-1.19 2.372-2.655 2.372h-8.134z" id="path-12" class="cls-11"/><path d="M102.133 114.992h9.07c1.75 0 3.167.992 3.167 2.217 0 1.22-1.418 2.21-3.167 2.21h-.422c-1.74 0-3.16.99-3.16 2.215 0 1.225 1.42 2.22 3.17 2.22h19.5c1.748 0 3.166.992 3.166 2.216s-1.42 2.218-3.167 2.218H58.96c-1.75 0-3.168-.993-3.168-2.218s1.418-2.218 3.167-2.218h5.41c1.75 0 3.167-.995 3.167-2.22 0-1.224-1.417-2.217-3.166-2.217H43.11c-1.748 0-3.166-.992-3.166-2.216 0-1.226 1.418-2.218 3.166-2.218h59.023z" id="path-13" class="cls-11"/><path d="M45.88 128.89c1.466 0 2.655-1.063 2.655-2.375 0-1.313-1.19-2.377-2.655-2.377h-8.136c-1.466 0-2.654 1.064-2.654 2.377 0 1.312 1.188 2.375 2.654 2.375h8.136z" id="path-14" class="cls-11"/></g></svg>