<svg version="1" xmlns="http://www.w3.org/2000/svg" width="904" height="382.667" viewBox="0 0 678.000000 287.000000"><path fill="transparent" d="M0 143.5V287h678V0H0v143.5zM467.6 9.9c2.3 1 5.2 3.4 6.5 5.2 2.4 3.4 2.4 3.7 2.7 30.6l.3 27.2 4.6-3 4.7-2.9h25.2c15.4 0 26.4.4 28.1 1.1 1.5.5 4.2 2.3 5.8 3.9l3.1 3 3.8-2.6c6.1-4.2 15.5-8 24-9.9 11.5-2.6 30.9-1.7 43.1 1.9 12.2 3.7 17.8 6.9 25.5 14.6 11.7 11.7 15.7 22.4 16.7 44.5.7 16.3-.4 23.1-4.7 29.8-2.9 4.5-2.9 4.7-1.4 8.4 1.9 4.5 1.5 8.7-2.7 26.4-3.2 13.4-6.5 20.3-11.4 23.5-5.1 3.3-17.3 5.5-33.8 6.1-22.5.8-33.3-1.2-48.9-9.2-4.4-2.2-6.8-3-6.8-2.1 0 1.9-5 6.3-9.2 8-3 1.3-8.4 1.6-29 1.6-13.9 0-26.9-.4-28.7-1-1.9-.5-5-2.4-6.8-4.2l-3.3-3.1-2.5 2.7c-4.6 5-7.8 5.6-27.9 5.6h-18.4l-1.7 4.3c-3.1 7.9-8.9 16.2-16.5 23.8-13.7 13.8-28.4 18.9-53.7 18.9-12.5 0-14.2-.3-17.8-2.3-2.2-1.2-5-4-6.3-6.2-2.2-3.8-2.3-4.6-1.7-17.5.3-7.3.9-14.6 1.2-16.1.5-2.6.3-2.7-6.2-3.8-15-2.6-25.7-8.1-35.6-18.3l-6.7-6.9-.7 3.3c-1.9 8.7-8.1 16.5-14.7 18.7-12.8 4.1-41.4 5.4-55.6 2.5-15-3.1-30.7-11.6-39.5-21.4l-3.9-4.2-3.1 3.8c-7.8 9.7-16.9 16.3-27.4 19.9-13 4.5-29.8 5.8-40.3 3.1-3-.8-5.5-1.4-5.6-1.3 0 .1-.6 3.1-1.3 6.7-4.2 21.6-28.1 47.3-47.4 50.9-9 1.6-16.1-1.3-20.3-8.4l-2.4-4.2.2-91.5.3-91.4 2.5-3.7c4.9-7.2 7.1-7.7 30.6-7.7 18 .1 21.4.3 24.2 1.8 3.2 1.8 3.4 1.7 12-1.2 7.7-2.6 10-3 20.7-3 20.5 0 35.6 5.7 48.3 18.4l6.8 6.8 5.1-6.3c11.2-13.6 27.9-21.4 48.2-22.3C245 60 267.3 68 278.3 82.9c2.2 3.1 4.2 5.7 4.3 5.9 0 .1 3.3-2.9 7.1-6.6C298 74 309.1 68 320.5 65.5c11.2-2.5 30.3-1.7 40.8 1.7 6 2 7.7 2.3 7.7 1.2 0-1.1 3.4-1.4 18.9-1.4h18.9l1-5.8c2.4-13.3 9.1-25.4 20.3-36.4C442.9 10.2 456.8 5 467.6 9.9z"/><path fill="red" d="M452.9 28.7c-7.6 3.8-18.5 15.1-22.9 23.8l-3.5 6.9-.3 69.3-.2 69.3h34v-27.2c0-16.9.4-26.8.9-26.3.5.6 7.5 12.7 15.5 27l14.5 26 22.7.3c18.2.2 22.5 0 21.7-1-.6-.7-9.9-14-20.7-29.5L495 139l18.5-26.5C523.7 98 532 85.8 532 85.5c0-.3-9-.5-19.9-.5h-20l-15.8 25.2-15.8 25.3-.3-54.8c-.1-30.1-.6-54.7-1-54.7s-3.3 1.2-6.3 2.7zM216 79.1c-10.4.9-19 4.3-26.7 10.5-5.6 4.6-13.5 16.7-16.4 25.1-2.1 6-2.4 8.5-2.3 22.3 0 13 .4 16.8 2.3 23.8 6.9 24.6 28.2 39.2 57.1 39.2 19.5 0 33.1-8.8 37-24 .6-2.5 1.3-5.3 1.6-6.2.5-1.6-.2-1.5-5.9.7-23.6 8.8-47.2 6.4-55.1-5.6-2.5-3.8-5.6-10.9-5.6-13 0-.5 13.2-.9 29.3-.9 28.4 0 29.4-.1 33.7-2.3 7.9-4 8.5-5.6 8.4-23-.1-13.3-.4-15.9-2.3-21-3-7.7-9.3-15.3-15.7-18.9-9.4-5.2-25.3-8-39.4-6.7zm19.6 27.8c2.3 1 5.3 3.2 6.8 4.7 2.8 3 5.6 10.8 5.6 15.6v2.8h-46.2l.7-3.7c1.6-8.5 7.6-16.7 14.5-19.7 4.9-2.1 13.6-2 18.6.3zm339.9-25.6c-9.1 3-13.8 6.1-20.5 13.4-6.6 7.1-11.5 16.7-13.7 26.5-1.8 8.8-1.2 29.1 1.2 38.3 5.2 19.9 19.4 33.7 40 39 9.1 2.3 27 2 33.9-.5 11.3-4.3 18.3-12.1 21-23.7l1.4-6.1-4.7 2c-7.9 3.3-20.1 5.8-29.2 5.8-15.7 0-24.5-4.4-29.8-15.1-5.3-10.7-7.5-9.9 26.6-9.9 28.1 0 29.9-.1 34-2.1 7-3.4 7.8-5.9 7.7-22.9-.1-12-.4-15.5-2.2-20.2-6.4-17.7-20.1-25.6-45.7-26.4-11.6-.4-13.7-.2-20 1.9zm28.1 25.2c7.8 2.3 13 9.1 14.1 18.6l.6 4.9h-46.5l.7-3.7c1-5.7 5.1-12.9 9-16 6.6-5.3 13.3-6.4 22.1-3.8zM101.5 83.1c-8.6 1.3-17.6 6.1-25.6 13.6l-6.9 6.5V85H37v171.9l3.2-1c9.1-2.6 22.7-15.8 28.6-27.8l3.7-7.5.3-19.3.4-19.4 6.6 6.2c3.8 3.6 9.3 7.5 13.1 9.3 6.1 2.9 7.4 3.1 17.6 3.1 18.6 0 30-5.1 39.9-17.8 8.1-10.4 11.6-22.3 11.6-39.5 0-19.8-5.2-35.3-15.5-46.1-5.8-6.1-14.1-11.2-21-12.9-6.2-1.6-17.4-2.1-24-1.1zm9.4 28.9c7.5 3.8 12.4 11.9 14.2 23.1 1.4 8.9.5 16.8-2.7 23.9-3.2 7-5.7 9.7-11.9 12.6-7.1 3.4-15.4 3.3-22.4-.2-17.7-8.9-20.6-42.4-4.8-55.9 7.6-6.6 18.9-8 27.6-3.5zM322 83.9c-11.6 3.7-18.8 9-25.2 18.4-7.4 10.9-10.8 23.7-10.8 40.5.1 33.2 16.5 53.9 45.3 57.1 15.3 1.7 26.8-2.2 37.7-12.9l6-6v8.9c0 9.9-1.3 14.2-5.7 18.2-4 3.8-6.5 4.9-14.1 6.3l-6.7 1.2-.7 8.5c-.3 4.6-.9 11.2-1.2 14.6l-.5 6.3h10.3c12.8 0 19.3-1.2 27.5-5 8.6-4.1 17.8-13.6 22.8-23.8l3.8-7.6.3-61.8.3-61.8H380v18.4l-5.7-5.6c-8.2-7.9-13.7-11.5-21.1-13.8-8.4-2.6-23.3-2.7-31.2-.1zm38.5 27.9c10.4 5.7 15.1 16.2 14.3 31.8-.6 10-2.3 15-7.9 21.7-4.5 5.5-10.1 8-17.9 8-14.3.1-23.2-8.3-26-24.6-2-11.4 1.7-26.4 8.2-33.4 6.4-6.9 20.2-8.5 29.3-3.5z"/></svg>