<svg xmlns="http://www.w3.org/2000/svg" preserveAspectRatio="xMidYMid" width="161" height="217" viewBox="0 0 161 217"><defs><style>.cls-3{fill:#0cb04a}.cls-4{fill:#020403;opacity:.35}.cls-7{fill:#ff3a2f}.cls-8{fill:#142a3b}.cls-10{fill:#020403;opacity:.45}.cls-11{fill:#ededed}.cls-12{fill:#fbb713}</style></defs><g id="group-92svg" fill-rule="evenodd"><path d="M102.328 102.675c-.982 7.673-2.49 15.07-4.49 22.092l-1.434 8.704 24.716 6.86v-23.28l-18.792-14.37z" id="path-1" class="cls-3"/><path d="M106.775 130.045l1.435-8.703a146.72 146.72 0 0 0 2.846-11.992l-8.728-6.675c-.982 7.673-2.49 15.07-4.49 22.092l-1.434 8.704 24.716 6.86v-6.3l-14.345-3.98z" id="path-2" class="cls-4"/><path d="M56.96 102.465l-22.266 14.583v23.277l27.05-6.854-2.177-16.16a153.59 153.59 0 0 1-2.608-14.84z" id="path-3" class="cls-3"/><path d="M59.567 117.304a153.59 153.59 0 0 1-2.608-14.84l-5.83 3.815c.444 2.57.95 5.1 1.514 7.6l2.177 16.16-20.136 5.1v5.175l27.05-6.854-2.175-16.166z" id="path-4" class="cls-4"/><path d="M52.205 85.46c0 16.88 2.567 32.873 7.158 47.18 6.32 19.7 34.27 19.7 40.59 0 4.59-14.307 7.158-30.3 7.158-47.18 0-34.455-10.69-65.216-27.45-85.464-16.75 20.248-27.45 51.01-27.45 85.464z" id="path-5" class="cls-7"/><path d="M96.68 47.652H60.29c-2.01 0-3.638-1.508-3.638-3.5 0-1.99 1.628-3.5 3.64-3.5H96.68c2.01 0 3.638 1.51 3.638 3.5 0 1.992-1.627 3.5-3.638 3.5z" id="path-6" class="cls-8"/><path d="M79.658.042v147.42c8.567 0 17.134-4.926 20.296-14.776 4.59-14.306 7.157-30.3 7.157-47.182 0-34.454-10.69-65.214-27.45-85.462z" id="path-7" class="cls-4"/><path d="M96.805 76.47c0-5.89-4.82-10.662-10.762-10.662-5.944 0-10.763 4.773-10.763 10.663 0 5.89 4.82 10.67 10.763 10.67s10.762-4.773 10.762-10.66z" id="path-8" class="cls-10"/><path d="M89.89 73.046c0-5.888-4.818-10.66-10.762-10.66-5.944 0-10.762 4.772-10.762 10.66s4.818 10.662 10.762 10.662c5.944 0 10.763-4.774 10.763-10.662z" id="path-9" class="cls-11"/><path d="M109.704 199.113h14.92c2.875 0 5.207 1.283 5.207 2.863s-2.33 2.862-5.2 2.862h-.692c-2.877 0-5.21 1.282-5.21 2.862s2.333 2.863 5.21 2.863H156c2.876 0 5.208 1.282 5.208 2.862s-2.332 2.862-5.21 2.862H38.68c-2.875 0-5.207-1.282-5.207-2.862s2.332-2.862 5.208-2.862h8.91c2.877 0 5.21-1.282 5.21-2.863 0-1.58-2.33-2.862-5.208-2.862H5.222c-2.877 0-5.21-1.28-5.21-2.862 0-1.58 2.333-2.863 5.21-2.863h104.48z" id="path-10" class="cls-12"/><path d="M89.946 148.118v-4.93c0-.952-1.178-1.722-2.632-1.722-1.454 0-2.632.77-2.632 1.72v.23c0 .95-1.18 1.72-2.632 1.72-1.454 0-2.633-.77-2.633-1.72v-10.598c0-.95-1.178-1.72-2.63-1.72-1.455 0-2.633.77-2.633 1.72v38.77c0 .95 1.178 1.72 2.632 1.72 1.453 0 2.63-.77 2.63-1.72v-2.94c0-.95 1.18-1.723 2.634-1.723 1.453 0 2.632.77 2.632 1.722v14c0 .95 1.178 1.72 2.632 1.72 1.454 0 2.632-.77 2.632-1.72v-34.53z" id="path-11" class="cls-8"/><path d="M67.202 153.632v-2.42c0-.467-.58-.846-1.292-.846-.714 0-1.293.38-1.293.845v.12c0 .47-.578.85-1.292.85-.714 0-1.293-.38-1.293-.846v-5.204c0-.467-.578-.845-1.292-.845-.713 0-1.29.38-1.29.846v19.04c0 .466.577.845 1.29.845.714 0 1.292-.38 1.292-.845v-1.445c0-.467.58-.846 1.293-.846.714 0 1.292.38 1.292.844v6.87c0 .47.58.846 1.293.846s1.292-.376 1.292-.844v-16.95z" id="path-12" class="cls-8"/><path d="M108.686 177.606v-2.422c0-.466-.578-.845-1.29-.845-.716 0-1.294.37-1.294.84v.11c0 .465-.58.843-1.293.843-.72 0-1.3-.378-1.3-.845v-5.204c0-.467-.58-.845-1.29-.845-.716 0-1.29.38-1.29.845v19.037c0 .467.58.845 1.29.845.712 0 1.29-.38 1.29-.848v-1.446c0-.466.58-.844 1.292-.844s1.292.38 1.292.846v6.875c0 .467.576.846 1.29.846.714 0 1.29-.38 1.29-.846V177.6z" id="path-13" class="cls-8"/><path d="M77.61 191.128c0-2.57 1.352-4.653 3.02-4.653 1.665 0 3.016 2.083 3.016 4.653v14.257c0 2.57-1.35 4.65-3.017 4.65-1.67 0-3.02-2.08-3.02-4.65v-14.257z" id="path-14" class="cls-8"/><path d="M56.906 184.923c0-2.163 1.14-3.917 2.543-3.917 1.4 0 2.54 1.754 2.54 3.917v12.01c0 2.163-1.14 3.92-2.54 3.92-1.41 0-2.55-1.757-2.55-3.92v-12.01z" id="path-15" class="cls-8"/><path d="M104.57 151.73c0-2.166 1.137-3.92 2.54-3.92 1.405 0 2.543 1.754 2.543 3.92v12.007c0 2.164-1.138 3.92-2.542 3.92-1.4 0-2.54-1.756-2.54-3.92V151.73z" id="path-16" class="cls-8"/></g></svg>