<svg xmlns="http://www.w3.org/2000/svg" preserveAspectRatio="xMidYMid" width="219" height="186" viewBox="0 0 219 186"><defs><style>.cls-3{fill:#ededed}.cls-4{fill:#020403;opacity:.25}.cls-6{fill:#fbb713}.cls-7{fill:#fff}</style></defs><g id="group-77svg" fill-rule="evenodd"><path d="M75.175 38.856s55.923-87.392 116.57 0c0 0 47.26 25.42 15.756 64.99 0 0-3.932 114.476-127.6 53.614 0 0-113.42-56.96-4.72-118.604z" id="path-1" class="cls-3"/><path d="M191.746 38.856C172.898 11.696 154.51 1.426 138.11.16c12.23 5.16 25.21 15.897 38.415 34.926 0 0 47.26 25.42 15.754 64.99 0 0-2.91 84.204-81.76 69.77 93.7 28.73 96.975-66 96.975-66 31.505-39.57-15.755-64.99-15.755-64.99z" id="path-2" class="cls-4"/><path d="M168.41 89.8c0 21.275-17.41 38.522-38.888 38.522-21.476 0-38.885-17.247-38.885-38.522 0-21.276 17.41-38.523 38.885-38.523 21.477 0 38.887 17.247 38.887 38.523z" id="path-3" class="cls-4"/><path d="M160.15 89.8c0 16.757-13.712 30.34-30.628 30.34-16.914 0-30.627-13.583-30.627-30.34 0-16.757 13.713-30.34 30.627-30.34 16.916 0 30.628 13.583 30.628 30.34z" id="path-4" class="cls-6"/><path d="M111.54 92.188c-2.01 0-3.638-1.614-3.638-3.605 0-13.22 10.856-23.972 24.196-23.972 2.01 0 3.64 1.62 3.64 3.61 0 1.99-1.63 3.605-3.64 3.605-9.328 0-16.918 7.52-16.918 16.764 0 1.99-1.628 3.604-3.64 3.604z" id="path-5" class="cls-7"/><path d="M40.52 157.075H28.78c-2.262 0-4.096 2.115-4.096 4.72 0 2.608 1.834 4.72 4.097 4.72h.55c2.267 0 4.1 2.114 4.1 4.722 0 2.607-1.833 4.72-4.1 4.72H4.097c-2.262 0-4.097 2.114-4.097 4.72 0 2.607 1.834 4.72 4.096 4.72h92.302c2.263 0 4.097-2.113 4.097-4.72 0-2.606-1.834-4.72-4.098-4.72h-7.002c-2.262 0-4.097-2.113-4.097-4.72 0-2.608 1.835-4.72 4.097-4.72h33.327c2.268 0 4.1-2.114 4.1-4.72 0-2.607-1.832-4.722-4.1-4.722h-82.2z" id="path-6" class="cls-6"/><path d="M141.04 184.92c-3.72 0-6.736-1.474-6.736-3.29 0-1.82 3.016-3.292 6.735-3.292h20.63c3.72 0 6.733 1.473 6.733 3.29 0 1.818-3.015 3.29-6.735 3.29h-20.63z" id="path-7" class="cls-6"/><path d="M54.303 8.503h-4.815c-.93 0-1.682.867-1.682 1.936 0 1.07.753 1.93 1.682 1.93h.224c.928 0 1.68.867 1.68 1.936 0 1.07-.752 1.936-1.68 1.936H39.36c-.927 0-1.68.867-1.68 1.937s.753 1.937 1.68 1.937h37.866c.927 0 1.68-.865 1.68-1.935s-.753-1.937-1.68-1.937h-2.873c-.93 0-1.68-.866-1.68-1.936 0-1.07.75-1.936 1.68-1.936h13.672c.93 0 1.68-.867 1.68-1.937s-.75-1.937-1.68-1.937H54.303z" id="path-8" class="cls-6"/><path d="M112.362 22.89c-2.33 0-4.22-.923-4.22-2.063 0-1.14 1.89-2.064 4.22-2.064h12.94c2.33 0 4.22.924 4.22 2.064 0 1.14-1.89 2.063-4.22 2.063h-12.94z" id="path-9" class="cls-6"/></g></svg>