<svg xmlns="http://www.w3.org/2000/svg" preserveAspectRatio="xMidYMid" width="217" height="219" viewBox="0 0 217 219"><defs><style>.cls-3{fill:#fbb713}.cls-5{fill:#0cb04a}.cls-6{fill:#ff3a2f}.cls-7{fill:#000;opacity:.35}</style></defs><g id="group-143svg" fill-rule="evenodd"><path d="M125.394 219.076h16.965c3.27 0 5.92-2.007 5.92-4.48 0-2.477-2.65-4.483-5.93-4.483h-.79c-3.27 0-5.924-2.008-5.924-4.484 0-2.48 2.653-4.49 5.923-4.49h36.47c3.27 0 5.923-2.01 5.923-4.486s-2.653-4.483-5.924-4.483H44.62c-3.27 0-5.922 2.007-5.922 4.483 0 2.475 2.653 4.483 5.924 4.483H54.75c3.27 0 5.92 2.005 5.92 4.48 0 2.476-2.65 4.484-5.92 4.484H14.994c-3.27 0-5.923 2.006-5.923 4.48 0 2.476 2.66 4.48 5.93 4.48h110.4z" id="path-1" class="cls-3"/><path d="M20.175 190.98c2.742 0 4.965 2.15 4.965 4.804 0 2.653-2.223 4.804-4.965 4.804H4.958c-2.743 0-4.966-2.15-4.966-4.804 0-2.653 2.223-4.803 4.966-4.803h15.217z" id="path-2" class="cls-3"/><path d="M173.523 122.356c0 43.44-35.214 78.653-78.655 78.653-43.442 0-78.656-35.22-78.656-78.66S51.426 43.7 94.868 43.7v78.654h78.655z" id="path-3" class="cls-5"/><path d="M217.22 104.877c0-57.922-46.95-104.87-104.873-104.87v104.87H217.22z" id="path-4" class="cls-6"/><path d="M86.827 122.356h8.04V43.703a71.29 71.29 0 0 0-8.04.452v78.2z" id="path-5" class="cls-7"/><path d="M165.077 122.356c-4.027 39.66-37.523 70.612-78.25 70.612-19.673 0-37.613-7.27-51.406-19.207 14.43 16.67 35.68 27.25 59.45 27.25 43.44 0 78.66-35.21 78.66-78.65h-8.444z" id="path-6" class="cls-7"/><path d="M182.367 26.82c16.665 18.566 26.813 43.102 26.813 70.018h-96.833v8.04H217.22c0-31.007-13.463-58.86-34.853-78.06z" id="path-7" class="cls-7"/></g></svg>