<svg xmlns="http://www.w3.org/2000/svg" preserveAspectRatio="xMidYMid" width="218" height="160" viewBox="0 0 218 160"><defs><style>.cls-3{fill:#fbb713}.cls-5{fill:#ff3a2f}.cls-10{fill:#000;opacity:.35}</style></defs><g id="group-147svg" fill-rule="evenodd"><path d="M52.417 134.84h-15.18c-2.928 0-5.3 1.795-5.3 4.01 0 2.216 2.372 4.012 5.3 4.012h.706c2.927 0 5.3 1.796 5.3 4.01 0 2.215-2.373 4.01-5.3 4.01H5.31c-2.926 0-5.3 1.798-5.3 4.013s2.374 4.01 5.3 4.01h119.374c2.926 0 5.3-1.795 5.3-4.01s-2.374-4.012-5.3-4.012h-9.057c-2.927 0-5.3-1.796-5.3-4.01 0-2.215 2.373-4.01 5.3-4.01h35.57c2.927 0 5.3-1.797 5.3-4.013 0-2.215-2.373-4.01-5.3-4.01h-98.78z" id="path-1" class="cls-3"/><path d="M146.563 159.98c-2.454 0-4.443-1.925-4.443-4.3 0-2.374 1.99-4.298 4.443-4.298h13.616c2.45 0 4.44 1.924 4.44 4.298 0 2.375-1.99 4.3-4.443 4.3H146.56z" id="path-2" class="cls-3"/><path d="M174.935 123.41a7.23 7.23 0 0 1-2.74-.542l-60.887-24.91a7.24 7.24 0 0 1-3.956-9.444 7.238 7.238 0 0 1 9.444-3.96l60.887 24.91a7.24 7.24 0 0 1 3.956 9.445 7.238 7.238 0 0 1-6.707 4.5z" id="path-3" class="cls-5"/><path d="M114.056 63.458a7.243 7.243 0 0 1-2.684-13.97l53.515-21.308a7.244 7.244 0 0 1 9.41 4.05 7.242 7.242 0 0 1-4.05 9.403L116.732 62.94c-.88.35-1.785.518-2.676.518z" id="path-4" class="cls-5"/><path d="M174.94 140.152c9.676 9.676 25.364 9.676 35.04 0 9.678-9.676 9.678-25.365 0-35.04-9.676-9.68-25.364-9.68-35.04 0-9.678 9.674-9.678 25.364 0 35.04z" id="path-5" class="cls-5"/><path d="M167.567 42.278c9.677 9.676 25.366 9.676 35.042 0 9.674-9.676 9.675-25.365 0-35.04-9.68-9.678-25.368-9.678-35.045 0-9.677 9.675-9.677 25.364 0 35.04z" id="path-6" class="cls-5"/><path d="M75.796 98.155c13.487 13.486 35.353 13.486 48.84 0 13.487-13.487 13.487-35.352 0-48.84-13.487-13.486-35.353-13.486-48.84 0-13.487 13.488-13.487 35.353 0 48.84z" id="path-7" class="cls-5"/><path d="M209.98 105.11a24.414 24.414 0 0 0-1.94-1.743c7.89 9.73 7.31 24.045-1.744 33.1-9.054 9.053-23.37 9.633-33.102 1.743.543.67 1.122 1.32 1.745 1.942 9.674 9.676 25.362 9.676 35.04 0s9.676-25.366 0-35.04z" id="path-8" class="cls-10"/><path d="M202.61 7.237a24.58 24.58 0 0 0-1.94-1.745c7.887 9.73 7.308 24.046-1.747 33.1-9.053 9.054-23.37 9.633-33.1 1.745.542.67 1.12 1.32 1.744 1.94 9.677 9.677 25.366 9.677 35.042 0 9.674-9.675 9.674-25.364 0-35.04z" id="path-9" class="cls-10"/><path d="M124.637 49.315c-.624-.622-1.28-1.185-1.937-1.75 11.678 13.57 11.115 34.04-1.75 46.904-12.864 12.862-33.336 13.423-46.905 1.75.565.652 1.13 1.31 1.75 1.932 13.488 13.487 35.354 13.487 48.842 0 13.486-13.486 13.486-35.35 0-48.84z" id="path-10" class="cls-10"/></g></svg>