<svg xmlns="http://www.w3.org/2000/svg" preserveAspectRatio="xMidYMid" width="199" height="219" viewBox="0 0 199 219"><defs><style>.cls-3{fill:#2476ff}.cls-7{fill:#fff}.cls-10{fill:#ff3a2f}.cls-12{fill:#142a3b}.cls-13{fill:#0cb04a}.cls-14{fill:#020403;opacity:.35}</style></defs><g id="group-144svg" fill-rule="evenodd"><path d="M86.213 187.58h12.78c2.464 0 4.46 1.254 4.46 2.8 0 1.547-1.996 2.8-4.46 2.8H98.4c-2.466 0-4.464 1.253-4.464 2.8s1.998 2.8 4.463 2.8h27.47c2.46 0 4.46 1.254 4.46 2.802 0 1.546-2 2.8-4.46 2.8H56.56c-2.463 0-4.46-1.254-4.46-2.8 0-1.548 1.997-2.802 4.46-2.802h7.626c2.464 0 4.462-1.253 4.462-2.8s-1.998-2.8-4.462-2.8H27.9c-2.463 0-4.46-1.253-4.46-2.8 0-1.546 1.997-2.8 4.46-2.8h58.31z" id="path-1" class="cls-3"/><path d="M164.468 206.468c2.967 0 5.37-1.88 5.37-4.2 0-2.322-2.403-4.2-5.37-4.2h-16.46c-2.965 0-5.37 1.878-5.37 4.2 0 2.32 2.405 4.2 5.37 4.2h16.46z" id="path-2" class="cls-3"/><path d="M35.44 217.68c3.695 0 6.69-1.882 6.69-4.2 0-2.32-2.995-4.202-6.69-4.202H14.93c-3.696 0-6.692 1.882-6.692 4.202 0 2.318 2.996 4.2 6.692 4.2h20.51z" id="path-3" class="cls-3"/><path d="M22.33 114.127c0 6.113-5.003 11.07-11.173 11.07S-.015 120.24-.015 114.127s5-11.068 11.172-11.068c6.17 0 11.173 4.95 11.173 11.06z" id="path-4" class="cls-3"/><path d="M16.207 110.394c0 2.762-2.26 5.003-5.05 5.003s-5.05-2.24-5.05-5.003 2.26-5.003 5.05-5.003 5.05 2.24 5.05 5.01z" id="path-5" class="cls-7"/><path d="M18.386 36.405c0 3.954-3.236 7.16-7.23 7.16-3.99 0-7.227-3.206-7.227-7.16 0-3.955 3.23-7.162 7.22-7.162s7.23 3.207 7.23 7.162z" id="path-6" class="cls-3"/><path d="M61.577 6.54c0 2.847-2.328 5.153-5.2 5.153-2.872 0-5.2-2.306-5.2-5.153 0-2.845 2.328-5.15 5.2-5.15 2.872 0 5.2 2.305 5.2 5.15z" id="path-7" class="cls-3"/><path d="M34.49 82.117h-9.453v-28.21h9.453v28.21z" id="path-8" class="cls-10"/><path d="M194.836 82.117h-13.5v-28.21h13.5v28.21z" id="path-9" class="cls-10"/><path d="M34.49 52.823v30.38c0 8.39 6.866 15.19 15.335 15.19h32.38c5.478 0 10.54-2.894 13.28-7.594 5.9-10.13 20.655-10.13 26.557 0 2.74 4.7 7.8 7.59 13.28 7.59h32.38c8.468 0 15.334-6.8 15.334-15.19V52.82c0-8.387-6.866-15.19-15.334-15.19H49.825c-8.47 0-15.335 6.803-15.335 15.19z" id="path-10" class="cls-12"/><path d="M47.593 59.357V76.67c0 4.78 3.912 8.657 8.738 8.657h26a8.75 8.75 0 0 0 7.57-4.33h7.537c3.365-5.77 19.31-5.77 22.674 0h7.536c1.56 2.68 11.982 4.33 15.104 4.33h18.45c4.825 0 8.74-3.876 8.74-8.657V59.357c0-4.783-3.915-8.657-8.74-8.657H56.33c-4.825 0-8.737 3.874-8.737 8.657z" id="path-11" class="cls-13"/><path d="M161.195 50.7H56.33a8.74 8.74 0 0 0-7.175 3.733h104.503c4.827 0 8.74 3.875 8.74 8.656V80.4a8.55 8.55 0 0 1-1.563 4.925h.36c4.826 0 8.74-3.876 8.74-8.657v-17.31c0-4.783-3.914-8.658-8.74-8.658z" id="path-12" class="cls-14"/><path d="M151.568 193.877c-26.098 0-47.327-21.035-47.327-46.886 0-1.99 1.63-3.6 3.64-3.6 2.02 0 3.64 1.618 3.64 3.61 0 21.88 17.97 39.678 40.05 39.678 22.09 0 40.05-17.8 40.05-39.676V3.62c0-1.99 1.63-3.605 3.64-3.605 2.01 0 3.64 1.615 3.64 3.605v143.37c0 25.852-21.23 46.887-47.33 46.887z" id="path-13" class="cls-12"/><path d="M109.734 148.256c15.298 0 27.7-12.285 27.7-27.44h-55.4c0 15.155 12.402 27.44 27.7 27.44z" id="path-14" class="cls-10"/><path d="M125.843 120.816C124 134.2 112.446 144.523 98.43 144.523a28.21 28.21 0 0 1-2.834-.142 27.71 27.71 0 0 0 14.138 3.88c15.298 0 27.7-12.28 27.7-27.44h-11.59z" id="path-15" class="cls-14"/><path d="M94.686 128.312c0 1.89-1.546 3.422-3.453 3.422-1.91 0-3.454-1.533-3.454-3.422 0-1.89 1.54-3.423 3.45-3.423 1.9 0 3.45 1.53 3.45 3.42z" id="path-16" class="cls-7"/><path d="M103.713 135.776c0 2.706-2.213 4.9-4.944 4.9-2.74 0-4.95-2.194-4.95-4.9 0-2.703 2.21-4.895 4.94-4.895 2.73 0 4.943 2.2 4.943 4.9z" id="path-17" class="cls-7"/><path d="M59.516 83.92c-.58 0-1.148-.273-1.503-.784a1.794 1.794 0 0 1 .476-2.505L93.66 56.8a1.836 1.836 0 0 1 2.53.47 1.794 1.794 0 0 1-.478 2.505l-35.17 23.832a1.82 1.82 0 0 1-1.026.316z" id="path-18" class="cls-7"/><path d="M63.517 69.817c-.58 0-1.147-.275-1.503-.786a1.794 1.794 0 0 1 .477-2.5l14.36-9.73a1.836 1.836 0 0 1 2.53.47 1.795 1.795 0 0 1-.47 2.51l-14.36 9.73a1.82 1.82 0 0 1-1.026.314z" id="path-19" class="cls-7"/></g></svg>