<svg xmlns="http://www.w3.org/2000/svg" preserveAspectRatio="xMidYMid" width="219" height="211" viewBox="0 0 219 211"><defs><style>.cls-3{fill:#2476ff}.cls-11{fill:#142a3b}.cls-13{fill:#0cb04a}.cls-14{fill:#ff3a2f}.cls-15{fill:#fbb713}.cls-17{fill:#020403;opacity:.3}.cls-23{fill:#fff}</style></defs><g id="group-150svg"><path d="M166.732 194.107h14.945c2.881 0 5.217 1.04 5.217 2.322 0 1.281-2.336 2.321-5.217 2.321h-.696c-2.881 0-5.218 1.038-5.218 2.321 0 1.281 2.337 2.32 5.218 2.32h32.126c2.882 0 5.218 1.039 5.218 2.321 0 1.28-2.336 2.32-5.218 2.32h-81.042c-2.882 0-5.218-1.04-5.218-2.32 0-1.282 2.336-2.321 5.218-2.321h8.916c2.882 0 5.218-1.039 5.218-2.32 0-1.283-2.336-2.321-5.218-2.321H98.547c-2.881 0-5.218-1.04-5.218-2.321 0-1.282 2.337-2.322 5.218-2.322h68.185z" id="path-1" class="cls-3" fill-rule="evenodd"/><path d="M87.028 210.04c3.29 0 5.957-1.186 5.957-2.65 0-1.462-2.667-2.649-5.957-2.649H68.773c-3.291 0-5.958 1.187-5.958 2.649 0 1.464 2.667 2.65 5.958 2.65h18.255z" id="path-2" class="cls-3" fill-rule="evenodd"/><path d="M66.282 167.701h6.862c1.323 0 2.396.59 2.396 1.317 0 .728-1.073 1.316-2.396 1.316h-.319c-1.324 0-2.396.59-2.396 1.316 0 .728 1.072 1.318 2.396 1.318h14.752c1.322 0 2.395.589 2.395 1.316 0 .726-1.073 1.317-2.395 1.317H33.612c-1.323 0-2.396-.591-2.396-1.317 0-.727 1.073-1.316 2.396-1.316h4.094c1.323 0 2.396-.59 2.396-1.318 0-.726-1.073-1.316-2.396-1.316H18.222c-1.324 0-2.396-.588-2.396-1.316 0-.727 1.072-1.317 2.396-1.317h48.06z" id="path-3" class="cls-3" fill-rule="evenodd"/><path d="M29.465 25.907l5.538 5.485c1.069 1.058 1.193 2.651.278 3.557-.915.906-2.522.784-3.591-.274l-.257-.256c-1.068-1.057-2.675-1.181-3.591-.274-.914.907-.79 2.499.278 3.556l11.906 11.796c1.068 1.058 1.192 2.651.278 3.556-.916.908-2.523.784-3.591-.274L22.405 38.604 6.678 23.025c-1.068-1.058-1.192-2.65-.277-3.557.915-.906 2.522-.783 3.59.274l3.305 3.275c1.067 1.058 2.675 1.181 3.59.274.914-.906.79-2.499-.277-3.556L.882 4.154C-.186 3.097-.31 1.504.605.598c.915-.907 2.522-.783 3.59.274l3.717 3.682 21.553 21.353z" id="path-4" class="cls-3" fill-rule="evenodd"/><path d="M52.373 71.132c1.22 1.209 3.055 1.349 4.1.314 1.044-1.035.903-2.853-.317-4.061l-6.765-6.703c-1.22-1.207-3.055-1.349-4.1-.313-1.044 1.034-.902 2.853.317 4.061l6.765 6.702z" id="path-5" class="cls-3" fill-rule="evenodd"/><path d="M73.095 48.956l2.544 2.52c.49.486.467 1.296-.052 1.811-.52.514-1.338.536-1.828.051l-.119-.117c-.49-.486-1.308-.463-1.827.05-.519.516-.542 1.326-.052 1.811l5.467 5.416c.491.486.468 1.296-.052 1.811-.518.513-1.337.537-1.827.05l-6.57-6.507-13.43-13.303c-.49-.487-.467-1.298.052-1.812s1.338-.538 1.828-.051l1.517 1.503c.49.485 1.309.463 1.828-.053.518-.512.541-1.323.052-1.809l-7.222-7.154c-.49-.486-.467-1.297.052-1.811s1.337-.536 1.828-.051l1.706 1.692 16.105 15.953z" id="path-6" class="cls-3" fill-rule="evenodd"/><path d="M79.714 19.024l2.544 2.519c.49.485.467 1.295-.052 1.811-.519.513-1.338.537-1.828.05l-.119-.117c-.49-.485-1.308-.463-1.827.052-.519.514-.542 1.324-.052 1.811l5.467 5.415c.491.485.468 1.296-.052 1.81-.519.514-1.336.537-1.827.052l-6.57-6.509-13.429-13.304c-.491-.486-.468-1.296.051-1.81.519-.515 1.338-.537 1.828-.052l1.517 1.504c.491.486 1.309.462 1.828-.052.519-.514.542-1.324.052-1.81l-7.222-7.155c-.49-.485-.467-1.295.052-1.811.52-.513 1.337-.536 1.828-.05l1.706 1.691 16.105 15.955z" id="path-7" class="cls-3" fill-rule="evenodd"/><path d="M28.233 95.329l2.543 2.519c.49.486.468 1.297-.052 1.81-.519.515-1.337.538-1.827.052l-.118-.117c-.491-.486-1.31-.463-1.828.051-.519.514-.543 1.325-.052 1.81l5.467 5.417c.491.486.468 1.296-.051 1.811-.52.513-1.337.536-1.828.051l-6.571-6.509-13.429-13.305c-.49-.485-.467-1.295.052-1.809s1.337-.538 1.827-.051l1.518 1.501c.491.486 1.308.463 1.828-.051.519-.513.542-1.323.051-1.808l-7.221-7.155c-.49-.486-.467-1.297.052-1.81.519-.515 1.337-.538 1.828-.052l1.706 1.69 16.105 15.955z" id="path-8" class="cls-3" fill-rule="evenodd"/><path d="M92.89 61.092a3.64 3.64 0 0 1-3.351-2.199l-4.638-10.83a3.591 3.591 0 0 1 1.928-4.726c1.846-.779 3.986.078 4.771 1.91l4.638 10.832a3.589 3.589 0 0 1-1.928 4.724 3.643 3.643 0 0 1-1.42.289z" id="path-9" class="cls-11" fill-rule="evenodd"/><path d="M141.6 174.811a3.64 3.64 0 0 1-3.35-2.198l-23.196-54.152c-.786-1.831.078-3.948 1.927-4.724 1.85-.779 3.984.077 4.771 1.91l23.196 54.149c.785 1.833-.078 3.948-1.928 4.727a3.652 3.652 0 0 1-1.42.288z" id="path-10" class="cls-11" fill-rule="evenodd"/><path d="M167.599 96.373c13.586-5.712 27.195-4.28 30.398 3.197-17.294-40.374-64.353-59.216-105.108-42.084-40.756 17.133-59.775 63.751-42.481 104.125-3.203-7.478 5.214-18.166 18.799-23.878 13.586-5.71 27.194-4.279 30.398 3.197-3.204-7.476 5.213-18.166 18.799-23.876 13.585-5.711 27.194-4.281 30.396 3.196-3.202-7.477 5.215-18.167 18.799-23.877z" id="path-11" class="cls-13" fill-rule="evenodd"/><path d="M167.599 96.373c13.586-5.712 27.195-4.28 30.398 3.197-17.294-40.374-64.353-59.216-105.108-42.084-1.258.53.307-.14-.706.421-2.865 1.583 38.441 28.54 56.617 62.343-3.854-7.168 5.215-18.167 18.799-23.877z" id="path-12" class="cls-14" fill-rule="evenodd"/><path d="M148.8 120.25c-17.294-40.374-42.326-68.475-55.911-62.764-13.586 5.711-10.579 43.071 6.716 83.444l-.148-.341c-3.202-7.478 6.374-15.461 19.959-21.172 13.586-5.71 26.035-6.987 29.238.49l.146.343z" id="path-13" class="cls-15" fill-rule="evenodd"/><path d="M143.091 189.748c3.843 8.972 14.301 13.159 23.357 9.351 9.057-3.806 13.284-14.167 9.441-23.138-1.281-2.991-4.767-4.386-7.786-3.117-3.02 1.268-4.428 4.72-3.147 7.712 1.281 2.991-.128 6.444-3.146 7.712-3.02 1.27-6.505-.126-7.786-3.117l-6.959-16.244-10.932 4.596 6.958 16.245z" id="path-14" class="cls-11" fill-rule="evenodd"/><path d="M144.332 170.056l5.799 13.537c.941 2.198 3.073 3.521 5.335 3.572a5.842 5.842 0 0 1-1.442-2.014l-6.959-16.244-2.733 1.149z" id="path-15" class="cls-17" fill-rule="evenodd"/><path d="M170.553 172.389a5.831 5.831 0 0 1 1.443 2.013c3.843 8.972-.384 19.332-9.44 23.139a17.875 17.875 0 0 1-11.636.768c4.618 2.511 10.303 2.988 15.529.79 9.057-3.806 13.283-14.167 9.44-23.138-.941-2.197-3.074-3.522-5.336-3.572z" id="path-16" class="cls-17" fill-rule="evenodd"/><path d="M49.063 143.411a48.297 48.297 0 0 0-3.661 1.742 79.095 79.095 0 0 0 5.006 16.458c-2.827-6.602 3.216-19.299 24.718-25.922-4.767.073-20.641 5.442-26.063 7.722z" id="path-17" class="cls-17" fill-rule="evenodd"/><path d="M98.259 122.73c-7.425 1.587-12.597 7.199-15.971 11.659 8.348-.746 15.171 1.534 17.317 6.541-2.828-6.601 3.305-12.904 14.155-18.878-4.768.074-10.015-.495-15.501.678z" id="path-18" class="cls-17" fill-rule="evenodd"/><path d="M92.889 57.486c-.143.061-.28.131-.421.191 31.361-4.561 63.046 9.795 79.881 36.992 11.875-3.58 22.82-1.702 25.648 4.901-17.294-40.374-64.353-59.216-105.108-42.084z" id="path-19" class="cls-17" fill-rule="evenodd"/><path d="M147.455 102.05c-6.992 2.939-21.51 11.843-24.884 16.303 18.217-7.224 24.084-3.111 26.229 1.897-2.827-6.602 3.411-15.704 14.261-21.677-4.768.073-10.183 1.197-15.606 3.477z" id="path-20" class="cls-17" fill-rule="evenodd"/><path d="M53.035 132.728c-1.685 0-3.191-1.159-3.552-2.852-.203-.952-4.668-23.569 18.967-50.697a3.663 3.663 0 0 1 5.131-.374 3.58 3.58 0 0 1 .377 5.084c-21.123 24.248-17.514 43.702-17.351 44.519.392 1.946-.875 3.849-2.837 4.246a3.71 3.71 0 0 1-.735.074z" id="path-21" class="cls-23" fill-rule="evenodd"/></g></svg>