<svg xmlns="http://www.w3.org/2000/svg" preserveAspectRatio="xMidYMid" width="219" height="211" viewBox="0 0 219 211"><defs><style>.cls-3{fill:#2476ff}.cls-11{fill:#142a3b}.cls-13{fill:#0cb04a}.cls-14{fill:#ff3a2f}.cls-15{fill:#fbb713}.cls-17{fill:#020403;opacity:.3}.cls-23{fill:#fff}</style></defs><g id="group-150svg" fill-rule="evenodd"><path d="M166.732 194.107h14.945c2.88 0 5.217 1.04 5.217 2.322 0 1.28-2.336 2.32-5.217 2.32h-.696c-2.88 0-5.21 1.03-5.21 2.32 0 1.28 2.34 2.32 5.22 2.32h32.127c2.88 0 5.218 1.04 5.218 2.32 0 1.28-2.335 2.32-5.217 2.32H132.07c-2.883 0-5.22-1.04-5.22-2.32 0-1.28 2.336-2.32 5.218-2.32h8.916c2.884 0 5.22-1.04 5.22-2.32 0-1.29-2.336-2.32-5.22-2.32H98.55c-2.88 0-5.218-1.04-5.218-2.32 0-1.29 2.336-2.33 5.217-2.33h68.18z" id="path-1" class="cls-3"/><path d="M87.028 210.04c3.29 0 5.957-1.186 5.957-2.65 0-1.462-2.667-2.65-5.957-2.65H68.773c-3.29 0-5.958 1.188-5.958 2.65 0 1.464 2.667 2.65 5.958 2.65h18.255z" id="path-2" class="cls-3"/><path d="M66.282 167.7h6.862c1.323 0 2.396.59 2.396 1.318 0 .728-1.073 1.316-2.396 1.316h-.32c-1.323 0-2.395.59-2.395 1.316 0 .728 1.07 1.318 2.39 1.318h14.75c1.32 0 2.392.59 2.392 1.316 0 .726-1.073 1.317-2.395 1.317H33.61c-1.322 0-2.395-.59-2.395-1.31 0-.724 1.073-1.313 2.396-1.313h4.1c1.326 0 2.4-.59 2.4-1.32 0-.724-1.073-1.314-2.396-1.314H18.22c-1.324 0-2.396-.59-2.396-1.316 0-.73 1.072-1.32 2.396-1.32h48.06z" id="path-3" class="cls-3"/><path d="M29.465 25.907l5.538 5.485c1.07 1.058 1.193 2.65.278 3.557-.91.9-2.52.78-3.59-.28l-.25-.26c-1.07-1.058-2.673-1.18-3.59-.275-.913.907-.79 2.5.28 3.556l11.903 11.8c1.068 1.06 1.19 2.65.278 3.557-.915.907-2.522.783-3.59-.275L22.41 38.6 6.68 23.024c-1.068-1.057-1.192-2.65-.277-3.556.916-.906 2.523-.783 3.59.274l3.306 3.275c1.06 1.058 2.67 1.18 3.59.274.91-.9.79-2.49-.28-3.55L.88 4.16C-.186 3.093-.31 1.5.605.593c.915-.904 2.522-.78 3.59.276l3.717 3.68L29.465 25.9z" id="path-4" class="cls-3"/><path d="M52.373 71.132c1.22 1.21 3.055 1.35 4.1.314 1.044-1.035.903-2.853-.317-4.06L49.39 60.68c-1.22-1.207-3.054-1.35-4.1-.313-1.043 1.033-.9 2.852.318 4.06l6.765 6.702z" id="path-5" class="cls-3"/><path d="M73.095 48.956l2.544 2.52c.49.486.46 1.296-.06 1.81-.52.515-1.34.537-1.83.052l-.12-.117c-.49-.48-1.308-.46-1.827.05-.52.52-.54 1.33-.05 1.82l5.466 5.417c.49.486.47 1.296-.05 1.81s-1.338.538-1.828.05l-6.57-6.506L55.35 42.55c-.49-.488-.468-1.3.05-1.813.52-.514 1.34-.538 1.83-.05l1.516 1.502c.49.48 1.31.46 1.828-.06.518-.51.54-1.326.052-1.81l-7.222-7.156c-.49-.486-.467-1.297.052-1.81.52-.515 1.337-.537 1.828-.05L56.99 33l16.105 15.953z" id="path-6" class="cls-3"/><path d="M79.714 19.024l2.544 2.52c.49.484.467 1.294-.052 1.81-.52.513-1.338.537-1.828.05l-.12-.117c-.49-.485-1.307-.463-1.826.052-.52.51-.542 1.32-.052 1.81l5.467 5.41c.49.48.468 1.292-.052 1.81s-1.336.533-1.827.05l-6.57-6.51-13.43-13.305c-.49-.486-.467-1.296.052-1.81.52-.515 1.338-.537 1.828-.05l1.517 1.503c.49.486 1.31.462 1.828-.05.52-.515.542-1.325.052-1.81l-7.222-7.15c-.49-.488-.467-1.298.052-1.814.52-.513 1.337-.536 1.828-.05l1.706 1.69 16.1 15.956z" id="path-7" class="cls-3"/><path d="M28.233 95.33l2.543 2.518c.49.486.468 1.297-.052 1.81-.52.515-1.337.538-1.827.052l-.118-.117c-.5-.486-1.31-.463-1.83.05-.52.515-.55 1.326-.05 1.81l5.46 5.418c.49.49.47 1.3-.05 1.82-.52.514-1.34.537-1.83.05l-6.57-6.51-13.43-13.303c-.49-.485-.47-1.295.05-1.81.52-.513 1.336-.537 1.826-.05l1.52 1.5c.49.487 1.31.464 1.83-.05.52-.513.54-1.323.05-1.81L8.54 79.55c-.49-.487-.468-1.298.05-1.81.52-.516 1.338-.54 1.83-.053l1.705 1.69L28.233 95.33z" id="path-8" class="cls-3"/><path d="M92.89 61.092a3.64 3.64 0 0 1-3.35-2.2l-4.64-10.83a3.59 3.59 0 0 1 1.93-4.725c1.845-.78 3.985.078 4.77 1.91l4.638 10.832a3.59 3.59 0 0 1-1.928 4.72 3.68 3.68 0 0 1-1.42.29z" id="path-9" class="cls-11"/><path d="M141.6 174.81a3.64 3.64 0 0 1-3.35-2.197l-23.196-54.152c-.786-1.83.078-3.94 1.927-4.72 1.85-.78 3.99.08 4.78 1.91l23.197 54.15c.785 1.83-.08 3.95-1.93 4.73a3.652 3.652 0 0 1-1.42.29z" id="path-10" class="cls-11"/><path d="M167.6 96.373c13.585-5.712 27.194-4.28 30.397 3.197-17.294-40.374-64.353-59.216-105.108-42.084C52.13 74.62 33.11 121.236 50.4 161.61c-3.203-7.476 5.214-18.164 18.8-23.876 13.585-5.71 27.193-4.28 30.397 3.197-3.204-7.47 5.213-18.16 18.8-23.87 13.584-5.71 27.193-4.28 30.395 3.2-3.203-7.477 5.214-18.167 18.8-23.877z" id="path-11" class="cls-13"/><path d="M167.6 96.373c13.585-5.712 27.194-4.28 30.397 3.197-17.294-40.374-64.353-59.216-105.108-42.084-1.26.53.3-.14-.71.42-2.87 1.584 38.44 28.54 56.61 62.344-3.854-7.168 5.215-18.167 18.8-23.877z" id="path-12" class="cls-14"/><path d="M148.8 120.25c-17.294-40.374-42.326-68.475-55.91-62.764-13.587 5.71-10.58 43.07 6.715 83.444l-.148-.34c-3.202-7.48 6.374-15.462 19.96-21.173 13.585-5.71 26.034-6.987 29.237.49l.146.343z" id="path-13" class="cls-15"/><path d="M143.09 189.748c3.844 8.972 14.302 13.16 23.358 9.35 9.057-3.805 13.284-14.166 9.44-23.137-1.28-2.99-4.766-4.38-7.785-3.11-3.02 1.27-4.428 4.72-3.147 7.71 1.28 2.99-.128 6.448-3.146 7.71-3.02 1.27-6.505-.12-7.786-3.112l-6.96-16.243-10.93 4.595 6.957 16.244z" id="path-14" class="cls-11"/><path d="M144.332 170.056l5.8 13.537c.94 2.198 3.072 3.52 5.334 3.572a5.842 5.842 0 0 1-1.442-2.014l-6.96-16.24-2.732 1.15z" id="path-15" class="cls-17"/><path d="M170.553 172.39a5.83 5.83 0 0 1 1.443 2.012c3.843 8.972-.384 19.332-9.44 23.14a17.875 17.875 0 0 1-11.636.767 17.94 17.94 0 0 0 15.53.79c9.056-3.81 13.282-14.17 9.44-23.14-.942-2.2-3.075-3.52-5.337-3.57z" id="path-16" class="cls-17"/><path d="M49.063 143.41a48.297 48.297 0 0 0-3.66 1.743 79.095 79.095 0 0 0 5.005 16.458c-2.827-6.6 3.216-19.29 24.718-25.92-4.767.08-20.64 5.44-26.063 7.72z" id="path-17" class="cls-17"/><path d="M98.26 122.73c-7.426 1.587-12.598 7.2-15.972 11.66 8.348-.747 15.17 1.533 17.317 6.54-2.828-6.6 3.305-12.904 14.155-18.878-4.768.074-10.015-.495-15.5.678z" id="path-18" class="cls-17"/><path d="M92.89 57.486c-.144.06-.28.13-.422.19 31.36-4.56 63.046 9.796 79.88 36.993 11.876-3.58 22.82-1.71 25.65 4.9-17.295-40.38-64.354-59.22-105.11-42.09z" id="path-19" class="cls-17"/><path d="M147.455 102.05c-6.992 2.94-21.51 11.843-24.884 16.303 18.22-7.224 24.09-3.11 26.23 1.897-2.82-6.602 3.41-15.704 14.26-21.677-4.76.073-10.18 1.197-15.6 3.477z" id="path-20" class="cls-17"/><path d="M53.035 132.728c-1.685 0-3.19-1.16-3.552-2.852-.203-.952-4.668-23.57 18.967-50.697a3.663 3.663 0 0 1 5.13-.38 3.58 3.58 0 0 1 .378 5.08c-21.123 24.247-17.514 43.7-17.35 44.52a3.615 3.615 0 0 1-2.838 4.245 3.71 3.71 0 0 1-.735.074z" id="path-21" class="cls-23"/></g></svg>