<svg xmlns="http://www.w3.org/2000/svg" preserveAspectRatio="xMidYMid" width="206" height="216" viewBox="0 0 206 216"><defs><style>.cls-3{fill:#fbb713}.cls-6{fill:#020403}.cls-7{fill:#142a3b}.cls-8{fill:#020403;opacity:.45}.cls-10{fill:#ff3a2f}.cls-11{fill:#fff}.cls-13{fill:#020403;opacity:.35}.cls-18{fill:#020403;opacity:.25}</style></defs><g id="group-88svg" fill-rule="evenodd"><path d="M156.967 191.215h14.198c2.737 0 4.956 1.87 4.956 4.178 0 2.306-2.21 4.175-4.95 4.175h-.66c-2.74 0-4.953 1.87-4.953 4.178 0 2.306 2.22 4.177 4.956 4.177h30.52c2.738 0 4.957 1.87 4.957 4.176s-2.22 4.17-4.956 4.17h-76.99c-2.736 0-4.955-1.87-4.955-4.18 0-2.307 2.22-4.177 4.955-4.177h8.47c2.738 0 4.958-1.87 4.958-4.177 0-2.307-2.22-4.178-4.955-4.178H92.19c-2.738 0-4.957-1.87-4.957-4.176 0-2.305 2.22-4.176 4.957-4.176h64.774z" id="path-1" class="cls-3"/><path d="M185.996 140.863h4.57c.882 0 1.596.765 1.596 1.708 0 .95-.714 1.71-1.595 1.71h-.213c-.88 0-1.596.77-1.596 1.71s.715 1.71 1.596 1.71h9.826c.882 0 1.596.77 1.596 1.71s-.714 1.71-1.596 1.71h-24.788c-.88 0-1.595-.76-1.595-1.71s.714-1.71 1.596-1.71h2.726c.88 0 1.59-.76 1.59-1.71s-.718-1.71-1.6-1.71h-12.98c-.88 0-1.595-.76-1.595-1.71 0-.94.714-1.7 1.595-1.7h20.857z" id="path-2" class="cls-3"/><path d="M23.016 132.764c3.125 0 5.658-1.59 5.658-3.552 0-1.96-2.533-3.55-5.658-3.55H5.673c-3.126 0-5.66 1.59-5.66 3.55 0 1.962 2.534 3.552 5.66 3.552h17.343z" id="path-3" class="cls-3"/><path d="M52.89 191.437v-3.412H41.51v3.412h11.38z" id="path-4" class="cls-6"/><path d="M103.493 62.565H75.33v-14.24h28.163v14.24z" id="path-5" class="cls-7"/><path d="M75.33 48.325v3.41l28.163 6.826V48.33H75.33z" id="path-6" class="cls-8"/><path d="M103.493 185.39H75.33v-14.24h28.163v14.24z" id="path-7" class="cls-7"/><path d="M148.68 117.05c0 32.428-26.535 58.717-59.27 58.717-32.732 0-59.268-26.29-59.268-58.716s26.536-58.71 59.27-58.71c32.733 0 59.27 26.29 59.27 58.72z" id="path-8" class="cls-10"/><path d="M111.246 168.75a3.645 3.645 0 0 1-3.305-2.092 3.59 3.59 0 0 1 1.78-4.785c14.3-6.557 24.48-19.655 27.23-35.036.35-1.958 2.23-3.27 4.22-2.92 1.98.348 3.3 2.22 2.95 4.18-3.17 17.7-14.884 32.772-31.34 40.318a3.663 3.663 0 0 1-1.525.334z" id="path-9" class="cls-11"/><path d="M134.067 117.05c0 24.432-19.993 44.238-44.656 44.238-24.66 0-44.65-19.806-44.65-44.237 0-24.43 19.99-44.23 44.66-44.23 24.664 0 44.657 19.81 44.657 44.24z" id="path-10" class="cls-3"/><path d="M96.3 157.877c-24.663 0-44.655-19.808-44.655-44.238 0-15.99 8.59-29.96 21.418-37.73-16.565 6.47-28.306 22.43-28.306 41.14 0 24.43 19.992 44.232 44.654 44.232 8.53 0 16.47-2.408 23.24-6.514-5.07 1.98-10.57 3.103-16.35 3.103z" id="path-11" class="cls-13"/><path d="M98.118 123.896c0 4.764-3.898 8.625-8.707 8.625-4.8 0-8.7-3.86-8.7-8.62s3.9-8.62 8.71-8.62c4.81 0 8.708 3.863 8.708 8.626z" id="path-12" class="cls-13"/><path d="M123.34 127.522h-34.1V90.137c0-1.99 1.63-3.606 3.64-3.606 2.01 0 3.638 1.62 3.638 3.61v30.18h26.825c2.01 0 3.64 1.616 3.64 3.606s-1.63 3.605-3.64 3.605z" id="path-13" class="cls-13"/><path d="M98.118 120.463c0 4.763-3.898 8.625-8.707 8.625-4.8 0-8.7-3.862-8.7-8.625s3.9-8.625 8.71-8.625c4.81 0 8.708 3.862 8.708 8.625z" id="path-14" class="cls-10"/><path d="M58.235 27.42L89.41-.013l31.18 27.433H58.235z" id="path-15" class="cls-3"/><path d="M89.41-.014L84.463 4.34l22.35 19.67h-44.7l-3.877 3.41h62.353L89.41-.013z" id="path-16" class="cls-18"/><path d="M48.737 27.176c7.45 14.78 22.864 24.932 40.674 24.932 17.82 0 33.23-10.153 40.68-24.932H48.74z" id="path-17" class="cls-10"/><path d="M75.33 45.515c-.423 0-.854-.073-1.272-.227a35.064 35.064 0 0 1-14.17-9.75 3.58 3.58 0 0 1 .362-5.085 3.665 3.665 0 0 1 5.134.357 27.735 27.735 0 0 0 11.218 7.72c1.882.698 2.84 2.774 2.137 4.638a3.638 3.638 0 0 1-3.41 2.347z" id="path-18" class="cls-11"/><path d="M116.31 27.176c-6.47 12.835-18.95 22.172-33.786 24.41a46.38 46.38 0 0 0 6.887.522c17.82 0 33.23-10.153 40.68-24.932h-13.78z" id="path-19" class="cls-13"/><path d="M119.046 188.025v-8.847h-59.27v8.847H41.51v6.436h95.804v-6.43h-18.268z" id="path-20" class="cls-7"/><path d="M119.046 188.025v-8.847h-59.27v3.412h52.382v8.847h18.268v3.024h6.888v-6.43h-18.268z" id="path-21" class="cls-13"/><path d="M126.805 124.088H85.772V86.703c0-1.99 1.63-3.604 3.64-3.604 2.008 0 3.638 1.61 3.638 3.6v30.17h33.755c2.01 0 3.64 1.613 3.64 3.605 0 1.99-1.63 3.603-3.64 3.603z" id="path-22" class="cls-10"/></g></svg>