<svg xmlns="http://www.w3.org/2000/svg" preserveAspectRatio="xMidYMid" width="206" height="216" viewBox="0 0 206 216"><defs><style>.cls-3{fill:#fbb713}.cls-6{fill:#020403}.cls-7{fill:#142a3b}.cls-8{fill:#020403;opacity:.45}.cls-10{fill:#ff3a2f}.cls-11{fill:#fff}.cls-13,.cls-18{fill:#020403;opacity:.35}.cls-18{opacity:.25}</style></defs><g id="group-88svg"><path d="M156.967 191.215h14.198c2.737 0 4.956 1.871 4.956 4.178 0 2.306-2.219 4.175-4.956 4.175h-.661c-2.737 0-4.956 1.871-4.956 4.178 0 2.306 2.219 4.177 4.956 4.177h30.521c2.737 0 4.956 1.87 4.956 4.176 0 2.308-2.219 4.177-4.956 4.177h-76.991c-2.737 0-4.956-1.869-4.956-4.177 0-2.306 2.219-4.176 4.956-4.176h8.471c2.736 0 4.956-1.871 4.956-4.177 0-2.307-2.22-4.178-4.956-4.178H92.192c-2.738 0-4.957-1.869-4.957-4.175 0-2.307 2.219-4.178 4.957-4.178h64.775z" id="path-1" class="cls-3" fill-rule="evenodd"/><path d="M185.996 140.863h4.571c.881 0 1.595.765 1.595 1.708 0 .945-.714 1.709-1.595 1.709h-.213c-.881 0-1.596.766-1.596 1.709 0 .945.715 1.71 1.596 1.71h9.826c.882 0 1.596.765 1.596 1.708 0 .945-.714 1.709-1.596 1.709h-24.787c-.882 0-1.596-.764-1.596-1.709 0-.943.714-1.708 1.596-1.708h2.726c.882 0 1.596-.765 1.596-1.71 0-.943-.714-1.709-1.596-1.709H165.14c-.881 0-1.595-.764-1.595-1.709 0-.943.714-1.708 1.595-1.708h20.856z" id="path-2" class="cls-3" fill-rule="evenodd"/><path d="M23.016 132.764c3.125 0 5.658-1.59 5.658-3.552 0-1.961-2.533-3.551-5.658-3.551H5.673c-3.126 0-5.66 1.59-5.66 3.551 0 1.962 2.534 3.552 5.66 3.552h17.343z" id="path-3" class="cls-3" fill-rule="evenodd"/><path d="M52.889 191.437v-3.412h-11.38v3.412h11.38z" id="path-4" class="cls-6" fill-rule="evenodd"/><path d="M103.493 62.565H75.329v-14.24h28.164v14.24z" id="path-5" class="cls-7" fill-rule="evenodd"/><path d="M75.329 48.325v3.411l28.164 6.825V48.325H75.329z" id="path-6" class="cls-8" fill-rule="evenodd"/><path d="M103.493 185.391H75.329v-14.24h28.164v14.24z" id="path-7" class="cls-7" fill-rule="evenodd"/><path d="M148.681 117.051c0 32.427-26.536 58.716-59.27 58.716-32.733 0-59.269-26.289-59.269-58.716 0-32.428 26.536-58.715 59.269-58.715 32.734 0 59.27 26.287 59.27 58.715z" id="path-8" class="cls-10" fill-rule="evenodd"/><path d="M111.246 168.749a3.645 3.645 0 0 1-3.305-2.091 3.59 3.59 0 0 1 1.775-4.785c14.296-6.557 24.476-19.655 27.229-35.036.352-1.958 2.232-3.271 4.22-2.92 1.978.348 3.298 2.219 2.948 4.181-3.171 17.699-14.886 32.771-31.341 40.317a3.663 3.663 0 0 1-1.526.334z" id="path-9" class="cls-11" fill-rule="evenodd"/><path d="M134.067 117.051c0 24.431-19.993 44.237-44.656 44.237-24.662 0-44.654-19.806-44.654-44.237s19.992-44.237 44.654-44.237c24.663 0 44.656 19.806 44.656 44.237z" id="path-10" class="cls-3" fill-rule="evenodd"/><path d="M96.3 157.877c-24.663 0-44.655-19.808-44.655-44.238 0-15.988 8.59-29.952 21.418-37.724-16.565 6.468-28.306 22.428-28.306 41.136 0 24.431 19.992 44.237 44.654 44.237 8.524 0 16.462-2.408 23.238-6.514-5.068 1.979-10.572 3.103-16.349 3.103z" id="path-11" class="cls-13" fill-rule="evenodd"/><path d="M98.118 123.896c0 4.764-3.898 8.625-8.707 8.625-4.808 0-8.706-3.861-8.706-8.625 0-4.763 3.898-8.625 8.706-8.625 4.809 0 8.707 3.862 8.707 8.625z" id="path-12" class="cls-13" fill-rule="evenodd"/><path d="M123.341 127.522H89.238V90.137c0-1.991 1.63-3.606 3.639-3.606 2.01 0 3.639 1.615 3.639 3.606v30.176h26.825c2.009 0 3.639 1.614 3.639 3.604 0 1.991-1.63 3.605-3.639 3.605z" id="path-13" class="cls-13" fill-rule="evenodd"/><path d="M98.118 120.463c0 4.763-3.898 8.625-8.707 8.625-4.808 0-8.706-3.862-8.706-8.625s3.898-8.625 8.706-8.625c4.809 0 8.707 3.862 8.707 8.625z" id="path-14" class="cls-10" fill-rule="evenodd"/><path d="M58.235 27.421L89.411-.014l31.177 27.435H58.235z" id="path-15" class="cls-3" fill-rule="evenodd"/><path d="M89.411-.014L84.462 4.34l22.35 19.669h-44.7l-3.877 3.412h62.353L89.411-.014z" id="path-16" class="cls-18" fill-rule="evenodd"/><path d="M48.737 27.176c7.451 14.779 22.864 24.932 40.674 24.932 17.812 0 33.224-10.153 40.675-24.932H48.737z" id="path-17" class="cls-10" fill-rule="evenodd"/><path d="M75.329 45.515c-.422 0-.853-.073-1.271-.227a35.064 35.064 0 0 1-14.169-9.75 3.58 3.58 0 0 1 .361-5.085 3.665 3.665 0 0 1 5.134.357 27.735 27.735 0 0 0 11.218 7.721c1.882.697 2.839 2.773 2.137 4.637a3.638 3.638 0 0 1-3.41 2.347z" id="path-18" class="cls-11" fill-rule="evenodd"/><path d="M116.31 27.176c-6.471 12.835-18.95 22.172-33.786 24.409 2.247.338 4.544.523 6.887.523 17.812 0 33.224-10.153 40.675-24.932H116.31z" id="path-19" class="cls-13" fill-rule="evenodd"/><path d="M119.046 188.025v-8.847H59.777v8.847H41.509v6.436h95.805v-6.436h-18.268z" id="path-20" class="cls-7" fill-rule="evenodd"/><path d="M119.046 188.025v-8.847H59.777v3.412h52.381v8.847h18.268v3.024h6.888v-6.436h-18.268z" id="path-21" class="cls-13" fill-rule="evenodd"/><path d="M126.805 124.088H85.772V86.703c0-1.99 1.629-3.604 3.639-3.604 2.009 0 3.639 1.614 3.639 3.604v30.176h33.755c2.01 0 3.639 1.614 3.639 3.606 0 1.991-1.629 3.603-3.639 3.603z" id="path-22" class="cls-10" fill-rule="evenodd"/></g></svg>