<svg xmlns="http://www.w3.org/2000/svg" preserveAspectRatio="xMidYMid" width="203" height="217" viewBox="0 0 203 217"><defs><style>.cls-3{fill:#fbb713}.cls-7{fill:#142a3b}.cls-8{fill:#2476ff}.cls-12{fill:#fff}.cls-13{fill:#ff3a2f}.cls-14{fill:#a6261f}.cls-16{fill:#010101;opacity:.35}</style></defs><g id="group-5svg" fill-rule="evenodd"><path d="M77.898 216.282h-16.93c-2.985 0-5.402-1.576-5.402-3.52 0-1.945 2.417-3.52 5.4-3.52h7.618c2.983 0 5.4-1.578 5.4-3.522 0-1.943-2.417-3.52-5.4-3.52h-16.35c-2.983 0-5.4-1.576-5.4-3.522 0-1.943 2.417-3.52 5.4-3.52h18.58l3.12.13c2.983 0 5.4-1.576 5.4-3.52 0-1.945-2.417-3.52-5.4-3.52h-16.35c-2.98 0-5.4-1.577-5.4-3.522 0-1.945 2.42-3.52 5.4-3.52l59.447-.13c2.99 0 5.41 1.576 5.41 3.52 0 1.945-2.42 3.52-5.4 3.52h-16.35c-2.982 0-5.4 1.578-5.4 3.522 0 1.944 2.418 3.52 5.4 3.52H159.9c2.983 0 5.402 1.577 5.402 3.52 0 1.946-2.42 3.52-5.406 3.52h-16.35c-2.98 0-5.4 1.58-5.4 3.522 0 1.944 2.42 3.52 5.4 3.52H169c2.983 0 5.4 1.577 5.4 3.522 0 1.944-2.42 3.52-5.402 3.52h-91.1z" id="path-1" class="cls-3"/><path d="M183.315 109.503h5.633c1.088 0 1.967 1.13 1.967 2.527 0 1.395-.88 2.526-1.967 2.526h-.26c-1.087 0-1.968 1.132-1.968 2.527 0 1.395.88 2.527 1.967 2.527h12.11c1.086 0 1.967 1.13 1.967 2.526 0 1.395-.88 2.527-1.967 2.527h-30.55c-1.087 0-1.966-1.132-1.966-2.527 0-1.395.88-2.526 1.97-2.526h3.36c1.09 0 1.97-1.132 1.97-2.527 0-1.395-.88-2.527-1.964-2.527h-16c-1.086 0-1.965-1.13-1.965-2.526s.88-2.527 1.966-2.527h25.704z" id="path-2" class="cls-3"/><path d="M140.58 144.042c2.525 0 4.574-1.286 4.574-2.872 0-1.586-2.05-2.87-4.575-2.87h-14.02c-2.53 0-4.58 1.284-4.58 2.87s2.05 2.872 4.572 2.872h14.02z" id="path-3" class="cls-3"/><path d="M66.568 70.89v19.186c0 2.914 1.132 5.716 3.16 7.826l14.507 15.09a11.293 11.293 0 0 1 3.16 7.826v63.545c0 6.267-5.13 11.348-11.455 11.348H15.543c-6.325 0-11.454-5.08-11.454-11.34V70.89c0-6.268 5.12-11.35 11.45-11.35h39.57c6.32 0 11.45 5.082 11.45 11.35z" id="path-4" class="cls-3"/><path d="M102.07 19.333H90.515a1 1 0 0 1-1-1V8.728a1 1 0 0 1 1-1h11.555a1 1 0 0 1 1 1v9.605a1 1 0 0 1-1 1z" id="path-5" class="cls-7"/><path d="M87.395 132.526l-7.373-8.238c-3.008-3.36-8.356-3.195-11.145.347l-.98 1.244c-2.745 3.48-7.99 3.71-11.03.47l-3.24-3.46c-2.658-2.83-7.1-3.07-10.052-.546l-6.55 5.603c-2.973 2.544-7.45 2.28-10.097-.595l-3.524-3.827c-2.84-3.085-7.725-3.13-10.622-.1l-8.693 9.09v51.84c0 6.265 5.12 11.346 11.45 11.346h60.4c6.32 0 11.45-5.08 11.45-11.345V132.52z" id="path-6" class="cls-8"/><path d="M23.828 81.717H8.988a1.81 1.81 0 0 1-1.82-1.802 1.81 1.81 0 0 1 1.82-1.802h14.84a1.81 1.81 0 0 1 1.82 1.802 1.81 1.81 0 0 1-1.82 1.802z" id="path-7" class="cls-7"/><path d="M23.828 94.484H8.988a1.81 1.81 0 0 1-1.82-1.802 1.81 1.81 0 0 1 1.82-1.803h14.84a1.81 1.81 0 0 1 1.82 1.8 1.81 1.81 0 0 1-1.82 1.8z" id="path-8" class="cls-7"/><path d="M23.828 107.25H8.988a1.81 1.81 0 0 1-1.82-1.804 1.81 1.81 0 0 1 1.82-1.802h14.84a1.81 1.81 0 0 1 1.82 1.802 1.81 1.81 0 0 1-1.82 1.803z" id="path-9" class="cls-7"/><path d="M66.606 180.5c-2.01 0-3.64-1.614-3.64-3.605v-63.702c0-1.99 1.63-3.605 3.64-3.605 2.012 0 3.638 1.615 3.638 3.605v63.702c0 1.99-1.626 3.605-3.638 3.605z" id="path-10" class="cls-12"/><path d="M80.487 25.31v13.153L91.65 53.697c.36.492.552 1.08.552 1.688v4.052c0 2.742-3.505 3.924-5.195 1.755l-14.835-19.05a4.993 4.993 0 0 1-1.057-3.072V25.31h9.372z" id="path-11" class="cls-13"/><path d="M71.115 36.335h9.372v-7.718h-9.372v7.718z" id="path-12" class="cls-14"/><path d="M2.108 18.285L22.478 1.36a5.937 5.937 0 0 1 3.8-1.37H87.72c3.265 0 5.914 2.624 5.914 5.86v16.908c0 3.236-2.65 5.86-5.914 5.86H70.13c-1.46 0-2.87.536-3.956 1.503L54.2 40.8a5.83 5.83 0 0 0-1.958 4.355v1.59c0 3.235-2.65 5.858-5.915 5.858H25.614c-3.265 0-5.914-2.622-5.914-5.857 0-2.868-2.096-5.316-4.952-5.78l-9.49-1.55c-2.794-.46-4.87-2.816-4.95-5.62l-.31-10.856a5.832 5.832 0 0 1 2.11-4.655z" id="path-13" class="cls-13"/><path d="M52.242 46.743v-1.31h-32.78c.102.43.238.85.238 1.31 0 3.235 2.648 5.858 5.914 5.858h20.713c3.266 0 5.915-2.62 5.915-5.85z" id="path-14" class="cls-16"/><path d="M48.345 49.064H21.27c-3.737 0-6.767 4.69-6.767 10.477h40.61c0-5.78-3.03-10.47-6.768-10.47z" id="path-15" class="cls-7"/></g></svg>