<svg xmlns="http://www.w3.org/2000/svg" preserveAspectRatio="xMidYMid" width="217" height="134" viewBox="0 0 217 134"><defs><style>.cls-3{fill:#0cb04a}.cls-5{fill:#ff3a2f}.cls-6{fill:#142a3b}</style></defs><g id="group-150svg"><path d="M111.741 133.961h15.118c2.915 0 5.278-1.787 5.278-3.991 0-2.206-2.363-3.994-5.278-3.994h-.704c-2.915 0-5.278-1.786-5.278-3.99 0-2.205 2.363-3.993 5.278-3.993h32.5c2.915 0 5.278-1.786 5.278-3.992 0-2.205-2.363-3.993-5.278-3.993H39.767c-2.914 0-5.278 1.788-5.278 3.993 0 2.206 2.364 3.992 5.278 3.992h9.02c2.915 0 5.278 1.788 5.278 3.993 0 2.204-2.363 3.99-5.278 3.99H13.362c-2.916 0-5.279 1.788-5.279 3.994 0 2.204 2.363 3.991 5.279 3.991h98.379z" id="path-1" class="cls-3" fill-rule="evenodd"/><path d="M17.977 108.939c2.444 0 4.425 1.915 4.425 4.279 0 2.363-1.981 4.278-4.425 4.278H4.417c-2.444 0-4.425-1.915-4.425-4.278 0-2.364 1.981-4.279 4.425-4.279h13.56z" id="path-2" class="cls-3" fill-rule="evenodd"/><path d="M62.777 106.456c-10.593 0-20.907-5.489-26.575-15.297l-1.314-2.281c-4.091-7.076-5.176-15.328-3.059-23.228 2.118-7.899 7.185-14.5 14.273-18.588l59.166-34.139c14.627-8.431 33.39-3.414 41.837 11.205l1.315 2.272c4.09 7.086 5.179 15.335 3.058 23.236-2.118 7.898-7.184 14.498-14.273 18.586l-5.229 3.021-7.241-12.54 5.233-3.021a16.036 16.036 0 0 0 7.523-9.798 16.001 16.001 0 0 0-1.612-12.24l-1.312-2.271c-4.451-7.708-14.351-10.351-22.062-5.906L53.34 59.606a16.03 16.03 0 0 0-7.524 9.795 16.019 16.019 0 0 0 1.612 12.238l1.316 2.281c4.447 7.694 14.337 10.351 22.058 5.898l13.217-7.624 7.233 12.543-13.216 7.625a30.452 30.452 0 0 1-15.259 4.094z" id="path-3" class="cls-5" fill-rule="evenodd"/><path d="M127.471 97.635c-10.596 0-20.91-5.491-26.577-15.301l-1.312-2.269c-4.094-7.084-5.18-15.337-3.062-23.237 2.119-7.898 7.185-14.499 14.274-18.588l5.236-3.021c3.458-2.002 7.891-.813 9.889 2.654a7.24 7.24 0 0 1-2.655 9.89l-5.236 3.022a16.038 16.038 0 0 0-7.521 9.796 16.01 16.01 0 0 0 1.613 12.236l1.315 2.271c4.454 7.714 14.351 10.357 22.062 5.909l59.165-34.141a16.027 16.027 0 0 0 7.524-9.794 16.018 16.018 0 0 0-1.612-12.238l-1.315-2.27c-4.452-7.711-14.345-10.358-22.063-5.91l-13.209 7.625a7.239 7.239 0 0 1-9.892-2.65 7.243 7.243 0 0 1 2.651-9.891l13.213-7.626c14.634-8.443 33.397-3.413 41.84 11.206l1.312 2.267c4.094 7.087 5.18 15.338 3.062 23.238-2.118 7.898-7.184 14.499-14.274 18.588l-59.164 34.14a30.47 30.47 0 0 1-15.264 4.094z" id="path-4" class="cls-6" fill-rule="evenodd"/></g></svg>