<svg xmlns="http://www.w3.org/2000/svg" preserveAspectRatio="xMidYMid" width="208" height="218" viewBox="0 0 208 218"><defs><style>.cls-3{fill:#2476ff}.cls-4{fill:#fbb713}.cls-6{fill:#020403;opacity:.25}.cls-9{fill:#ff3a2f}</style></defs><g id="group-66svg" fill-rule="evenodd"><path d="M112.71-.012H94.73c0 22.95-4.2 34.528-4.2 34.528h26.382S112.71 22.938 112.71-.012z" id="path-1" class="cls-3"/><path d="M124.495 57.6c-2.437-5.37-7.585-23.084-7.585-23.084H90.527S85.38 52.23 82.943 57.6c-2.44 5.367-4.88 15.3-2.71 17.448 0 0-.303.757-.753 2.2h48.48c-.45-1.443-.756-2.2-.756-2.2 2.17-2.147-.268-12.08-2.71-17.448z" id="path-2" class="cls-4"/><path d="M129.373 167.922c-5.965-10.637-2.266-21.694.553-41.963H77.513c2.817 20.26 6.516 31.32.55 41.96-6.77 12.08-.268 25.77-.268 25.77s8.225 4.56 25.925 4.56c17.697 0 25.922-4.567 25.922-4.567s6.506-13.69-.27-25.77z" id="path-3" class="cls-4"/><path d="M112.71-.012H98.154c0 22.95 4.202 34.53 4.202 34.53h14.556s-4.203-11.58-4.203-34.53z" id="path-4" class="cls-6"/><path d="M124.495 57.6c-2.437-5.368-7.585-23.083-7.585-23.083h-14.556s5.148 17.715 7.586 23.083c2.44 5.37 4.878 15.3 2.71 17.448 0 0 .304.757.754 2.2h14.555c-.45-1.443-.76-2.2-.76-2.2 2.17-2.147-.27-12.08-2.71-17.448z" id="path-5" class="cls-6"/><path d="M129.373 167.922c-5.966-10.637-2.266-21.694.553-41.963H115.37c-2.818 20.26-6.517 31.32-.552 41.96 6.774 12.08.27 25.77.27 25.77s-5.976 3.29-18.643 4.28a93.77 93.77 0 0 0 7.275.28c17.697 0 25.922-4.567 25.922-4.567s6.506-13.69-.27-25.77z" id="path-6" class="cls-6"/><path d="M95.778 100.85c2.597-.342 5.26-.97 7.942-1.743 9.376-2.695 19.006-7.213 27.107-8.013-.822-6.547-2.07-11.285-2.868-13.845H79.48c-1.046 3.35-2.87 10.46-3.485 20.5 6.494 2.18 13.874 3.87 19.782 3.09z" id="path-7" class="cls-9"/><path d="M131.515 99.076c-5.772.084-16.386.565-27.795 2.717a121.908 121.908 0 0 0-7.942 1.765c-7.87 2.034-14.556.863-19.963-1.426-.1 4.546.054 9.574.625 15.06.323 3.106.69 6.02 1.073 8.767h52.413a254.6 254.6 0 0 0 1.074-8.77c.7-6.75.777-12.81.515-18.12z" id="path-8" class="cls-9"/><path d="M127.96 77.25h-14.556c.797 2.56 2.045 7.298 2.868 13.844-8.102.8-17.732 5.318-27.108 8.013a68.687 68.687 0 0 1-4.214 1.07c3.794.755 7.54 1.104 10.828.673 2.597-.342 5.26-.97 7.942-1.743 9.376-2.695 19.006-7.213 27.107-8.013-.822-6.546-2.07-11.285-2.868-13.845z" id="path-9" class="cls-6"/><path d="M80.54 103.702a32.01 32.01 0 0 1-4.725-1.57c-.015.743.023 1.58.02 2.347a32.31 32.31 0 0 0 4.706-.78z" id="path-10" class="cls-6"/><path d="M131.515 99.076c-3.416.05-8.556.25-14.53.842.216 5.107.124 10.87-.542 17.274a254.69 254.69 0 0 1-1.072 8.767h14.56a254.6 254.6 0 0 0 1.078-8.77c.7-6.75.778-12.81.516-18.12z" id="path-11" class="cls-6"/><path d="M110.684 193.58h15.79c3.044 0 5.512 1.55 5.512 3.46s-2.468 3.46-5.512 3.46h-.736c-3.043 0-5.512 1.55-5.512 3.46s2.47 3.46 5.512 3.46h33.945c3.044 0 5.512 1.55 5.512 3.46 0 1.912-2.468 3.46-5.512 3.46H74.055c-3.044 0-5.512-1.548-5.512-3.46 0-1.91 2.468-3.46 5.512-3.46h9.42c3.046 0 5.514-1.55 5.514-3.46s-2.47-3.46-5.52-3.46H38.64c-3.045 0-5.513-1.55-5.513-3.46s2.464-3.46 5.51-3.46h72.04z" id="path-12" class="cls-9"/><path d="M24.985 160.952h5.083c.98 0 1.774.852 1.774 1.9 0 1.05-.794 1.902-1.774 1.902h-.236c-.98 0-1.775.85-1.775 1.9 0 1.05.794 1.9 1.775 1.9H40.76c.98 0 1.775.852 1.775 1.902 0 1.05-.794 1.9-1.775 1.9H13.19c-.98 0-1.773-.85-1.773-1.9 0-1.05.794-1.902 1.774-1.902h3.04c.98 0 1.778-.85 1.778-1.9 0-1.05-.794-1.9-1.774-1.9H1.79c-.98 0-1.775-.85-1.775-1.9 0-1.05.794-1.902 1.774-1.902h23.19z" id="path-13" class="cls-9"/><path d="M181.456 160.952h5.084c.98 0 1.774.852 1.774 1.9 0 1.05-.794 1.902-1.774 1.902h-.237c-.98 0-1.775.85-1.775 1.9 0 1.05.795 1.9 1.775 1.9h10.928c.99 0 1.78.852 1.78 1.902 0 1.05-.79 1.9-1.77 1.9h-27.57c-.98 0-1.775-.85-1.775-1.9 0-1.05.796-1.902 1.776-1.902h3.033c.98 0 1.775-.85 1.775-1.9 0-1.05-.793-1.9-1.774-1.9h-14.44c-.98 0-1.772-.85-1.772-1.9 0-1.05.798-1.902 1.78-1.902h23.197z" id="path-14" class="cls-9"/><path d="M201.137 217.334c3.476 0 6.294-1.77 6.294-3.95 0-2.182-2.81-3.95-6.29-3.95h-19.29c-3.47 0-6.29 1.768-6.29 3.95 0 2.18 2.82 3.95 6.296 3.95h19.286z" id="path-15" class="cls-9"/></g></svg>