<svg xmlns="http://www.w3.org/2000/svg" preserveAspectRatio="xMidYMid" width="219" height="189" viewBox="0 0 219 189"><defs><style>.cls-3{fill:#ff3a2f}.cls-5{fill:#2476ff}.cls-6{fill:#184ea7}.cls-7{fill:#ededed}</style></defs><g id="group-148svg" fill-rule="evenodd"><path d="M66.152 164.628h-19.16c-3.694 0-6.69 1.7-6.69 3.794 0 2.096 2.996 3.794 6.69 3.794h.892c3.694 0 6.69 1.7 6.69 3.795 0 2.1-2.996 3.8-6.69 3.8H6.694c-3.693 0-6.687 1.7-6.687 3.8 0 2.09 2.993 3.79 6.688 3.79h150.67c3.695 0 6.69-1.7 6.69-3.796 0-2.095-2.995-3.794-6.69-3.794h-11.43c-3.694 0-6.69-1.7-6.69-3.795 0-2.095 2.996-3.794 6.69-3.794h44.896c3.7 0 6.69-1.69 6.69-3.79 0-2.09-2.99-3.79-6.69-3.79H66.16z" id="path-1" class="cls-3"/><path d="M195.546 188.41c-3.097 0-5.608-1.82-5.608-4.066 0-2.246 2.51-4.067 5.608-4.067h17.185c3.1 0 5.61 1.82 5.61 4.067 0 2.246-2.51 4.067-5.61 4.067h-17.18z" id="path-2" class="cls-3"/><path d="M44.82 123.316v.006l1.216 1.274c.305.32.596.64.912.953h.013l52.53 54.8 52.498-54.81c.065-.063.127-.13.19-.196l.938-.985 1-1.048v-.007l.04-.043c12.63-13.634 19.585-31.284 19.585-49.7C173.73 33 140.415-.008 99.47-.008 58.515-.003 25.2 33 25.2 73.57c0 18.402 6.954 36.055 19.583 49.7l.04.046z" id="path-3" class="cls-5"/><path d="M110.235 119.01c21.383 0 38.726-17.174 38.726-38.365 0-21.184-17.34-38.364-38.72-38.364-21.4 0-38.74 17.18-38.74 38.37 0 21.19 17.34 38.37 38.74 38.37z" id="path-4" class="cls-6"/><path d="M99.47 111.9c21.384 0 38.726-17.172 38.726-38.362 0-21.185-17.342-38.364-38.725-38.364-21.39 0-38.74 17.18-38.74 38.364 0 21.19 17.35 38.362 38.74 38.362z" id="path-5" class="cls-7"/></g></svg>