<svg xmlns="http://www.w3.org/2000/svg" preserveAspectRatio="xMidYMid" width="219" height="189" viewBox="0 0 219 189"><defs><style>.cls-3{fill:#ff3a2f}.cls-5{fill:#2476ff}.cls-6{fill:#184ea7}.cls-7{fill:#ededed}</style></defs><g id="group-148svg"><path d="M66.152 164.628h-19.16c-3.694 0-6.689 1.699-6.689 3.794 0 2.096 2.995 3.794 6.689 3.794h.892c3.694 0 6.689 1.699 6.689 3.795 0 2.095-2.995 3.794-6.689 3.794H6.695c-3.694 0-6.688 1.699-6.688 3.795 0 2.095 2.994 3.795 6.688 3.795h150.671c3.694 0 6.689-1.7 6.689-3.795 0-2.096-2.995-3.795-6.689-3.795h-11.431c-3.694 0-6.689-1.699-6.689-3.794 0-2.096 2.995-3.795 6.689-3.795h44.896c3.694 0 6.689-1.698 6.689-3.794 0-2.095-2.995-3.794-6.689-3.794H66.152z" id="path-1" class="cls-3" fill-rule="evenodd"/><path d="M195.546 188.411c-3.097 0-5.608-1.821-5.608-4.067 0-2.246 2.511-4.067 5.608-4.067h17.185c3.097 0 5.608 1.821 5.608 4.067 0 2.246-2.511 4.067-5.608 4.067h-17.185z" id="path-2" class="cls-3" fill-rule="evenodd"/><path d="M44.821 123.316v.006l1.215 1.274c.305.319.596.64.912.953h.013l52.522 54.804 52.496-54.804c.065-.062.127-.131.191-.195l.937-.985 1.001-1.047v-.006l.038-.045c12.629-13.635 19.585-31.285 19.585-49.702 0-40.567-33.317-73.574-74.26-73.574-40.957 0-74.273 33.007-74.273 73.574 0 18.403 6.954 36.056 19.583 49.702l.04.045z" id="path-3" class="cls-5" fill-rule="evenodd"/><path d="M110.235 119.01c21.383 0 38.726-17.174 38.726-38.365 0-21.184-17.343-38.364-38.726-38.364-21.398 0-38.74 17.18-38.74 38.364 0 21.191 17.342 38.365 38.74 38.365z" id="path-4" class="cls-6" fill-rule="evenodd"/><path d="M99.471 111.9c21.383 0 38.725-17.172 38.725-38.362 0-21.185-17.342-38.364-38.725-38.364-21.398 0-38.74 17.179-38.74 38.364 0 21.19 17.342 38.362 38.74 38.362z" id="path-5" class="cls-7" fill-rule="evenodd"/></g></svg>