<svg xmlns="http://www.w3.org/2000/svg" preserveAspectRatio="xMidYMid" width="218" height="188" viewBox="0 0 218 188"><defs><style>.cls-3{fill:#0cb04a}.cls-6{fill:#142a3b}.cls-9{fill:#ededed}.cls-10{fill:#090908;opacity:.35}.cls-13{fill:#fbb713}.cls-14{fill:#ff3a2f}.cls-16{fill:#2476ff}</style></defs><g id="group-14svg" fill-rule="evenodd"><path d="M80.357 164.243H61.84c-3.57 0-6.464 1.658-6.464 3.702s2.894 3.702 6.464 3.702h.862c3.57 0 6.464 1.656 6.464 3.7 0 2.045-2.894 3.703-6.464 3.703H22.897c-3.57 0-6.464 1.656-6.464 3.7 0 2.045 2.894 3.702 6.464 3.702h145.61c3.57 0 6.465-1.657 6.465-3.7 0-2.046-2.894-3.702-6.465-3.702H157.46c-3.57 0-6.464-1.658-6.464-3.702 0-2.045 2.894-3.7 6.464-3.7h43.39c3.57 0 6.463-1.66 6.463-3.703 0-2.044-2.894-3.702-6.464-3.702H80.355z" id="path-1" class="cls-3"/><path d="M195.196 187.444c-2.993 0-5.42-1.776-5.42-3.967 0-2.19 2.427-3.967 5.42-3.967h16.608c2.993 0 5.42 1.776 5.42 3.967 0 2.19-2.427 3.967-5.42 3.967h-16.608z" id="path-2" class="cls-3"/><path d="M8.783 168.042c-3.02 0-5.467-1.792-5.467-4.002s2.448-4 5.467-4h16.753c3.02 0 5.467 1.79 5.467 4s-2.448 4.002-5.467 4.002H8.783z" id="path-3" class="cls-3"/><path d="M122.9 158.524H61.873v-4.156h61.03v4.156z" id="path-4" class="cls-6"/><path d="M99.97 175.742H85.128V-.003H99.97v175.745z" id="path-5" class="cls-6"/><path d="M171.292 127.056H17.512V13.06h153.78v113.996z" id="path-6" class="cls-6"/><path d="M159.84 116.97H28.963V23.145H159.84v93.823z" id="path-7" class="cls-9"/><path d="M159.84 35.154L28.963 28.288v-5.142H159.84v12.008z" id="path-8" class="cls-10"/><path d="M188.808 19.294H-.005V9.497h188.813v9.797z" id="path-9" class="cls-6"/><path d="M56.695 95.646a3.617 3.617 0 0 1-2.975-5.677l20.355-29.45 40.016 22.775 16.54-30.974a3.617 3.617 0 0 1 4.9-1.487 3.625 3.625 0 0 1 1.49 4.9L116.976 93.27 76.26 70.095l-16.582 23.99a3.617 3.617 0 0 1-2.983 1.56z" id="path-10" class="cls-6"/><path d="M65.838 91.666a9.14 9.14 0 1 1-18.28 0 9.14 9.14 0 0 1 18.28 0z" id="path-11" class="cls-13"/><path d="M84.965 62.34c0 6.23-5.05 11.28-11.282 11.28-6.23 0-11.28-5.05-11.28-11.28 0-6.23 5.05-11.282 11.28-11.282 6.23 0 11.282 5.05 11.282 11.28z" id="path-12" class="cls-14"/><path d="M126.04 88.284c0 5.802-4.704 10.507-10.508 10.507-5.802 0-10.507-4.702-10.507-10.504 0-5.803 4.705-10.508 10.507-10.508 5.804 0 10.508 4.705 10.508 10.508z" id="path-13" class="cls-3"/><path d="M141.244 51.356a7.42 7.42 0 0 1-7.422 7.42 7.42 7.42 0 0 1 0-14.842 7.42 7.42 0 0 1 7.422 7.422z" id="path-14" class="cls-16"/><path d="M139.108 175.703l21.033.04-56.856-56.857-10.496 10.496 46.322 46.32z" id="path-15" class="cls-6"/><path d="M49.694 175.703l-21.032.04 56.858-56.857 10.496 10.496-46.322 46.32z" id="path-16" class="cls-6"/><path d="M124.38 139.985l-12.927-12.93H77.35l-6.465 6.464 29.086 3.03v.014l24.41 3.42z" id="path-17" class="cls-10"/></g></svg>