<svg xmlns="http://www.w3.org/2000/svg" preserveAspectRatio="xMidYMid" width="169" height="218" viewBox="0 0 169 218"><defs><style>.cls-3{fill:#142a3b}.cls-4{fill:#000;opacity:.35}.cls-5{fill:#ededed}.cls-7{fill:#fbb713}.cls-11{fill:#ff3a2f}</style></defs><g id="group-106svg"><path d="M168.535 217.225H.001V13.629h168.534v203.596z" id="path-1" class="cls-3" fill-rule="evenodd"/><path d="M157.632 202.642H24.48V41.788h133.152v160.854z" id="path-2" class="cls-4" fill-rule="evenodd"/><path d="M150.844 195.853H17.691V35h133.153v160.853z" id="path-3" class="cls-5" fill-rule="evenodd"/><path d="M130.747 56.443H51.365V28.466h79.382v27.977z" id="path-4" class="cls-4" fill-rule="evenodd"/><path d="M123.959 49.655H44.577V21.678h79.382v27.977z" id="path-5" class="cls-7" fill-rule="evenodd"/><path d="M105.524 21.261c0 11.737-9.517 21.255-21.256 21.255-11.74 0-21.257-9.518-21.257-21.255 0-11.74 9.517-21.257 21.257-21.257 11.739 0 21.256 9.517 21.256 21.257z" id="path-6" class="cls-7" fill-rule="evenodd"/><path d="M92.701 21.261a8.434 8.434 0 1 1-16.868-.004 8.434 8.434 0 0 1 16.868.004z" id="path-7" class="cls-3" fill-rule="evenodd"/><path d="M88.259 13.873c.646 1.194 1.047 2.54 1.047 3.992a8.432 8.432 0 0 1-8.433 8.433c-1.452 0-2.798-.401-3.991-1.048 1.427 2.634 4.181 4.443 7.385 4.443a8.434 8.434 0 0 0 8.434-8.434c0-3.205-1.809-5.959-4.442-7.386z" id="path-8" class="cls-4" fill-rule="evenodd"/><path d="M66.402 81.053h-9.07c-1.749 0-3.166.991-3.166 2.216 0 1.224 1.417 2.218 3.166 2.218h.422c1.749 0 3.167.992 3.167 2.216 0 1.226-1.418 2.218-3.167 2.218H38.256c-1.749 0-3.166.993-3.166 2.218s1.417 2.216 3.166 2.216h71.327c1.748 0 3.166-.991 3.166-2.216s-1.418-2.218-3.166-2.218h-5.412c-1.749 0-3.167-.992-3.167-2.218 0-1.224 1.418-2.216 3.167-2.216h21.254c1.749 0 3.166-.994 3.166-2.218 0-1.225-1.417-2.216-3.166-2.216H66.402z" id="path-9" class="cls-11" fill-rule="evenodd"/><path d="M122.656 94.95c-1.466 0-2.655-1.064-2.655-2.376 0-1.313 1.189-2.378 2.655-2.378h8.135c1.466 0 2.655 1.065 2.655 2.378 0 1.312-1.189 2.376-2.655 2.376h-8.135z" id="path-10" class="cls-11" fill-rule="evenodd"/><path d="M66.402 148.933h-9.07c-1.749 0-3.166.993-3.166 2.217 0 1.225 1.417 2.219 3.166 2.219h.422c1.749 0 3.167.992 3.167 2.217 0 1.224-1.418 2.216-3.167 2.216H38.256c-1.749 0-3.166.994-3.166 2.218 0 1.225 1.417 2.217 3.166 2.217h71.327c1.748 0 3.166-.992 3.166-2.217 0-1.224-1.418-2.218-3.166-2.218h-5.412c-1.749 0-3.167-.992-3.167-2.216 0-1.225 1.418-2.217 3.167-2.217h21.254c1.749 0 3.166-.994 3.166-2.219 0-1.224-1.417-2.217-3.166-2.217H66.402z" id="path-11" class="cls-11" fill-rule="evenodd"/><path d="M122.656 162.831c-1.466 0-2.655-1.063-2.655-2.374 0-1.315 1.189-2.378 2.655-2.378h8.135c1.466 0 2.655 1.063 2.655 2.378 0 1.311-1.189 2.374-2.655 2.374h-8.135z" id="path-12" class="cls-11" fill-rule="evenodd"/><path d="M102.133 114.992h9.07c1.749 0 3.167.992 3.167 2.217 0 1.224-1.418 2.218-3.167 2.218h-.422c-1.749 0-3.167.993-3.167 2.217 0 1.225 1.418 2.218 3.167 2.218h19.498c1.749 0 3.167.993 3.167 2.217 0 1.225-1.418 2.218-3.167 2.218H58.953c-1.749 0-3.167-.993-3.167-2.218 0-1.224 1.418-2.217 3.167-2.217h5.411c1.749 0 3.167-.993 3.167-2.218 0-1.224-1.418-2.217-3.167-2.217H43.11c-1.748 0-3.166-.994-3.166-2.218 0-1.225 1.418-2.217 3.166-2.217h59.023z" id="path-13" class="cls-11" fill-rule="evenodd"/><path d="M45.88 128.89c1.466 0 2.655-1.063 2.655-2.375 0-1.313-1.189-2.377-2.655-2.377h-8.136c-1.466 0-2.654 1.064-2.654 2.377 0 1.312 1.188 2.375 2.654 2.375h8.136z" id="path-14" class="cls-11" fill-rule="evenodd"/></g></svg>