<?xml version="1.0" standalone="no"?>
<!DOCTYPE svg PUBLIC "-//W3C//DTD SVG 20010904//EN"
 "http://www.w3.org/TR/2001/REC-SVG-20010904/DTD/svg10.dtd">
<svg version="1.0" xmlns="http://www.w3.org/2000/svg"
 width="678.000000pt" height="287.000000pt" viewBox="0 0 678.000000 287.000000"
 preserveAspectRatio="xMidYMid meet">
<metadata>
Created by potrace 1.13, written by Peter Selinger 2001-2015
</metadata>
<g transform="translate(0.000000,287.000000) scale(0.100000,-0.100000)"
fill="#000000">
<path fill="transparent" d="M0 1435 l0 -1435 3390 0 3390 0 0 1435 0 1435 -3390 0 -3390 0 0
-1435z m4676 1336 c23 -10 52 -34 65 -52 24 -34 24 -37 27 -306 l3 -272 46 30
47 29 252 0 c154 0 264 -4 281 -11 15 -5 42 -23 58 -39 l31 -30 38 26 c61 42
155 80 240 99 115 26 309 17 431 -19 122 -37 178 -69 255 -146 117 -117 157
-224 167 -445 7 -163 -4 -231 -47 -298 -29 -45 -29 -47 -14 -84 19 -45 15 -87
-27 -264 -32 -134 -65 -203 -114 -235 -51 -33 -173 -55 -338 -61 -225 -8 -333
12 -489 92 -44 22 -68 30 -68 21 0 -19 -50 -63 -92 -80 -30 -13 -84 -16 -290
-16 -139 0 -269 4 -287 10 -19 5 -50 24 -68 42 l-33 31 -25 -27 c-46 -50 -78
-56 -279 -56 l-184 0 -17 -43 c-31 -79 -89 -162 -165 -238 -137 -138 -284
-189 -537 -189 -125 0 -142 3 -178 23 -22 12 -50 40 -63 62 -22 38 -23 46 -17
175 3 73 9 146 12 161 5 26 3 27 -62 38 -150 26 -257 81 -356 183 l-67 69 -7
-33 c-19 -87 -81 -165 -147 -187 -128 -41 -414 -54 -556 -25 -150 31 -307 116
-395 214 l-39 42 -31 -38 c-78 -97 -169 -163 -274 -199 -130 -45 -298 -58
-403 -31 -30 8 -55 14 -56 13 0 -1 -6 -31 -13 -67 -42 -216 -281 -473 -474
-509 -90 -16 -161 13 -203 84 l-24 42 2 915 3 914 25 37 c49 72 71 77 306 77
180 -1 214 -3 242 -18 32 -18 34 -17 120 12 77 26 100 30 207 30 205 0 356
-57 483 -184 l68 -68 51 63 c112 136 279 214 482 223 271 12 494 -68 604 -217
22 -31 42 -57 43 -59 0 -1 33 29 71 66 83 82 194 142 308 167 112 25 303 17
408 -17 60 -20 77 -23 77 -12 0 11 34 14 189 14 l189 0 10 58 c24 133 91 254
203 364 148 146 287 198 395 149z"/>
<path fill="#FFFFFF" d="M4529 2583 c-76 -38 -185 -151 -229 -238 l-35 -69 -3 -693 -2 -693
170 0 170 0 0 272 c0 169 4 268 9 263 5 -6 75 -127 155 -270 l145 -260 227 -3
c182 -2 225 0 217 10 -6 7 -99 140 -207 295 l-196 283 185 265 c102 145 185
267 185 270 0 3 -90 5 -199 5 l-200 0 -158 -252 -158 -253 -3 548 c-1 301 -6
547 -10 547 -4 0 -33 -12 -63 -27z"/>
<path fill="#ff0000" d="M2160 2079 c-104 -9 -190 -43 -267 -105 -56 -46 -135 -167 -164 -251
-21 -60 -24 -85 -23 -223 0 -130 4 -168 23 -238 69 -246 282 -392 571 -392
195 0 331 88 370 240 6 25 13 53 16 62 5 16 -2 15 -59 -7 -236 -88 -472 -64
-551 56 -25 38 -56 109 -56 130 0 5 132 9 293 9 284 0 294 1 337 23 79 40 85
56 84 230 -1 133 -4 159 -23 210 -30 77 -93 153 -157 189 -94 52 -253 80 -394
67z m196 -278 c23 -10 53 -32 68 -47 28 -30 56 -108 56 -156 l0 -28 -231 0
-231 0 7 37 c16 85 76 167 145 197 49 21 136 20 186 -3z"/>
<path fill="#ff0000" d="M5755 2057 c-91 -30 -138 -61 -205 -134 -66 -71 -115 -167 -137 -265
-18 -88 -12 -291 12 -383 52 -199 194 -337 400 -390 91 -23 270 -20 339 5 113
43 183 121 210 237 l14 61 -47 -20 c-79 -33 -201 -58 -292 -58 -157 0 -245 44
-298 151 -53 107 -75 99 266 99 281 0 299 1 340 21 70 34 78 59 77 229 -1 120
-4 155 -22 202 -64 177 -201 256 -457 264 -116 4 -137 2 -200 -19z m281 -252
c78 -23 130 -91 141 -186 l6 -49 -233 0 -232 0 7 37 c10 57 51 129 90 160 66
53 133 64 221 38z"/>
<path fill="#ff0000" d="M1015 2039 c-86 -13 -176 -61 -256 -136 l-69 -65 0 91 0 91 -160 0
-160 0 0 -859 0 -860 32 10 c91 26 227 158 286 278 l37 75 3 193 4 194 66 -62
c38 -36 93 -75 131 -93 61 -29 74 -31 176 -31 186 0 300 51 399 178 81 104
116 223 116 395 0 198 -52 353 -155 461 -58 61 -141 112 -210 129 -62 16 -174
21 -240 11z m94 -289 c75 -38 124 -119 142 -231 14 -89 5 -168 -27 -239 -32
-70 -57 -97 -119 -126 -71 -34 -154 -33 -224 2 -177 89 -206 424 -48 559 76
66 189 80 276 35z"/>
<path fill="#ff0000" d="M3220 2031 c-116 -37 -188 -90 -252 -184 -74 -109 -108 -237 -108
-405 1 -332 165 -539 453 -571 153 -17 268 22 377 129 l60 60 0 -89 c0 -99
-13 -142 -57 -182 -40 -38 -65 -49 -141 -63 l-67 -12 -7 -85 c-3 -46 -9 -112
-12 -146 l-5 -63 103 0 c128 0 193 12 275 50 86 41 178 136 228 238 l38 76 3
618 3 618 -156 0 -155 0 0 -92 0 -92 -57 56 c-82 79 -137 115 -211 138 -84 26
-233 27 -312 1z m385 -279 c104 -57 151 -162 143 -318 -6 -100 -23 -150 -79
-217 -45 -55 -101 -80 -179 -80 -143 -1 -232 83 -260 246 -20 114 17 264 82
334 64 69 202 85 293 35z"/>
</g>
</svg>
