<svg xmlns="http://www.w3.org/2000/svg" preserveAspectRatio="xMidYMid" width="161" height="217" viewBox="0 0 161 217"><defs><style>.cls-3{fill:#0cb04a}.cls-4{fill:#020403;opacity:.35}.cls-7{fill:#ff3a2f}.cls-8{fill:#142a3b}.cls-10{fill:#020403;opacity:.45}.cls-11{fill:#ededed}.cls-12{fill:#fbb713}</style></defs><g id="group-92svg"><path d="M102.328 102.675c-.982 7.673-2.491 15.069-4.49 22.092l-1.434 8.704 24.716 6.854v-23.277l-18.792-14.373z" id="path-1" class="cls-3" fill-rule="evenodd"/><path d="M106.775 130.045l1.435-8.703a146.72 146.72 0 0 0 2.846-11.992l-8.728-6.675c-.982 7.673-2.491 15.069-4.49 22.092l-1.434 8.704 24.716 6.854v-6.301l-14.345-3.979z" id="path-2" class="cls-4" fill-rule="evenodd"/><path d="M56.959 102.465l-22.265 14.583v23.277l27.05-6.854-2.177-16.167a153.591 153.591 0 0 1-2.608-14.839z" id="path-3" class="cls-3" fill-rule="evenodd"/><path d="M59.567 117.304a153.591 153.591 0 0 1-2.608-14.839l-5.823 3.814c.447 2.57.948 5.108 1.517 7.601l2.177 16.165-20.136 5.104v5.176l27.05-6.854-2.177-16.167z" id="path-4" class="cls-4" fill-rule="evenodd"/><path d="M52.205 85.459c0 16.881 2.567 32.874 7.158 47.181 6.321 19.701 34.269 19.701 40.591 0 4.59-14.307 7.157-30.3 7.157-47.181 0-34.454-10.697-65.215-27.453-85.463-16.756 20.248-27.453 51.009-27.453 85.463z" id="path-5" class="cls-7" fill-rule="evenodd"/><path d="M96.68 47.652H60.291c-2.011 0-3.639-1.508-3.639-3.499 0-1.992 1.628-3.5 3.639-3.5H96.68c2.011 0 3.638 1.508 3.638 3.5 0 1.991-1.627 3.499-3.638 3.499z" id="path-6" class="cls-8" fill-rule="evenodd"/><path d="M79.658.042v147.421c8.567 0 17.134-4.927 20.296-14.777 4.59-14.306 7.157-30.3 7.157-47.182 0-34.453-10.697-65.214-27.453-85.462z" id="path-7" class="cls-4" fill-rule="evenodd"/><path d="M96.805 76.471c0-5.89-4.819-10.663-10.762-10.663-5.944 0-10.763 4.773-10.763 10.663 0 5.887 4.819 10.661 10.763 10.661 5.943 0 10.762-4.774 10.762-10.661z" id="path-8" class="cls-10" fill-rule="evenodd"/><path d="M89.891 73.046c0-5.888-4.819-10.661-10.763-10.661s-10.762 4.773-10.762 10.661 4.818 10.662 10.762 10.662c5.944 0 10.763-4.774 10.763-10.662z" id="path-9" class="cls-11" fill-rule="evenodd"/><path d="M109.704 199.113h14.919c2.876 0 5.208 1.283 5.208 2.863 0 1.581-2.332 2.862-5.208 2.862h-.694c-2.877 0-5.209 1.282-5.209 2.862 0 1.581 2.332 2.863 5.209 2.863h32.07c2.877 0 5.209 1.282 5.209 2.862s-2.332 2.862-5.209 2.862H38.681c-2.876 0-5.208-1.282-5.208-2.862s2.332-2.862 5.208-2.862h8.901c2.876 0 5.208-1.282 5.208-2.863 0-1.58-2.332-2.862-5.208-2.862H5.222c-2.877 0-5.209-1.281-5.209-2.862 0-1.58 2.332-2.863 5.209-2.863h104.482z" id="path-10" class="cls-12" fill-rule="evenodd"/><path d="M89.946 148.118v-4.931c0-.951-1.178-1.721-2.632-1.721-1.454 0-2.632.77-2.632 1.721v.229c0 .951-1.179 1.721-2.632 1.721-1.454 0-2.633-.77-2.633-1.721v-10.598c0-.951-1.178-1.721-2.631-1.721-1.454 0-2.632.77-2.632 1.721v38.771c0 .95 1.178 1.721 2.632 1.721 1.453 0 2.631-.771 2.631-1.721v-2.941c0-.951 1.179-1.722 2.633-1.722 1.453 0 2.632.771 2.632 1.722v13.999c0 .95 1.178 1.721 2.632 1.721 1.454 0 2.632-.771 2.632-1.721v-34.529z" id="path-11" class="cls-8" fill-rule="evenodd"/><path d="M67.202 153.632v-2.421c0-.466-.579-.845-1.292-.845-.714 0-1.293.379-1.293.845v.113c0 .467-.578.846-1.292.846-.714 0-1.293-.379-1.293-.846v-5.204c0-.467-.578-.845-1.292-.845-.713 0-1.291.378-1.291.845v19.037c0 .466.578.845 1.291.845.714 0 1.292-.379 1.292-.845v-1.444c0-.467.579-.846 1.293-.846s1.292.379 1.292.846v6.872c0 .468.579.846 1.293.846.713 0 1.292-.378 1.292-.846v-16.953z" id="path-12" class="cls-8" fill-rule="evenodd"/><path d="M108.686 177.606v-2.422c0-.466-.578-.845-1.291-.845-.715 0-1.293.379-1.293.845v.113c0 .467-.579.845-1.293.845-.713 0-1.292-.378-1.292-.845v-5.204c0-.467-.578-.845-1.292-.845-.713 0-1.292.378-1.292.845v19.036c0 .468.579.846 1.292.846.714 0 1.292-.378 1.292-.846v-1.444c0-.467.579-.845 1.292-.845.714 0 1.293.378 1.293.845v6.874c0 .466.578.845 1.293.845.713 0 1.291-.379 1.291-.845v-16.953z" id="path-13" class="cls-8" fill-rule="evenodd"/><path d="M77.611 191.128c0-2.57 1.351-4.653 3.018-4.653 1.666 0 3.017 2.083 3.017 4.653v14.257c0 2.569-1.351 4.651-3.017 4.651-1.667 0-3.018-2.082-3.018-4.651v-14.257z" id="path-14" class="cls-8" fill-rule="evenodd"/><path d="M56.906 184.923c0-2.163 1.139-3.917 2.543-3.917 1.403 0 2.541 1.754 2.541 3.917v12.01c0 2.163-1.138 3.919-2.541 3.919-1.404 0-2.543-1.756-2.543-3.919v-12.01z" id="path-15" class="cls-8" fill-rule="evenodd"/><path d="M104.569 151.729c0-2.165 1.138-3.92 2.542-3.92s2.542 1.755 2.542 3.92v12.008c0 2.164-1.138 3.919-2.542 3.919s-2.542-1.755-2.542-3.919v-12.008z" id="path-16" class="cls-8" fill-rule="evenodd"/></g></svg>