<svg xmlns="http://www.w3.org/2000/svg" preserveAspectRatio="xMidYMid" width="219" height="186" viewBox="0 0 219 186"><defs><style>.cls-3{fill:#ededed}.cls-4{fill:#020403;opacity:.25}.cls-6{fill:#fbb713}.cls-7{fill:#fff}</style></defs><g id="group-77svg"><path d="M75.175 38.856s55.923-87.392 116.571 0c0 0 47.26 25.42 15.755 64.989 0 0-3.939 114.477-127.6 53.615 0 0-113.422-56.961-4.726-118.604z" id="path-1" class="cls-3" fill-rule="evenodd"/><path d="M191.746 38.856C172.898 11.697 154.509 1.425 138.109.159c12.23 5.161 25.21 15.898 38.416 34.927 0 0 47.26 25.419 15.754 64.989 0 0-2.905 84.205-81.755 69.771 93.702 28.729 96.977-66.001 96.977-66.001 31.505-39.569-15.755-64.989-15.755-64.989z" id="path-2" class="cls-4" fill-rule="evenodd"/><path d="M168.409 89.8c0 21.275-17.41 38.522-38.887 38.522-21.476 0-38.885-17.247-38.885-38.522 0-21.276 17.409-38.523 38.885-38.523 21.477 0 38.887 17.247 38.887 38.523z" id="path-3" class="cls-4" fill-rule="evenodd"/><path d="M160.15 89.8c0 16.757-13.712 30.34-30.628 30.34-16.914 0-30.627-13.583-30.627-30.34 0-16.757 13.713-30.34 30.627-30.34 16.916 0 30.628 13.583 30.628 30.34z" id="path-4" class="cls-6" fill-rule="evenodd"/><path d="M111.54 92.188c-2.011 0-3.638-1.614-3.638-3.605 0-13.219 10.856-23.972 24.196-23.972 2.011 0 3.64 1.614 3.64 3.605 0 1.989-1.629 3.603-3.64 3.603-9.328 0-16.918 7.521-16.918 16.764 0 1.991-1.628 3.605-3.64 3.605z" id="path-5" class="cls-7" fill-rule="evenodd"/><path d="M40.519 157.075H28.781c-2.263 0-4.097 2.115-4.097 4.721 0 2.607 1.834 4.72 4.097 4.72h.546c2.264 0 4.098 2.113 4.098 4.721 0 2.607-1.834 4.721-4.098 4.721H4.095c-2.262 0-4.097 2.113-4.097 4.72 0 2.606 1.835 4.72 4.097 4.72h92.301c2.264 0 4.098-2.114 4.098-4.72 0-2.607-1.834-4.72-4.098-4.72h-7.002c-2.262 0-4.097-2.114-4.097-4.721 0-2.608 1.835-4.721 4.097-4.721h33.327c2.264 0 4.098-2.113 4.098-4.72 0-2.606-1.834-4.721-4.098-4.721H40.519z" id="path-6" class="cls-6" fill-rule="evenodd"/><path d="M141.039 184.919c-3.719 0-6.735-1.473-6.735-3.29 0-1.818 3.016-3.291 6.735-3.291h20.636c3.72 0 6.734 1.473 6.734 3.291 0 1.817-3.014 3.29-6.734 3.29h-20.636z" id="path-7" class="cls-6" fill-rule="evenodd"/><path d="M54.303 8.503h-4.815c-.929 0-1.682.867-1.682 1.936 0 1.07.753 1.937 1.682 1.937h.224c.928 0 1.681.867 1.681 1.936 0 1.07-.753 1.936-1.681 1.936H39.36c-.927 0-1.68.867-1.68 1.937s.753 1.937 1.68 1.937h37.866c.927 0 1.681-.867 1.681-1.937s-.754-1.937-1.681-1.937h-2.873c-.929 0-1.681-.866-1.681-1.936 0-1.069.752-1.936 1.681-1.936h13.672c.929 0 1.68-.867 1.68-1.937 0-1.069-.751-1.936-1.68-1.936H54.303z" id="path-8" class="cls-6" fill-rule="evenodd"/><path d="M112.362 22.89c-2.33 0-4.221-.923-4.221-2.063 0-1.14 1.891-2.064 4.221-2.064h12.939c2.332 0 4.221.924 4.221 2.064 0 1.14-1.889 2.063-4.221 2.063h-12.939z" id="path-9" class="cls-6" fill-rule="evenodd"/></g></svg>