<svg xmlns="http://www.w3.org/2000/svg" preserveAspectRatio="xMidYMid" width="217" height="191" viewBox="0 0 217 191"><defs><style>.cls-3{fill:#142a3b}.cls-5{fill:#ff3a2f}.cls-7{fill:#0cb04a}.cls-8{fill:#000;opacity:.35}</style></defs><g id="group-109svg" fill-rule="evenodd"><path d="M82.663 160.26H64.458c-3.51 0-6.356 2.15-6.356 4.8s2.846 4.8 6.356 4.8h.847c3.51 0 6.356 2.15 6.356 4.8 0 2.652-2.84 4.802-6.35 4.802H26.17c-3.51 0-6.355 2.15-6.355 4.8s2.845 4.8 6.355 4.8h143.16c3.51 0 6.355-2.15 6.355-4.8s-2.845-4.8-6.355-4.8h-10.86c-3.512 0-6.357-2.15-6.357-4.8 0-2.652 2.845-4.8 6.356-4.8h42.652c3.51 0 6.355-2.15 6.355-4.802 0-2.65-2.845-4.8-6.355-4.8H82.662z" id="path-1" class="cls-3"/><path d="M195.57 190.347c-2.944 0-5.33-2.302-5.33-5.144 0-2.84 2.386-5.145 5.33-5.145h16.328c2.943 0 5.328 2.304 5.328 5.145 0 2.842-2.385 5.144-5.328 5.144h-16.33z" id="path-2" class="cls-3"/><path d="M134.915 152.253c0 7.38 5.955 13.36 13.3 13.36 7.342 0 13.297-5.98 13.297-13.36 0-7.377-5.955-13.36-13.298-13.36-7.344 0-13.3 5.983-13.3 13.36z" id="path-3" class="cls-5"/><path d="M66.522 152.253c0 7.38 5.955 13.36 13.3 13.36 7.342 0 13.297-5.98 13.297-13.36 0-7.377-5.96-13.36-13.3-13.36-7.348 0-13.3 5.983-13.3 13.36z" id="path-4" class="cls-5"/><path d="M62.7 111.392h114.996l26.596-80.163H44.71" id="path-5" class="cls-7"/><path d="M180.586 31.23L171.8 57.707c-8.073 24.334-30.868 40.764-56.555 40.764H59.8l2.9 12.92h114.996l26.597-80.16h-23.707z" id="path-6" class="cls-8"/><path d="M164.397 132.825H64.065L31.838 7.247H3.618a3.62 3.62 0 0 1 0-7.24h33.838l32.228 125.577h94.713a3.622 3.622 0 0 1 0 7.24z" id="path-7" class="cls-3"/></g></svg>