<svg xmlns="http://www.w3.org/2000/svg" preserveAspectRatio="xMidYMid" width="217" height="219" viewBox="0 0 217 219"><defs><style>.cls-3{fill:#fbb713}.cls-5{fill:#0cb04a}.cls-6{fill:#ff3a2f}.cls-7{fill:#000;opacity:.35}</style></defs><g id="group-143svg"><path d="M125.394 219.076h16.965c3.271 0 5.923-2.007 5.923-4.481 0-2.476-2.652-4.482-5.923-4.482h-.79c-3.27 0-5.923-2.008-5.923-4.484s2.653-4.482 5.923-4.482h36.471c3.271 0 5.923-2.008 5.923-4.484s-2.652-4.483-5.923-4.483H44.627c-3.271 0-5.923 2.007-5.923 4.483 0 2.476 2.652 4.484 5.923 4.484h10.122c3.271 0 5.922 2.006 5.922 4.482 0 2.476-2.651 4.484-5.922 4.484H14.995c-3.271 0-5.923 2.006-5.923 4.482 0 2.474 2.652 4.481 5.923 4.481h110.399z" id="path-1" class="cls-3" fill-rule="evenodd"/><path d="M20.175 190.981c2.742 0 4.965 2.15 4.965 4.803s-2.223 4.804-4.965 4.804H4.958c-2.743 0-4.966-2.151-4.966-4.804 0-2.653 2.223-4.803 4.966-4.803h15.217z" id="path-2" class="cls-3" fill-rule="evenodd"/><path d="M173.523 122.356c0 43.44-35.214 78.653-78.655 78.653-43.442 0-78.656-35.213-78.656-78.653 0-43.44 35.214-78.653 78.656-78.653v78.653h78.655z" id="path-3" class="cls-5" fill-rule="evenodd"/><path d="M217.22 104.877c0-57.922-46.949-104.87-104.873-104.87v104.87H217.22z" id="path-4" class="cls-6" fill-rule="evenodd"/><path d="M86.827 122.356h8.041V43.703a71.29 71.29 0 0 0-8.041.452v78.201z" id="path-5" class="cls-7" fill-rule="evenodd"/><path d="M165.077 122.356c-4.027 39.661-37.523 70.612-78.25 70.612-19.673 0-37.613-7.27-51.406-19.207 14.423 16.661 35.678 27.248 59.447 27.248 43.441 0 78.655-35.214 78.655-78.653h-8.446z" id="path-6" class="cls-7" fill-rule="evenodd"/><path d="M182.367 26.819c16.665 18.567 26.813 43.103 26.813 70.019h-96.833v8.039h104.874c0-31.006-13.464-58.859-34.854-78.058z" id="path-7" class="cls-7" fill-rule="evenodd"/></g></svg>