<svg xmlns="http://www.w3.org/2000/svg" preserveAspectRatio="xMidYMid" width="218" height="160" viewBox="0 0 218 160"><defs><style>.cls-3{fill:#fbb713}.cls-5{fill:#ff3a2f}.cls-10{fill:#000;opacity:.35}</style></defs><g id="group-147svg"><path d="M52.417 134.84H37.236c-2.927 0-5.299 1.795-5.299 4.01 0 2.216 2.372 4.012 5.299 4.012h.707c2.927 0 5.3 1.796 5.3 4.011 0 2.214-2.373 4.01-5.3 4.01H5.31c-2.926 0-5.299 1.797-5.299 4.012s2.373 4.011 5.299 4.011h119.374c2.926 0 5.299-1.796 5.299-4.011s-2.373-4.012-5.299-4.012h-9.057c-2.927 0-5.3-1.796-5.3-4.01 0-2.215 2.373-4.011 5.3-4.011h35.57c2.927 0 5.3-1.796 5.3-4.012 0-2.215-2.373-4.01-5.3-4.01h-98.78z" id="path-1" class="cls-3" fill-rule="evenodd"/><path d="M146.563 159.979c-2.454 0-4.443-1.924-4.443-4.299 0-2.374 1.989-4.298 4.443-4.298h13.616c2.453 0 4.443 1.924 4.443 4.298 0 2.375-1.99 4.299-4.443 4.299h-13.616z" id="path-2" class="cls-3" fill-rule="evenodd"/><path d="M174.935 123.409a7.229 7.229 0 0 1-2.739-.541l-60.888-24.911a7.24 7.24 0 0 1-3.956-9.443 7.238 7.238 0 0 1 9.444-3.96l60.887 24.911a7.24 7.24 0 0 1 3.956 9.444 7.238 7.238 0 0 1-6.704 4.5z" id="path-3" class="cls-5" fill-rule="evenodd"/><path d="M114.056 63.458a7.243 7.243 0 0 1-2.684-13.97l53.515-21.308a7.244 7.244 0 0 1 9.409 4.049 7.242 7.242 0 0 1-4.049 9.404l-53.515 21.308c-.88.35-1.785.517-2.676.517z" id="path-4" class="cls-5" fill-rule="evenodd"/><path d="M174.939 140.152c9.677 9.676 25.365 9.676 35.042 0 9.677-9.676 9.677-25.365 0-35.041-9.677-9.678-25.365-9.678-35.042 0-9.677 9.675-9.677 25.365 0 35.041z" id="path-5" class="cls-5" fill-rule="evenodd"/><path d="M167.567 42.278c9.677 9.676 25.366 9.676 35.042 0 9.677-9.676 9.678-25.365 0-35.041-9.677-9.677-25.365-9.677-35.042 0-9.677 9.676-9.677 25.365 0 35.041z" id="path-6" class="cls-5" fill-rule="evenodd"/><path d="M75.796 98.155c13.487 13.486 35.353 13.486 48.84 0 13.487-13.487 13.487-35.352 0-48.84-13.487-13.486-35.353-13.486-48.84 0-13.487 13.488-13.487 35.353 0 48.84z" id="path-7" class="cls-5" fill-rule="evenodd"/><path d="M209.981 105.111a24.414 24.414 0 0 0-1.942-1.744c7.89 9.73 7.311 24.045-1.743 33.099-9.054 9.054-23.37 9.634-33.102 1.744a25.192 25.192 0 0 0 1.745 1.942c9.677 9.676 25.365 9.676 35.042 0 9.677-9.676 9.677-25.366 0-35.041z" id="path-8" class="cls-10" fill-rule="evenodd"/><path d="M202.609 7.237a24.58 24.58 0 0 0-1.94-1.745c7.888 9.731 7.309 24.046-1.746 33.1-9.053 9.054-23.369 9.633-33.101 1.745a24.994 24.994 0 0 0 1.745 1.941c9.677 9.676 25.366 9.676 35.042 0 9.677-9.676 9.677-25.365 0-35.041z" id="path-9" class="cls-10" fill-rule="evenodd"/><path d="M124.637 49.315c-.624-.622-1.281-1.185-1.937-1.749 11.678 13.568 11.115 34.038-1.75 46.903-12.864 12.865-33.336 13.426-46.905 1.75.565.655 1.129 1.313 1.75 1.935 13.488 13.487 35.354 13.487 48.842 0 13.486-13.486 13.486-35.351 0-48.839z" id="path-10" class="cls-10" fill-rule="evenodd"/></g></svg>