<svg xmlns="http://www.w3.org/2000/svg" preserveAspectRatio="xMidYMid" width="217" height="199" viewBox="0 0 217 199"><defs><style>.cls-3{fill:#142a3b}.cls-6{fill:#ff3a2f}.cls-7{fill:#090908;opacity:.35}.cls-8{fill:#0cb04a}</style></defs><g id="group-30svg" fill-rule="evenodd"><path d="M106.217 174.748H91.075c-2.92 0-5.286 1.694-5.286 3.785 0 2.09 2.36 3.785 5.28 3.785h.7c2.92 0 5.286 1.694 5.286 3.785 0 2.09-2.367 3.786-5.287 3.786H59.23c-2.92 0-5.287 1.69-5.287 3.78s2.367 3.78 5.286 3.78H178.3c2.92 0 5.287-1.696 5.287-3.787 0-2.09-2.367-3.784-5.287-3.784h-9.033c-2.92 0-5.286-1.696-5.286-3.787 0-2.09 2.37-3.786 5.29-3.786h35.48c2.92 0 5.29-1.695 5.29-3.785s-2.364-3.786-5.284-3.786H106.22z" id="path-1" class="cls-3"/><path d="M199.213 198.473c-2.448 0-4.432-1.817-4.432-4.058 0-2.24 1.99-4.056 4.44-4.056h13.58c2.45 0 4.435 1.81 4.435 4.05 0 2.24-1.984 4.06-4.432 4.06h-13.58z" id="path-2" class="cls-3"/><path d="M27.92 198.473c-2.45 0-4.434-1.817-4.434-4.058 0-2.24 1.985-4.056 4.433-4.056h13.57c2.45 0 4.43 1.81 4.43 4.05 0 2.24-1.983 4.06-4.432 4.06H27.91z" id="path-3" class="cls-3"/><path d="M143.432 176.562H15.935V61.782h127.497v114.78z" id="path-4" class="cls-6"/><path d="M81.216 66.022h-10.34v110.54h10.34V66.022z" id="path-5" class="cls-7"/><path d="M84.853 66.022h-10.34v110.54h10.34V66.022z" id="path-6" class="cls-8"/><path d="M120.67 3.693C113.724-3.25 99.32-.105 88.497 10.72c-4.063 4.062-7.043 8.63-8.815 13.116-1.77-4.487-4.752-9.054-8.815-13.117C60.045-.11 45.64-3.25 38.697 3.69c-6.944 6.943-3.8 21.347 7.026 32.17 10.824 10.824 25.227 13.97 32.17 7.025.71-.708 1.288-1.514 1.79-2.368.502.853 1.08 1.66 1.79 2.367 6.943 6.945 21.346 3.8 32.17-7.025 10.824-10.83 13.97-25.23 7.026-32.17zM77.783 42.778c-3.728 3.728-12.436 1.063-19.45-5.953-7.017-7.016-9.682-15.723-5.955-19.45 3.727-3.728 12.435-1.062 19.45 5.953 2.688 2.687 4.722 5.62 6.018 8.428-.185 2.953.26 5.69 1.405 8.007-.23 1.174-.67 2.224-1.47 3.015zm23.25-5.953c-7.015 7.016-15.724 9.68-19.45 5.953-.792-.79-1.236-1.84-1.47-3.015 1.144-2.316 1.59-5.054 1.405-8.007 1.294-2.808 3.33-5.74 6.016-8.428 7.016-7.015 15.724-9.68 19.45-5.954 3.73 3.728 1.063 12.435-5.952 19.45z" id="path-7" class="cls-8"/><path d="M107.01 28.504c-1.16 2.476-2.94 5.032-5.184 7.44h11.73c.03-.028.06-.052.087-.08a41.655 41.655 0 0 0 5.862-7.36H107.01z" id="path-8" class="cls-7"/><path d="M81.52 31.756c.494-1.073 1.13-2.163 1.835-3.252H76.01c.708 1.09 1.343 2.18 1.838 3.252-.09 1.458-.026 2.86.198 4.188h3.275a18.2 18.2 0 0 0 .2-4.188z" id="path-9" class="cls-7"/><path d="M53.516 30.98l-11.6.497c1.59 2.544 1.484 2.063 3.807 4.386.03.03.058.053.087.08h11.73c-2.243-2.407-2.867-2.487-4.024-4.963z" id="path-10" class="cls-7"/><path d="M159.37 78.733H-.004v-42.79H159.37v42.79z" id="path-11" class="cls-6"/><path d="M143.236 99.702L15.93 85.155v-6.423h127.306v20.97z" id="path-12" class="cls-7"/></g></svg>