<svg xmlns="http://www.w3.org/2000/svg" preserveAspectRatio="xMidYMid" width="199" height="219" viewBox="0 0 199 219"><defs><style>.cls-3{fill:#2476ff}.cls-7{fill:#fff}.cls-10{fill:#ff3a2f}.cls-12{fill:#142a3b}.cls-13{fill:#0cb04a}.cls-14{fill:#020403;opacity:.35}</style></defs><g id="group-144svg"><path d="M86.213 187.58h12.78c2.464 0 4.461 1.254 4.461 2.8 0 1.547-1.997 2.8-4.461 2.8h-.594c-2.465 0-4.463 1.253-4.463 2.801 0 1.546 1.998 2.799 4.463 2.799h27.473c2.464 0 4.461 1.254 4.461 2.802 0 1.546-1.997 2.8-4.461 2.8H56.567c-2.463 0-4.46-1.254-4.46-2.8 0-1.548 1.997-2.802 4.46-2.802h7.626c2.464 0 4.462-1.253 4.462-2.799 0-1.548-1.998-2.801-4.462-2.801H27.905c-2.465 0-4.462-1.253-4.462-2.8 0-1.546 1.997-2.8 4.462-2.8h58.308z" id="path-1" class="cls-3" fill-rule="evenodd"/><path d="M164.468 206.468c2.967 0 5.371-1.881 5.371-4.201 0-2.321-2.404-4.2-5.371-4.2h-16.459c-2.966 0-5.37 1.879-5.37 4.2 0 2.32 2.404 4.201 5.37 4.201h16.459z" id="path-2" class="cls-3" fill-rule="evenodd"/><path d="M35.439 217.68c3.696 0 6.692-1.882 6.692-4.2 0-2.32-2.996-4.202-6.692-4.202H14.93c-3.696 0-6.692 1.882-6.692 4.202 0 2.318 2.996 4.2 6.692 4.2h20.509z" id="path-3" class="cls-3" fill-rule="evenodd"/><path d="M22.33 114.127c0 6.113-5.003 11.069-11.173 11.069-6.171 0-11.172-4.956-11.172-11.069s5.001-11.067 11.172-11.067c6.17 0 11.173 4.954 11.173 11.067z" id="path-4" class="cls-3" fill-rule="evenodd"/><path d="M16.207 110.394c0 2.762-2.261 5.003-5.05 5.003-2.789 0-5.05-2.241-5.05-5.003 0-2.763 2.261-5.003 5.05-5.003 2.789 0 5.05 2.24 5.05 5.003z" id="path-5" class="cls-7" fill-rule="evenodd"/><path d="M18.386 36.405c0 3.954-3.236 7.16-7.229 7.16-3.992 0-7.228-3.206-7.228-7.16 0-3.955 3.236-7.162 7.228-7.162 3.993 0 7.229 3.207 7.229 7.162z" id="path-6" class="cls-3" fill-rule="evenodd"/><path d="M61.577 6.54c0 2.847-2.328 5.153-5.2 5.153-2.872 0-5.201-2.306-5.201-5.153 0-2.845 2.329-5.151 5.201-5.151 2.872 0 5.2 2.306 5.2 5.151z" id="path-7" class="cls-3" fill-rule="evenodd"/><path d="M34.49 82.117h-9.453V53.908h9.453v28.209z" id="path-8" class="cls-10" fill-rule="evenodd"/><path d="M194.836 82.117h-13.5V53.908h13.5v28.209z" id="path-9" class="cls-10" fill-rule="evenodd"/><path d="M34.49 52.823v30.379c0 8.39 6.866 15.191 15.335 15.191h32.38c5.478 0 10.54-2.894 13.279-7.594 5.902-10.128 20.656-10.128 26.558 0 2.739 4.7 7.801 7.594 13.279 7.594h32.381c8.468 0 15.334-6.801 15.334-15.191V52.823c0-8.388-6.866-15.189-15.334-15.189H49.825c-8.469 0-15.335 6.801-15.335 15.189z" id="path-10" class="cls-12" fill-rule="evenodd"/><path d="M47.593 59.357V76.67c0 4.781 3.912 8.657 8.738 8.657h25.992a8.75 8.75 0 0 0 7.566-4.329h7.538c3.364-5.771 19.309-5.771 22.673 0h7.535c1.562 2.679 11.983 4.329 15.105 4.329h18.455c4.826 0 8.739-3.876 8.739-8.657V59.357c0-4.783-3.913-8.657-8.739-8.657H56.331c-4.826 0-8.738 3.874-8.738 8.657z" id="path-11" class="cls-13" fill-rule="evenodd"/><path d="M161.195 50.7H56.331a8.741 8.741 0 0 0-7.176 3.733h104.503c4.827 0 8.739 3.875 8.739 8.656v17.313a8.55 8.55 0 0 1-1.562 4.925h.36c4.826 0 8.739-3.876 8.739-8.657V59.357c0-4.782-3.913-8.657-8.739-8.657z" id="path-12" class="cls-14" fill-rule="evenodd"/><path d="M151.568 193.877c-26.098 0-47.327-21.035-47.327-46.886 0-1.992 1.628-3.606 3.639-3.606 2.012 0 3.639 1.614 3.639 3.606 0 21.878 17.967 39.677 40.049 39.677 22.085 0 40.052-17.799 40.052-39.677V3.62c0-1.99 1.628-3.605 3.639-3.605 2.012 0 3.639 1.615 3.639 3.605v143.371c0 25.851-21.232 46.886-47.33 46.886z" id="path-13" class="cls-12" fill-rule="evenodd"/><path d="M109.734 148.256c15.298 0 27.7-12.285 27.7-27.439H82.035c0 15.154 12.401 27.439 27.699 27.439z" id="path-14" class="cls-10" fill-rule="evenodd"/><path d="M125.843 120.816c-1.842 13.385-13.397 23.707-27.414 23.707a28.21 28.21 0 0 1-2.833-.142 27.709 27.709 0 0 0 14.138 3.875c15.298 0 27.7-12.285 27.7-27.44h-11.591z" id="path-15" class="cls-14" fill-rule="evenodd"/><path d="M94.686 128.312c0 1.889-1.546 3.422-3.453 3.422-1.909 0-3.454-1.533-3.454-3.422 0-1.891 1.545-3.423 3.454-3.423 1.907 0 3.453 1.532 3.453 3.423z" id="path-16" class="cls-7" fill-rule="evenodd"/><path d="M103.713 135.776c0 2.706-2.213 4.899-4.944 4.899s-4.944-2.193-4.944-4.899c0-2.703 2.213-4.895 4.944-4.895s4.944 2.192 4.944 4.895z" id="path-17" class="cls-7" fill-rule="evenodd"/><path d="M59.516 83.921a1.826 1.826 0 0 1-1.503-.785 1.794 1.794 0 0 1 .476-2.505l35.17-23.833a1.836 1.836 0 0 1 2.53.47 1.794 1.794 0 0 1-.477 2.505L60.543 83.605a1.82 1.82 0 0 1-1.027.316z" id="path-18" class="cls-7" fill-rule="evenodd"/><path d="M63.517 69.817a1.828 1.828 0 0 1-1.503-.786 1.794 1.794 0 0 1 .477-2.504l14.356-9.729a1.836 1.836 0 0 1 2.53.47 1.795 1.795 0 0 1-.476 2.505l-14.358 9.729c-.312.213-.67.315-1.026.315z" id="path-19" class="cls-7" fill-rule="evenodd"/></g></svg>