<svg xmlns="http://www.w3.org/2000/svg" xmlns:xlink="http://www.w3.org/1999/xlink" preserveAspectRatio="xMidYMid" width="219" height="186" viewBox="0 0 219 186">
  <defs>
    <style>

      .cls-3 {
        fill: #ededed;
      }

      .cls-4 {
        fill: #020403;
        opacity: 0.25;
      }

      .cls-6 {
        fill: #fbb713;
      }

      .cls-7 {
        fill: #ffffff;
      }
    </style>
  </defs>
  <g id="group-77svg">
    <path d="M75.175,38.856 C75.175,38.856 131.098,-48.536 191.746,38.856 C191.746,38.856 239.006,64.276 207.501,103.845 C207.501,103.845 203.562,218.322 79.901,157.460 C79.901,157.460 -33.521,100.499 75.175,38.856 Z" id="path-1" class="cls-3" fill-rule="evenodd"/>
    <path d="M191.746,38.856 C172.898,11.697 154.509,1.425 138.109,0.159 C150.339,5.320 163.319,16.057 176.525,35.086 C176.525,35.086 223.785,60.505 192.279,100.075 C192.279,100.075 189.374,184.280 110.524,169.846 C204.226,198.575 207.501,103.845 207.501,103.845 C239.006,64.276 191.746,38.856 191.746,38.856 Z" id="path-2" class="cls-4" fill-rule="evenodd"/>
    <path d="M168.409,89.800 C168.409,111.075 150.999,128.322 129.522,128.322 C108.046,128.322 90.637,111.075 90.637,89.800 C90.637,68.524 108.046,51.277 129.522,51.277 C150.999,51.277 168.409,68.524 168.409,89.800 Z" id="path-3" class="cls-4" fill-rule="evenodd"/>
    <path d="M160.150,89.800 C160.150,106.557 146.438,120.140 129.522,120.140 C112.608,120.140 98.895,106.557 98.895,89.800 C98.895,73.043 112.608,59.460 129.522,59.460 C146.438,59.460 160.150,73.043 160.150,89.800 Z" id="path-4" class="cls-6" fill-rule="evenodd"/>
    <path d="M111.540,92.188 C109.529,92.188 107.902,90.574 107.902,88.583 C107.902,75.364 118.758,64.611 132.098,64.611 C134.109,64.611 135.738,66.225 135.738,68.216 C135.738,70.205 134.109,71.819 132.098,71.819 C122.770,71.819 115.180,79.340 115.180,88.583 C115.180,90.574 113.552,92.188 111.540,92.188 Z" id="path-5" class="cls-7" fill-rule="evenodd"/>
    <path d="M40.519,157.075 C40.519,157.075 28.781,157.075 28.781,157.075 C26.518,157.075 24.684,159.190 24.684,161.796 C24.684,164.403 26.518,166.516 28.781,166.516 C28.781,166.516 29.327,166.516 29.327,166.516 C31.591,166.516 33.425,168.629 33.425,171.237 C33.425,173.844 31.591,175.958 29.327,175.958 C29.327,175.958 4.095,175.958 4.095,175.958 C1.833,175.958 -0.002,178.071 -0.002,180.678 C-0.002,183.284 1.833,185.398 4.095,185.398 C4.095,185.398 34.417,185.398 34.417,185.398 C34.417,185.398 96.396,185.398 96.396,185.398 C98.660,185.398 100.494,183.284 100.494,180.678 C100.494,178.071 98.660,175.958 96.396,175.958 C96.396,175.958 89.394,175.958 89.394,175.958 C87.132,175.958 85.297,173.844 85.297,171.237 C85.297,168.629 87.132,166.516 89.394,166.516 C89.394,166.516 122.721,166.516 122.721,166.516 C124.985,166.516 126.819,164.403 126.819,161.796 C126.819,159.190 124.985,157.075 122.721,157.075 C122.721,157.075 114.845,157.075 114.845,157.075 C114.845,157.075 40.519,157.075 40.519,157.075 Z" id="path-6" class="cls-6" fill-rule="evenodd"/>
    <path d="M141.039,184.919 C137.320,184.919 134.304,183.446 134.304,181.629 C134.304,179.811 137.320,178.338 141.039,178.338 C141.039,178.338 161.675,178.338 161.675,178.338 C165.395,178.338 168.409,179.811 168.409,181.629 C168.409,183.446 165.395,184.919 161.675,184.919 C161.675,184.919 141.039,184.919 141.039,184.919 Z" id="path-7" class="cls-6" fill-rule="evenodd"/>
    <path d="M54.303,8.503 C54.303,8.503 49.488,8.503 49.488,8.503 C48.559,8.503 47.806,9.370 47.806,10.439 C47.806,11.509 48.559,12.376 49.488,12.376 C49.488,12.376 49.712,12.376 49.712,12.376 C50.640,12.376 51.393,13.243 51.393,14.312 C51.393,15.382 50.640,16.248 49.712,16.248 C49.712,16.248 39.360,16.248 39.360,16.248 C38.433,16.248 37.680,17.115 37.680,18.185 C37.680,19.255 38.433,20.122 39.360,20.122 C39.360,20.122 51.801,20.122 51.801,20.122 C51.801,20.122 77.226,20.122 77.226,20.122 C78.153,20.122 78.907,19.255 78.907,18.185 C78.907,17.115 78.153,16.248 77.226,16.248 C77.226,16.248 74.353,16.248 74.353,16.248 C73.424,16.248 72.672,15.382 72.672,14.312 C72.672,13.243 73.424,12.376 74.353,12.376 C74.353,12.376 88.025,12.376 88.025,12.376 C88.954,12.376 89.705,11.509 89.705,10.439 C89.705,9.370 88.954,8.503 88.025,8.503 C88.025,8.503 84.794,8.503 84.794,8.503 C84.794,8.503 54.303,8.503 54.303,8.503 Z" id="path-8" class="cls-6" fill-rule="evenodd"/>
    <path d="M112.362,22.890 C110.032,22.890 108.141,21.967 108.141,20.827 C108.141,19.687 110.032,18.763 112.362,18.763 C112.362,18.763 125.301,18.763 125.301,18.763 C127.633,18.763 129.522,19.687 129.522,20.827 C129.522,21.967 127.633,22.890 125.301,22.890 C125.301,22.890 112.362,22.890 112.362,22.890 Z" id="path-9" class="cls-6" fill-rule="evenodd"/>
  </g>
</svg>
